<?xml version="1.0" encoding="UTF-8"?>
<svg version="1.1" xmlns="http://www.w3.org/2000/svg" width="1920" height="1080">
<path d="M0 0 C633.6 0 1267.2 0 1920 0 C1920 356.4 1920 712.8 1920 1080 C1286.4 1080 652.8 1080 0 1080 C0 723.6 0 367.2 0 0 Z " fill="#000000" transform="translate(0,0)"/>
<path d="M0 0 C1.04308319 -0.00807175 2.08616638 -0.01614349 3.16085815 -0.02445984 C5.36112846 -0.03823297 7.56141952 -0.0489851 9.76171875 -0.05688477 C11.98802048 -0.0683856 14.21429505 -0.08880709 16.44042969 -0.1184082 C36.48157133 -0.38429646 51.3255719 2.03959768 68.2421875 13.42578125 C81.61267129 27.10013968 88.54646884 43.12506284 88.34570312 62.2890625 C88.123832 68.8818046 86.91954894 74.94899655 84.9921875 81.23828125 C84.49912109 82.85863281 84.49912109 82.85863281 83.99609375 84.51171875 C79.14140374 98.65583289 69.53470877 110.43460943 56.3046875 117.48828125 C42.26027802 123.81351156 30.00275201 124.87850376 14.77001953 124.75976562 C11.49826949 124.73832111 8.22871478 124.7596537 4.95703125 124.78515625 C-14.82555684 124.81258888 -31.04760667 121.43628222 -45.98046875 107.39453125 C-58.07218916 94.53397312 -63.60459001 78.45603268 -63.5078125 61.05078125 C-63.50209229 59.85839844 -63.49637207 58.66601562 -63.49047852 57.4375 C-63.16388617 41.28602411 -57.87416758 28.19591087 -46.6328125 16.42578125 C-33.21365806 3.77343564 -18.00815365 0.13483092 0 0 Z " fill="#FBF9FA" transform="translate(649.0078125,441.76171875)"/>
<path d="M0 0 C0.96691772 -0.00043808 1.93383545 -0.00087616 2.93005371 -0.00132751 C6.0954272 0.00074644 9.26025725 0.02401151 12.42553711 0.04760742 C14.6322755 0.05320833 16.83901764 0.05747609 19.04576111 0.06047058 C24.83094732 0.07188034 30.61590467 0.10131417 36.40100098 0.13458252 C42.31344508 0.16536697 48.22592645 0.17899378 54.13842773 0.1940918 C65.72252842 0.22618766 77.30639973 0.27892393 88.89038086 0.34057617 C88.89038086 7.27057617 88.89038086 14.20057617 88.89038086 21.34057617 C84.71164307 21.36244995 84.71164307 21.36244995 80.44848633 21.38476562 C71.24026964 21.43512075 62.03222188 21.50171759 52.82417107 21.57629108 C47.24176351 21.62100313 41.65942909 21.66025759 36.0769043 21.68701172 C30.68864139 21.71303611 25.30065974 21.75343283 19.91257095 21.80376244 C17.85774359 21.82043691 15.80286756 21.83194756 13.74798203 21.83819008 C10.86790284 21.84782467 7.98854418 21.8758768 5.10864258 21.90820312 C4.26059555 21.90676804 3.41254852 21.90533295 2.5388031 21.90385437 C-3.63028181 22.00166973 -7.89725354 23.19078997 -12.45727539 27.62182617 C-14.47182751 30.93655023 -14.61469127 32.98445995 -14.54711914 36.84057617 C-14.54518555 38.49573242 -14.54518555 38.49573242 -14.54321289 40.18432617 C-14.04883194 43.78306315 -13.44297639 45.55390821 -11.10961914 48.34057617 C-6.22550314 50.82719497 -2.64907178 51.71396568 2.90454102 51.70947266 C3.56743134 51.71323914 4.23032166 51.71700562 4.91329956 51.72088623 C6.34113788 51.72727988 7.76901883 51.72702543 9.19685745 51.72070122 C11.46960618 51.71150745 13.74154419 51.72191031 16.01425171 51.73731995 C22.47181053 51.77717386 28.9293014 51.77863747 35.38696289 51.77636719 C39.350429 51.7763156 43.31345966 51.7957271 47.27680588 51.82570076 C49.49299967 51.83637401 51.70830567 51.82448485 53.92446899 51.81187439 C65.74798328 51.84296584 77.44669472 53.48107806 86.43334961 61.76245117 C94.10821509 69.72157093 95.4579034 79.1462197 95.29052734 89.77514648 C94.89214145 100.29963619 92.2583473 107.62102627 84.89038086 115.34057617 C75.81772365 123.72337695 63.90112964 124.50171092 52.09960938 124.45410156 C51.14273727 124.45424759 50.18586517 124.45439362 49.19999695 124.45454407 C46.05640345 124.45385079 42.91287018 124.44608588 39.76928711 124.43823242 C37.58210787 124.43636616 35.39492822 124.43494324 33.20774841 124.4339447 C27.46537105 124.4301359 21.72301918 124.42031963 15.98065186 124.40924072 C10.11527857 124.39899136 4.24990115 124.39443954 -1.61547852 124.3894043 C-13.11353837 124.37869585 -24.61157264 124.36111235 -36.10961914 124.34057617 C-36.10961914 117.08057617 -36.10961914 109.82057617 -36.10961914 102.34057617 C-33.15250977 102.33123047 -30.19540039 102.32188477 -27.14868164 102.31225586 C-17.36570331 102.27845089 -7.58293513 102.22288216 2.19987488 102.15667343 C8.12976164 102.11720656 14.05950007 102.08501401 19.98950195 102.06958008 C25.71497923 102.05440859 31.44004869 102.01995351 37.16534424 101.97226715 C39.34690807 101.95745858 41.52853012 101.94953546 43.71014404 101.94869232 C46.77196456 101.94631942 49.83266105 101.91921254 52.89428711 101.88647461 C54.23972847 101.89402016 54.23972847 101.89402016 55.61235046 101.90171814 C61.44964158 101.80549389 66.04398565 100.72221238 70.89038086 97.34057617 C74.57719981 92.5016263 74.58514447 87.19372169 73.89038086 81.34057617 C72.58942126 77.57464048 71.63967125 75.89774082 68.45288086 73.52807617 C63.91075616 71.42318912 60.10116572 71.21302192 55.09326172 71.19873047 C54.41784332 71.19525604 53.74242493 71.19178162 53.04653931 71.1882019 C51.58262385 71.18086422 50.11869741 71.17550827 48.65476799 71.17191124 C46.32839477 71.16471189 44.00222838 71.1490169 41.67591858 71.13056946 C35.06229602 71.07828303 28.44878546 71.03020885 21.83496094 71.01464844 C17.78413133 71.00449538 13.73382185 70.97498432 9.68319893 70.93332863 C8.14885986 70.92111329 6.614447 70.91587984 5.08006096 70.91812706 C-8.78128501 70.93342387 -19.60269541 68.55749114 -29.82836914 58.68041992 C-37.14841777 50.80419113 -38.48416337 41.36120204 -38.38696289 30.94995117 C-37.74685434 22.61952439 -33.89304069 15.31677844 -28.10961914 9.34057617 C-19.63369065 2.28796397 -10.87234748 -0.13126458 0 0 Z " fill="#079F4D" transform="translate(1211.109619140625,441.659423828125)"/>
<path d="M0 0 C4.36908744 2.59692434 7.84956092 5.60893289 11.41943359 9.20825195 C11.92439865 9.71453125 12.42936371 10.22081055 12.94963074 10.74243164 C14.60389986 12.40314635 16.25106315 14.07072953 17.8984375 15.73828125 C19.0584553 16.90458028 20.21899699 18.07035845 21.3800354 19.23564148 C24.4291316 22.29800014 27.47260824 25.3658772 30.51446533 28.4354248 C35.37369104 33.33785001 40.23961191 38.23360458 45.10896683 43.12596703 C46.79738758 44.82450043 48.48228839 46.5264661 50.1668396 48.22883606 C51.21836408 49.28719953 52.2700042 50.34544811 53.32177734 51.40356445 C54.68029312 52.77445976 54.68029312 52.77445976 56.06625366 54.17304993 C59.59491447 57.57325798 63.31215443 60.77313513 67 64 C75.58 72.58 84.16 81.16 93 90 C93.33 60.63 93.66 31.26 94 1 C100.93 1 107.86 1 115 1 C115.06949246 16.15124636 115.12300718 31.30247423 115.15543652 46.45384407 C115.17089529 53.48914139 115.19196577 60.52433778 115.22631836 67.55957031 C115.25945098 74.34820386 115.27685069 81.13673243 115.28463173 87.92544174 C115.2901773 90.51621019 115.30100632 93.10697285 115.31719017 95.69769669 C115.33894818 99.32479535 115.34196752 102.95145992 115.34057617 106.57861328 C115.351362 107.65107803 115.36214783 108.72354279 115.3732605 109.82850647 C115.34650208 116.26963881 114.74650222 120.83095898 110.375 125.875 C106.49700596 127.71194454 103.18584049 127.87089907 99 127 C97.08592224 125.70351315 97.08592224 125.70351315 95.23608398 123.98680115 C94.54433075 123.34918287 93.85257751 122.7115646 93.13986206 122.05462456 C89.54476617 118.60273275 85.98846935 115.11890828 82.47265625 111.58618164 C81.66194168 110.7756131 80.85122711 109.96504456 80.01594543 109.12991333 C77.36241698 106.47569354 74.71243867 103.81795961 72.0625 101.16015625 C70.21327234 99.30906164 68.36382237 97.45818908 66.51416016 95.60752869 C62.15978976 91.25006458 57.8079722 86.89006035 53.45709229 82.52911133 C48.01145418 77.07114755 42.56236899 71.61662875 37.11328125 66.16210938 C27.40556458 56.44468595 17.7030272 46.72211096 8 37 C7.67 66.37 7.34 95.74 7 126 C0.07 126 -6.86 126 -14 126 C-14.09265462 110.71839651 -14.16400844 95.43682562 -14.20724869 80.1550045 C-14.22786092 73.0591309 -14.25595559 65.96343519 -14.30175781 58.86767578 C-14.34593318 52.02068012 -14.36913385 45.17386946 -14.37950897 38.32674026 C-14.38690336 35.71363032 -14.40134268 33.10053056 -14.42292023 30.48749924 C-14.45192977 26.8291711 -14.45595684 23.17160813 -14.45410156 19.51318359 C-14.46848267 18.4313681 -14.48286377 17.34955261 -14.49768066 16.23495483 C-14.46438096 10.17221269 -14.06780903 6.60833329 -10 2 C-6.79214982 -0.35242347 -3.90350748 -0.4684209 0 0 Z " fill="#FBF9FA" transform="translate(768,440)"/>
<path d="M0 0 C1.05019821 -0.00524185 2.10039642 -0.0104837 3.18241882 -0.0158844 C5.39528524 -0.02228166 7.60818576 -0.02099752 9.82104492 -0.01245117 C13.17884964 -0.00395777 16.53494174 -0.03270999 19.89257812 -0.06445312 C22.05338491 -0.06606597 24.21419467 -0.06548601 26.375 -0.0625 C27.36494461 -0.07373398 28.35488922 -0.08496796 29.37483215 -0.09654236 C40.4698136 0.01251606 49.93527507 3.59086122 57.88671875 11.43359375 C66.30107709 21.36929812 69.09028158 32.67343576 68.11425781 45.45996094 C66.71555721 57.59203787 61.20343428 66.19012657 52.0390625 73.89453125 C46.14639889 78.10816004 39.51141836 80.52111455 32.27685547 80.6105957 C30.91426102 80.62984856 30.91426102 80.62984856 29.5241394 80.64949036 C28.06006149 80.66057076 28.06006149 80.66057076 26.56640625 80.671875 C25.55256866 80.67994675 24.53873108 80.68801849 23.49417114 80.69633484 C21.34736837 80.71015838 19.20054378 80.72088826 17.05371094 80.72875977 C14.86972566 80.74025954 12.68576804 80.76067936 10.50195312 80.7902832 C7.33574442 80.83319291 4.17037055 80.84916322 1.00390625 80.859375 C-0.44195358 80.88563713 -0.44195358 80.88563713 -1.91702271 80.91242981 C-13.14938947 80.87699282 -21.69086762 76.4764321 -29.765625 68.87890625 C-35.70762665 62.55891467 -39.6565601 54.11129561 -40.11328125 45.43359375 C-40.17515625 44.56347656 -40.23703125 43.69335938 -40.30078125 42.796875 C-40.76679713 31.65618297 -37.9437597 21.58454503 -31.1640625 12.65625 C-22.43982995 3.20084368 -12.49776505 -0.03683562 0 0 Z " fill="#010101" transform="translate(647.11328125,463.56640625)"/>
<path d="M0 0 C6.60658077 4.49470634 10.04391959 10.51290101 13.87747192 17.35797119 C15.71160681 20.63169206 17.59009296 23.87998032 19.4609375 27.1328125 C19.84071243 27.79606537 20.22048737 28.45931824 20.61177063 29.14266968 C24.29275576 35.55598047 28.15677173 41.84586507 32.0625 48.125 C37.45309259 56.81852199 42.74150318 65.56375853 47.9375 74.375 C53.62438488 84.01843874 59.37340968 93.62035457 65.1875 103.1875 C65.5458493 103.77754822 65.90419861 104.36759644 66.27340698 104.9755249 C69.46991472 110.23683055 72.66772978 115.4917144 75.98828125 120.67578125 C78 124 78 124 78 126 C69.445045 127.85977283 60.30515646 129.3917359 52 126 C44.44082833 119.52318821 40.21346053 108.68929563 36.26147461 99.77563477 C35.26178712 97.14472943 35.26178712 97.14472943 34 96 C32.15968011 95.87662826 30.31470589 95.82208692 28.47045898 95.79467773 C27.28931015 95.77473251 26.10816132 95.75478729 24.89122009 95.73423767 C23.6058284 95.71752518 22.32043671 95.70081268 20.99609375 95.68359375 C19.0338662 95.6524221 19.0338662 95.6524221 17.03199768 95.62062073 C13.54844553 95.565337 10.0648334 95.51595569 6.58117676 95.46777344 C3.0286727 95.41760426 -0.5237439 95.36189433 -4.07617188 95.30664062 C-11.05070546 95.19898209 -18.02531798 95.09755433 -25 95 C-24.08426462 93.31199445 -23.16735926 91.62462359 -22.25 89.9375 C-21.48429687 88.52791016 -21.48429687 88.52791016 -20.703125 87.08984375 C-18.83817603 83.70641568 -16.9167678 80.35434366 -15 77 C-2.46 77 10.08 77 23 77 C18.545 69.4821875 18.545 69.4821875 14 61.8125 C13.08089844 60.26022705 12.16179687 58.7079541 11.21484375 57.10864258 C6.22319403 48.68846013 1.16277972 40.31650987 -4 32 C-8.432045 38.46016788 -12.46662181 45.08759906 -16.375 51.875 C-17.615044 54.01481075 -18.85596247 56.15411492 -20.09765625 58.29296875 C-21.05889404 59.9488501 -21.05889404 59.9488501 -22.03955078 61.63818359 C-25.26694391 67.17258003 -28.5397909 72.67981929 -31.8125 78.1875 C-38.41716105 89.30874498 -44.97263546 100.45805907 -51.50512695 111.62182617 C-52.02351135 112.5075103 -52.02351135 112.5075103 -52.55236816 113.41108704 C-53.48616826 115.00677604 -54.4194934 116.60274295 -55.3527832 118.19873047 C-55.89636475 119.12314941 -56.43994629 120.04756836 -57 121 C-57.67095703 122.40439331 -57.67095703 122.40439331 -58.35546875 123.8371582 C-60 126 -60 126 -62.63549805 126.56762695 C-63.66715088 126.54144287 -64.69880371 126.51525879 -65.76171875 126.48828125 C-66.87998047 126.47216797 -67.99824219 126.45605469 -69.15039062 126.43945312 C-70.31763672 126.39755859 -71.48488281 126.35566406 -72.6875 126.3125 C-73.86634766 126.28994141 -75.04519531 126.26738281 -76.25976562 126.24414062 C-79.17444548 126.18513901 -82.08659161 126.10286341 -85 126 C-81.5546761 118.72324711 -77.60798979 111.84935149 -73.38793945 104.99658203 C-71.49643914 101.92466529 -69.61861731 98.84438308 -67.73828125 95.765625 C-67.34762482 95.12685425 -66.95696838 94.4880835 -66.55447388 93.82995605 C-62.32688862 86.91222741 -58.16260681 79.95694619 -54 73 C-47.74936533 62.55891058 -41.45693376 52.14432451 -35.1229248 41.75360107 C-31.44456172 35.71824725 -27.79139706 29.67125377 -24.22265625 23.5703125 C-23.63395752 22.56419922 -23.04525879 21.55808594 -22.4387207 20.52148438 C-21.35262679 18.65862213 -20.27133058 16.79294997 -19.19604492 14.92382812 C-9.74758832 -1.29967844 -9.74758832 -1.29967844 0 0 Z " fill="#069F4D" transform="translate(1402,440)"/>
<path d="M0 0 C0.76136261 -0.00014603 1.52272522 -0.00029205 2.30715942 -0.0004425 C4.8177579 0.00025284 7.32828171 0.00802752 9.83886719 0.01586914 C11.58192911 0.01773466 13.32499156 0.01915793 15.0680542 0.02015686 C19.65146334 0.02397145 24.2348407 0.03379272 28.8182373 0.04486084 C33.49698456 0.05509769 38.17573696 0.05965936 42.85449219 0.06469727 C52.03159172 0.07541593 61.20865933 0.09300419 70.38574219 0.11352539 C70.38574219 7.37352539 70.38574219 14.63352539 70.38574219 22.11352539 C68.09620605 22.10716064 65.80666992 22.1007959 63.44775391 22.09423828 C55.83208255 22.0782033 48.21686743 22.10089423 40.60130119 22.14199162 C35.98967092 22.16571501 31.37875866 22.17691464 26.76708984 22.15820312 C22.30565459 22.14058347 17.84550064 22.15754531 13.38422012 22.19720268 C11.69325079 22.20640467 10.00216825 22.20372429 8.31124496 22.18821907 C-4.29355303 22.08398653 -14.24148776 23.81505613 -24.16531372 32.29286194 C-32.33720598 40.45142594 -35.07470396 49.91052924 -35.17675781 61.17602539 C-35.06578458 68.76294234 -34.27055756 75.33794492 -30.61425781 82.11352539 C-30.20175781 82.90887695 -29.78925781 83.70422852 -29.36425781 84.52368164 C-24.27752477 93.17979839 -16.13545079 98.29885184 -6.61425781 101.11352539 C-3.87717784 101.3944205 -1.36666213 101.55156403 1.36230469 101.54589844 C2.11449783 101.55609009 2.86669098 101.56628174 3.64167786 101.57678223 C6.09811062 101.60668575 8.55415204 101.61614297 11.01074219 101.62524414 C12.72568027 101.6421077 14.44060611 101.66026018 16.15551758 101.67964172 C20.64675065 101.72696597 25.13793411 101.75688864 29.6293335 101.78308105 C34.22141312 101.81297569 38.81332207 101.85947526 43.40527344 101.90454102 C52.39869294 101.99037411 61.39209529 102.05627124 70.38574219 102.11352539 C70.38574219 109.37352539 70.38574219 116.63352539 70.38574219 124.11352539 C60.70110017 124.18162626 51.01662032 124.23652756 41.33179188 124.26896191 C36.83348928 124.28453813 32.33536069 124.30562712 27.8371582 124.33984375 C23.48641465 124.37272707 19.13583721 124.39043869 14.78497887 124.39815712 C13.13500038 124.40364914 11.48502974 124.41437175 9.83512306 124.43071556 C-9.38193954 124.6132992 -25.07431492 121.15137993 -39.39941406 107.42993164 C-53.5057353 92.6767597 -58.2528732 75.71351898 -57.88769531 55.63305664 C-57.21494794 40.11657148 -50.85280383 26.68068747 -40.18457031 15.43383789 C-31.82525476 7.88758647 -22.43573105 3.80747864 -11.61425781 1.11352539 C-11.05401917 0.9366066 -10.49378052 0.75968781 -9.91656494 0.57740784 C-6.61810923 -0.08718451 -3.34968411 -0.01684396 0 0 Z " fill="#FAF8F9" transform="translate(501.6142578125,441.886474609375)"/>
<path d="M0 0 C36.3 0 72.6 0 110 0 C110 6.93 110 13.86 110 21 C80.63 21 51.26 21 21 21 C21 47.73 21 74.46 21 102 C50.7 102 80.4 102 111 102 C111 109.26 111 116.52 111 124 C74.37 124 37.74 124 0 124 C0 83.08 0 42.16 0 0 Z " fill="#FDFBFC" transform="translate(904,442)"/>
<path d="M0 0 C1.71206496 0.00373681 3.42413208 0.00658062 5.13619995 0.00857544 C9.61106418 0.01615938 14.08579562 0.03576198 18.56060791 0.0579834 C23.13934534 0.07855559 27.71810453 0.08760132 32.296875 0.09765625 C41.2578798 0.11901356 50.21875176 0.1541521 59.1796875 0.1953125 C59.1796875 7.4553125 59.1796875 14.7153125 59.1796875 22.1953125 C56.89949707 22.2046582 54.61930664 22.21400391 52.27001953 22.22363281 C44.70623414 22.25751604 37.14271832 22.31312755 29.57914925 22.37921524 C24.99676277 22.41859571 20.41456574 22.45083018 15.83203125 22.46630859 C11.40326091 22.48153766 6.97501175 22.51609283 2.54647446 22.56362152 C0.8633873 22.57837122 -0.8197743 22.58634981 -2.50292587 22.58719635 C-15.87183146 22.60067322 -25.55028365 24.09306061 -35.55078125 33.62109375 C-44.93419893 44.26424737 -45.52725322 55.37607941 -44.99511719 68.88232422 C-44.30290022 78.0416308 -40.28678274 85.77975935 -33.8203125 92.1953125 C-26.40588472 98.2762101 -18.56492703 101.64795119 -8.93554688 101.62768555 C-8.1931073 101.6378772 -7.45066772 101.64806885 -6.68572998 101.65856934 C-4.26176175 101.6884668 -1.83819013 101.69792911 0.5859375 101.70703125 C2.2784555 101.72389526 3.9709611 101.74204781 5.66345215 101.76142883 C10.09550096 101.80874815 14.52749951 101.83867397 18.9597168 101.86486816 C23.49147464 101.89476532 28.02305959 101.94126401 32.5546875 101.98632812 C41.4296165 102.07215559 50.30452814 102.13805545 59.1796875 102.1953125 C59.1796875 109.4553125 59.1796875 116.7153125 59.1796875 124.1953125 C49.41648756 124.30899264 39.65373856 124.40041537 29.89002228 124.45437336 C25.35465085 124.48029126 20.81976186 124.5153564 16.28466797 124.57250977 C11.89497752 124.62747442 7.50574635 124.65686629 3.11573792 124.66969872 C1.4542367 124.67882458 -0.20724394 124.69663925 -1.86854553 124.72396278 C-20.98470938 125.02540549 -36.360662 120.40768645 -50.5703125 107.0078125 C-63.34648456 93.61285148 -68.58968387 77.90418379 -68.19897461 59.70458984 C-68.10358364 57.19868064 -67.97273491 54.69833273 -67.8203125 52.1953125 C-67.75972656 51.05964844 -67.69914062 49.92398438 -67.63671875 48.75390625 C-66.06265404 34.4707265 -57.28273984 21.17406751 -46.4140625 12.2109375 C-31.78660609 1.37921345 -17.62966935 -0.11373772 0 0 Z " fill="#FAF9FA" transform="translate(1097.8203125,441.8046875)"/>
<path d="M0 0 C1.62905273 -0.04930664 1.62905273 -0.04930664 3.29101562 -0.09960938 C11.60794412 -0.15455605 18.44287299 1.45078133 24.72094727 7.17871094 C30.47388087 13.32570625 32.52596227 19.89382907 32.28515625 28.23828125 C31.17849392 35.72883041 27.74671127 42.37436899 21.75 47.0625 C15.05676498 51.57940707 8.99293647 51.83184861 1.125 51.875 C0.08666016 51.90787109 -0.95167969 51.94074219 -2.02148438 51.97460938 C-10.19562276 52.03098274 -16.89424706 50.27975563 -23.09790039 44.7277832 C-28.58896611 38.96457833 -30.33794299 32.89993603 -30.6875 25.0625 C-30.48212834 17.67767723 -28.63500348 11.78074431 -23.25 6.55859375 C-15.76864821 0.6783646 -9.30484236 0.04883008 0 0 Z " fill="#F8F6F7" transform="translate(1222.1875,615.5625)"/>
<path d="M0 0 C1.61551758 -0.04253906 1.61551758 -0.04253906 3.26367188 -0.0859375 C11.53073238 -0.10596672 18.45001604 1.54210371 24.63012695 7.31445312 C30.66484001 13.84583092 31.1440783 20.16064249 30.9375 28.82421875 C30.53111232 34.79938754 29.30274748 38.62971344 25.3125 43.25 C24.013125 44.36375 24.013125 44.36375 22.6875 45.5 C21.883125 46.221875 21.07875 46.94375 20.25 47.6875 C13.93201611 52.15631787 7.26581658 51.86592166 -0.1875 51.875 C-1.76337891 51.91173828 -1.76337891 51.91173828 -3.37109375 51.94921875 C-11.53110459 51.97985709 -16.87387142 50.46972468 -23.0625 45.125 C-30.61427684 36.31459369 -31.14391315 28.77158682 -30.3125 17.5 C-28.73814427 11.30690185 -24.63086744 6.89534193 -19.3125 3.5 C-12.9811615 0.00022318 -7.14013183 -0.01690973 0 0 Z " fill="#F8F6F7" transform="translate(879.3125,615.5)"/>
<path d="M0 0 C3.57964137 1.48966442 4.14357014 3.3069994 5.765625 6.796875 C6.04865479 7.39725586 6.33168457 7.99763672 6.62329102 8.61621094 C7.61435536 10.74852501 8.56750816 12.89512048 9.515625 15.046875 C9.90927246 15.93375 10.30291992 16.820625 10.70849609 17.734375 C12.76674195 22.3932261 14.79920291 27.06317534 16.79296875 31.75 C17.12546631 32.53020508 17.45796387 33.31041016 17.80053711 34.11425781 C18.515625 36.046875 18.515625 36.046875 18.515625 38.046875 C19.175625 38.046875 19.835625 38.046875 20.515625 38.046875 C21.08603516 36.21769531 21.08603516 36.21769531 21.66796875 34.3515625 C23.74573792 28.12191519 26.41276545 22.16805838 29.078125 16.171875 C29.8196582 14.48191406 29.8196582 14.48191406 30.57617188 12.7578125 C34.25052684 4.44452224 34.25052684 4.44452224 36.515625 1.046875 C39.640625 0.859375 39.640625 0.859375 42.515625 1.046875 C45.00507163 6.41429461 46.54605316 11.67053049 47.890625 17.421875 C49.67219879 24.82473957 51.63280139 32.13358986 53.90380859 39.40185547 C55.20001875 43.63232022 55.99472714 47.6702006 56.515625 52.046875 C53.545625 52.046875 50.575625 52.046875 47.515625 52.046875 C47.31928467 51.29591553 47.12294434 50.54495605 46.9206543 49.77124023 C46.02038395 46.34079485 45.1118318 42.91259481 44.203125 39.484375 C43.89439453 38.30294922 43.58566406 37.12152344 43.26757812 35.90429688 C42.96142578 34.75380859 42.65527344 33.60332031 42.33984375 32.41796875 C42.06229248 31.36536865 41.78474121 30.31276855 41.4987793 29.22827148 C40.40476475 25.68814147 39.02646451 22.42810029 37.515625 19.046875 C37.10723389 20.00577637 36.69884277 20.96467773 36.27807617 21.95263672 C34.76077738 25.50865135 33.23168546 29.05949098 31.69897461 32.60888672 C31.03721393 34.14591066 30.3786614 35.68431999 29.72338867 37.22412109 C28.78102854 39.43699099 27.82724917 41.64462465 26.87109375 43.8515625 C26.5803447 44.54120087 26.28959564 45.23083923 25.99003601 45.94137573 C24.48725436 49.37827377 23.71415917 50.91451889 20.515625 53.046875 C18.578125 53.046875 18.578125 53.046875 16.515625 52.046875 C13.55369449 48.01241857 11.44183196 43.93723496 9.5 39.3359375 C9.23930725 38.72293793 8.9786145 38.10993835 8.71002197 37.47836304 C7.88945625 35.54524793 7.07741678 33.60868857 6.265625 31.671875 C5.70629226 30.35002201 5.14640141 29.02840503 4.5859375 27.70703125 C3.22271121 24.48967913 1.86710033 21.26918378 0.515625 18.046875 C-1.97387149 25.91172159 -4.2581532 33.77278101 -6.171875 41.796875 C-6.58923697 43.54243752 -7.00963722 45.28727741 -7.43359375 47.03125 C-7.61237061 47.78116211 -7.79114746 48.53107422 -7.9753418 49.30371094 C-8.484375 51.046875 -8.484375 51.046875 -9.484375 52.046875 C-11.00365538 52.11867464 -12.52604982 52.13079507 -14.046875 52.109375 C-14.87316406 52.10035156 -15.69945312 52.09132813 -16.55078125 52.08203125 C-17.18886719 52.07042969 -17.82695313 52.05882812 -18.484375 52.046875 C-16.5611903 43.19709823 -14.28196251 34.4911982 -11.8125 25.78125 C-10.89155807 22.52942849 -10.0109009 19.26985906 -9.15625 16 C-8.93888184 15.18104248 -8.72151367 14.36208496 -8.49755859 13.51831055 C-8.08110477 11.94633277 -7.67221509 10.37232591 -7.27197266 8.79614258 C-6.51321288 5.96508842 -5.74698367 3.45307379 -4.1484375 0.98046875 C-2.484375 0.046875 -2.484375 0.046875 0 0 Z " fill="#F6F4F5" transform="translate(933.484375,614.953125)"/>
<path d="M0 0 C1.52947266 -0.02320313 1.52947266 -0.02320313 3.08984375 -0.046875 C9.21191859 -0.01503066 12.85046931 0.419494 17.5 4.5 C21.50474045 8.93768536 22.87040776 12.25701075 22.78125 18.30859375 C22.11966551 23.4634396 19.66585105 27.36329523 16 30.9375 C10.75844215 34.21347366 5.13233497 33.75078081 -0.875 33.8125 C-2.27492188 33.85600586 -2.27492188 33.85600586 -3.703125 33.90039062 C-9.66132251 33.95524655 -12.94480183 33.42313718 -17.5 29.5 C-21.83386285 24.56836296 -21.8461262 19.78484641 -21.77734375 13.44921875 C-21.28377677 8.20072476 -18.9004728 5.72485081 -15.0703125 2.375 C-10.48004495 -0.60201627 -5.28514216 -0.08017915 0 0 Z " fill="#030303" transform="translate(879.5,624.5)"/>
<path d="M0 0 C1.37961914 -0.01063477 1.37961914 -0.01063477 2.78710938 -0.02148438 C8.83859026 0.03507152 13.43198649 0.69612901 18.08203125 4.9375 C22.04965446 10.03304285 23.07427512 14.0343724 22.4375 20.4375 C20.64299516 26.31948809 18.26888729 28.94245388 13.4375 32.4375 C9.61029148 34.35110426 4.96048009 33.70933213 0.75 33.75 C-0.23162109 33.77900391 -1.21324219 33.80800781 -2.22460938 33.83789062 C-8.58121245 33.89331372 -12.42786529 33.27826124 -17.5625 29.4375 C-21.68445931 24.79900443 -22.19829828 18.97966642 -21.94140625 12.98828125 C-21.38067728 9.21347697 -20.18385356 7.19328195 -17.5625 4.4375 C-11.68476894 0.24789013 -7.11355501 -0.15518663 0 0 Z " fill="#020202" transform="translate(1222.5625,624.5625)"/>
<path d="M0 0 C22.77 0 45.54 0 69 0 C69 5.94 69 11.88 69 18 C46.23 18 23.46 18 0 18 C0 12.06 0 6.12 0 0 Z " fill="#FEFCFD" transform="translate(941,494)"/>
<path d="M0 0 C3.3 0 6.6 0 10 0 C10.01458252 1.00377686 10.02916504 2.00755371 10.04418945 3.04174805 C10.10232052 6.7787575 10.17955165 10.51517369 10.26245117 14.25170898 C10.2956311 15.86651963 10.32368458 17.48144431 10.34643555 19.09643555 C10.38011025 21.42285592 10.43242963 23.74823783 10.48828125 26.07421875 C10.49467117 26.79212082 10.5010611 27.51002289 10.50764465 28.24967957 C10.6356731 32.65003439 11.28903932 35.50278004 14 39 C20.91800998 43.48153971 28.91534819 42.84980253 36.8046875 41.53125 C41.55352023 40.2245484 41.55352023 40.2245484 44.57861328 36.41015625 C46.17527413 32.5794866 46.4739722 29.27640118 46.51171875 25.1953125 C46.52966995 24.4713327 46.54762115 23.74735291 46.56611633 23.00143433 C46.61991138 20.70934723 46.65401402 18.41746459 46.6875 16.125 C46.72070049 14.56247173 46.75519266 12.99997034 46.79101562 11.4375 C46.87561923 7.62514831 46.94257559 3.812854 47 0 C49.64 0 52.28 0 55 0 C55.0745169 4.99874665 55.12877437 9.99716533 55.16479492 14.99633789 C55.17982126 16.69463742 55.20024823 18.39289855 55.22631836 20.09106445 C55.26297449 22.54127518 55.27978789 24.99097 55.29296875 27.44140625 C55.30845261 28.19273331 55.32393646 28.94406036 55.33988953 29.71815491 C55.34187864 36.04047524 53.81084731 40.48817953 50.0625 45.6875 C41.23288327 52.35476161 30.70710894 52.97444084 20 52 C12.96487565 50.72671578 7.57195509 48.61978864 3.3125 42.625 C0.52481297 37.04962594 -0.28491855 32.16357607 -0.1953125 25.9765625 C-0.1924826 25.23038666 -0.18965271 24.48421082 -0.18673706 23.71542358 C-0.17561687 21.35178012 -0.15052821 18.98852732 -0.125 16.625 C-0.11495962 15.01432842 -0.10583562 13.40365085 -0.09765625 11.79296875 C-0.0757044 7.86183056 -0.04123185 3.93098133 0 0 Z " fill="#F4F2F3" transform="translate(736,616)"/>
<path d="M0 0 C5.10566748 2.10233367 7.71074704 8.31705202 10.390625 12.90625 C10.78771667 13.57861694 11.18480835 14.25098389 11.59393311 14.94372559 C12.85794379 17.08535462 14.11673146 19.22999319 15.375 21.375 C17.0242486 24.17814212 18.67585145 26.97989007 20.328125 29.78125 C20.72922485 30.4626001 21.13032471 31.1439502 21.5435791 31.84594727 C24.85325264 37.45364182 28.26399858 42.99375401 31.71777344 48.51367188 C33.125 50.875 33.125 50.875 33.125 51.875 C29.25277872 52.63123851 25.9538549 52.951534 22.125 51.875 C20.6796875 49.23828125 20.6796875 49.23828125 19.4375 45.9375 C18.05120683 42.4551358 18.05120683 42.4551358 15.125 39.875 C7.39000658 37.9212128 -0.96332833 38.50199086 -8.875 38.875 C-7.885 36.565 -6.895 34.255 -5.875 31.875 C-0.595 31.875 4.685 31.875 10.125 31.875 C8.50883868 29.03628122 6.88272948 26.20416486 5.25 23.375 C4.78980469 22.56417969 4.32960938 21.75335937 3.85546875 20.91796875 C3.18837891 19.76748047 3.18837891 19.76748047 2.5078125 18.59375 C2.09934082 17.88154297 1.69086914 17.16933594 1.27001953 16.43554688 C0.89216309 15.92056641 0.51430664 15.40558594 0.125 14.875 C-0.535 14.875 -1.195 14.875 -1.875 14.875 C-2.38546875 15.79796875 -2.8959375 16.7209375 -3.421875 17.671875 C-7.94200565 25.79860523 -12.59217063 33.83728301 -17.375 41.8125 C-17.90319336 42.69454102 -18.43138672 43.57658203 -18.97558594 44.48535156 C-22.7454556 50.7454556 -22.7454556 50.7454556 -23.875 51.875 C-27.20827842 52.0174478 -30.53953893 51.91722103 -33.875 51.875 C-29.98023775 43.60500681 -25.34118934 35.8408586 -20.5625 28.0625 C-19.83362184 26.86936202 -19.10510472 25.6760034 -18.37695312 24.48242188 C-16.9358251 22.12148839 -15.48992217 19.76358119 -14.04052734 17.40771484 C-12.55354489 14.98880801 -11.08200244 12.56130024 -9.61962891 10.12744141 C-9.25633987 9.52668289 -8.89305084 8.92592438 -8.51875305 8.30696106 C-7.51441127 6.64569277 -6.51451575 4.9817388 -5.51489258 3.31762695 C-3.77548485 0.72677176 -3.14493991 -0.20966266 0 0 Z " fill="#F8F6F7" transform="translate(1026.875,615.125)"/>
<path d="M0 0 C3.66688794 1.39820505 4.88777699 3.80188121 6.7578125 7.06640625 C7.15669678 7.73309326 7.55558105 8.39978027 7.96655273 9.08666992 C8.93025853 10.70266642 9.8860863 12.32337265 10.83642578 13.94726562 C13.02581107 17.67261271 15.24942892 21.37681911 17.47265625 25.08203125 C19.21517779 27.99251306 20.95569495 30.90418789 22.6953125 33.81640625 C23.12821594 34.54070831 23.56111938 35.26501038 24.00714111 36.01126099 C25.25157113 38.09669976 26.49169451 40.18463532 27.73046875 42.2734375 C28.10920639 42.90723328 28.48794403 43.54102905 28.87815857 44.19403076 C30.40838699 46.78244691 31.67837458 49.1405925 32.6328125 52.00390625 C29.15431479 52.56074086 26.08794282 52.77744289 22.6328125 52.00390625 C19.93710088 49.35184987 18.34300417 46.34917982 16.6328125 43.00390625 C15.9728125 42.01390625 15.3128125 41.02390625 14.6328125 40.00390625 C12.2171012 39.49486241 12.2171012 39.49486241 9.40625 39.4921875 C7.859375 39.43901367 7.859375 39.43901367 6.28125 39.38476562 C5.20101563 39.36220703 4.12078125 39.33964844 3.0078125 39.31640625 C1.91984375 39.28224609 0.831875 39.24808594 -0.2890625 39.21289062 C-2.98166813 39.13022291 -5.67394041 39.06113538 -8.3671875 39.00390625 C-6.4921875 33.12890625 -6.4921875 33.12890625 -5.3671875 32.00390625 C-2.83925356 31.76718642 -0.33783784 31.58247375 2.1953125 31.44140625 C4.6496875 31.29703125 7.1040625 31.15265625 9.6328125 31.00390625 C4.6828125 22.58890625 4.6828125 22.58890625 -0.3671875 14.00390625 C-4.031439 19.25254323 -7.2897634 24.59096436 -10.3203125 30.2265625 C-11.38912815 32.17665355 -12.46105296 34.12500743 -13.53369141 36.07299805 C-14.26118039 37.41142697 -14.9762342 38.75668385 -15.67919922 40.1081543 C-17.92125117 44.3984432 -20.11315712 48.39751556 -23.3671875 52.00390625 C-26.9634986 53.12696258 -29.74686664 52.94754053 -33.3671875 52.00390625 C-31.88547367 47.98550206 -29.97152811 44.42539099 -27.8046875 40.734375 C-27.45684708 40.14028839 -27.10900665 39.54620178 -26.75062561 38.93411255 C-25.62667287 37.01757798 -24.49730717 35.10430989 -23.3671875 33.19140625 C-22.59431642 31.87850126 -21.82144859 30.56559435 -21.04858398 29.25268555 C-16.9086856 22.23329893 -12.73936088 15.23329922 -8.4296875 8.31640625 C-8.03587891 7.68307373 -7.64207031 7.04974121 -7.23632812 6.3972168 C-3.20218726 0.00528414 -3.20218726 0.00528414 0 0 Z " fill="#F9F7F8" transform="translate(1154.3671875,614.99609375)"/>
<path d="M0 0 C3.66688794 1.39820505 4.88777699 3.80188121 6.7578125 7.06640625 C7.15669678 7.73309326 7.55558105 8.39978027 7.96655273 9.08666992 C8.93025853 10.70266642 9.8860863 12.32337265 10.83642578 13.94726562 C13.02581107 17.67261271 15.24942892 21.37681911 17.47265625 25.08203125 C19.21517779 27.99251306 20.95569495 30.90418789 22.6953125 33.81640625 C23.12821594 34.54070831 23.56111938 35.26501038 24.00714111 36.01126099 C25.25157113 38.09669976 26.49169451 40.18463532 27.73046875 42.2734375 C28.10920639 42.90723328 28.48794403 43.54102905 28.87815857 44.19403076 C30.40838699 46.78244691 31.67837458 49.1405925 32.6328125 52.00390625 C29.15431479 52.56074086 26.08794282 52.77744289 22.6328125 52.00390625 C19.93710088 49.35184987 18.34300417 46.34917982 16.6328125 43.00390625 C15.9728125 42.01390625 15.3128125 41.02390625 14.6328125 40.00390625 C12.2171012 39.49486241 12.2171012 39.49486241 9.40625 39.4921875 C7.859375 39.43901367 7.859375 39.43901367 6.28125 39.38476562 C5.20101562 39.36220703 4.12078125 39.33964844 3.0078125 39.31640625 C1.91984375 39.28224609 0.831875 39.24808594 -0.2890625 39.21289062 C-2.98166813 39.13022291 -5.67394041 39.06113538 -8.3671875 39.00390625 C-6.4921875 33.12890625 -6.4921875 33.12890625 -5.3671875 32.00390625 C-2.83925356 31.76718642 -0.33783784 31.58247375 2.1953125 31.44140625 C4.6496875 31.29703125 7.1040625 31.15265625 9.6328125 31.00390625 C4.6828125 22.58890625 4.6828125 22.58890625 -0.3671875 14.00390625 C-4.031439 19.25254323 -7.2897634 24.59096436 -10.3203125 30.2265625 C-11.38912815 32.17665355 -12.46105296 34.12500743 -13.53369141 36.07299805 C-14.26118039 37.41142697 -14.9762342 38.75668385 -15.67919922 40.1081543 C-17.92125117 44.3984432 -20.11315712 48.39751556 -23.3671875 52.00390625 C-26.9634986 53.12696258 -29.74686664 52.94754053 -33.3671875 52.00390625 C-31.88547367 47.98550206 -29.97152811 44.42539099 -27.8046875 40.734375 C-27.45684708 40.14028839 -27.10900665 39.54620178 -26.75062561 38.93411255 C-25.62667287 37.01757798 -24.49730717 35.10430989 -23.3671875 33.19140625 C-22.59431642 31.87850126 -21.82144859 30.56559435 -21.04858398 29.25268555 C-16.9086856 22.23329893 -12.73936088 15.23329922 -8.4296875 8.31640625 C-8.03587891 7.68307373 -7.64207031 7.04974121 -7.23632812 6.3972168 C-3.20218726 0.00528414 -3.20218726 0.00528414 0 0 Z " fill="#F9F7F8" transform="translate(698.3671875,614.99609375)"/>
<path d="M0 0 C0.74476089 0.00424484 1.48952179 0.00848969 2.2568512 0.01286316 C4.61042098 0.02951151 6.96310004 0.067135 9.31640625 0.10546875 C10.92251358 0.1205336 12.52863448 0.13421884 14.13476562 0.14648438 C18.04981672 0.17936923 21.96421104 0.23105249 25.87890625 0.29296875 C25.87890625 3.26296875 25.87890625 6.23296875 25.87890625 9.29296875 C24.91065918 9.30231445 23.94241211 9.31166016 22.94482422 9.32128906 C19.33254978 9.36133658 15.7211139 9.42713429 12.109375 9.50048828 C10.54991475 9.52861288 8.99031421 9.54986964 7.43066406 9.56396484 C5.18091452 9.58551417 2.93283651 9.63221932 0.68359375 9.68359375 C-0.00727325 9.68482239 -0.69814026 9.68605103 -1.40994263 9.68731689 C-6.40378678 9.83646418 -9.24495861 11.20618976 -13.12109375 14.29296875 C-16.81008517 18.49078657 -17.53097997 22.42543221 -17.46875 27.875 C-16.87499821 32.00457709 -14.91743501 35.24115928 -12.12109375 38.29296875 C-7.99929021 41.3610317 -4.40465704 41.75887109 0.5859375 41.8046875 C1.31133224 41.8226387 2.03672699 41.8405899 2.78410339 41.85908508 C5.08647967 41.91299092 7.38865104 41.94701876 9.69140625 41.98046875 C11.25849193 42.01365943 12.82555065 42.04815071 14.39257812 42.08398438 C18.22120582 42.16870534 22.04977485 42.23560942 25.87890625 42.29296875 C25.87890625 45.26296875 25.87890625 48.23296875 25.87890625 51.29296875 C21.18332978 51.3925162 16.48837962 51.46475342 11.79199219 51.51269531 C10.19748217 51.53269928 8.60304447 51.55991176 7.00878906 51.59472656 C-9.42059209 51.94428786 -9.42059209 51.94428786 -16.12109375 47.29296875 C-17.04277344 46.66390625 -17.96445313 46.03484375 -18.9140625 45.38671875 C-24.46424517 40.12141271 -27.47528518 32.75564023 -27.80859375 25.16796875 C-27.36376069 17.44404931 -24.45600787 11.10137179 -18.74609375 5.85546875 C-13.05940676 1.16325165 -7.21343354 -0.15785049 0 0 Z " fill="#F7F5F6" transform="translate(1091.12109375,615.70703125)"/>
<path d="M0 0 C15.84 0 31.68 0 48 0 C48 2.97 48 5.94 48 9 C41.73 9 35.46 9 29 9 C29 22.86 29 36.72 29 51 C26.03 51 23.06 51 20 51 C20 37.14 20 23.28 20 9 C13.4 9 6.8 9 0 9 C0 6.03 0 3.06 0 0 Z " fill="#F8F6F7" transform="translate(796,616)"/>
<path d="M0 0 C0.495 1.485 0.495 1.485 1 3 C-1.33661521 7.31375116 -3.51221478 9.96981145 -8 12 C-13.015643 13.08430433 -17.89847574 13.16360094 -23.00292969 13.18945312 C-24.33078743 13.20189308 -24.33078743 13.20189308 -25.68547058 13.21458435 C-27.59898894 13.23192241 -29.51252779 13.24710598 -31.4260788 13.26036072 C-34.45160854 13.28145733 -37.47703457 13.30847087 -40.50250244 13.33703613 C-48.01103525 13.40672435 -55.51964149 13.46636884 -63.02825928 13.52606201 C-69.38399044 13.57693822 -75.73966371 13.6317228 -82.09531403 13.69187927 C-85.0811645 13.7184985 -88.06702033 13.73927983 -91.05291748 13.7598877 C-92.87349714 13.7764836 -94.69407431 13.79335481 -96.51464844 13.81054688 C-97.34894882 13.81473129 -98.18324921 13.81891571 -99.04283142 13.82322693 C-103.15388196 13.76681541 -103.15388196 13.76681541 -107 15 C-107.33 20.61 -107.66 26.22 -108 32 C-96.53395269 31.89175751 -85.06796158 31.77961193 -73.60202026 31.66066074 C-68.27750641 31.60557727 -62.95298693 31.55218122 -57.62841797 31.50268555 C-52.48663771 31.4548262 -47.34492071 31.40247682 -42.20321655 31.34705925 C-40.24491966 31.32673305 -38.28660549 31.30800451 -36.32827759 31.29092598 C-33.57816349 31.26666509 -30.82816656 31.23664207 -28.078125 31.20532227 C-26.87294472 31.19668907 -26.87294472 31.19668907 -25.64341736 31.18788147 C-20.68481036 31.12400247 -15.91334883 30.6723865 -11 30 C-9.3342531 29.94084706 -7.66659344 29.91145948 -6 29.9375 C-5.236875 29.94652344 -4.47375 29.95554687 -3.6875 29.96484375 C-3.130625 29.97644531 -2.57375 29.98804688 -2 30 C-7.8228431 33.8818954 -15.00995621 33.14088036 -21.79077148 33.11352539 C-22.74764359 33.11367142 -23.70451569 33.11381744 -24.69038391 33.1139679 C-27.83397741 33.11327462 -30.97751068 33.10550971 -34.12109375 33.09765625 C-36.30827299 33.09578999 -38.49545264 33.09436707 -40.68263245 33.09336853 C-46.42500981 33.08955973 -52.16736168 33.07974346 -57.909729 33.06866455 C-63.77510229 33.05841519 -69.64047971 33.05386337 -75.50585938 33.04882812 C-87.00391922 33.03811968 -98.5019535 33.02053618 -110 33 C-110 25.74 -110 18.48 -110 11 C-107.04289062 10.9906543 -104.08578125 10.98130859 -101.0390625 10.97167969 C-91.25608417 10.93787472 -81.47331599 10.88230599 -71.69050598 10.81609726 C-65.76061922 10.77663038 -59.83088079 10.74443784 -53.90087891 10.72900391 C-48.17540163 10.71383242 -42.45033217 10.67937734 -36.72503662 10.63169098 C-34.54347279 10.6168824 -32.36185074 10.60895929 -30.18023682 10.60811615 C-27.1184163 10.60574325 -24.05771981 10.57863636 -20.99609375 10.54589844 C-19.65065239 10.55344398 -19.65065239 10.55344398 -18.2780304 10.56114197 C-12.50614792 10.46599594 -7.73173522 9.48282429 -3 6 C-0.96175327 2.93237162 -0.96175327 2.93237162 0 0 Z " fill="#19874B" transform="translate(1285,533)"/>
<path d="M0 0 C0.33 0 0.66 0 1 0 C1 7.59 1 15.18 1 23 C-1.85164795 23.01458252 -4.7032959 23.02916504 -7.64135742 23.04418945 C-17.06112262 23.09451684 -26.48072218 23.1611087 -35.90032482 23.23571491 C-41.61167682 23.28045048 -47.32295696 23.31969972 -53.03442383 23.34643555 C-58.54587252 23.37243652 -64.05704515 23.41281653 -69.56832314 23.46318626 C-71.67142619 23.47987662 -73.77457701 23.49137736 -75.87773705 23.49761391 C-78.82267604 23.50723125 -81.76690529 23.53526268 -84.71166992 23.56762695 C-85.5820137 23.56619186 -86.45235748 23.56475677 -87.34907532 23.5632782 C-92.17813997 23.63837889 -94.92069128 24.18570414 -99 27 C-99.66 26.67 -100.32 26.34 -101 26 C-95.31120721 21.23371415 -91.36767902 20.85614381 -84.12231445 20.88647461 C-83.21479431 20.88632858 -82.30727417 20.88618256 -81.37225342 20.8860321 C-78.36923848 20.88672939 -75.36628537 20.89451324 -72.36328125 20.90234375 C-70.28248631 20.90420858 -68.20169092 20.90563218 -66.12089539 20.90663147 C-60.6414977 20.91045151 -55.16212648 20.92027745 -49.68273926 20.93133545 C-44.09253294 20.94156057 -38.50232235 20.94613145 -32.91210938 20.95117188 C-21.94139275 20.96190015 -10.97070271 20.97949283 0 21 C0 14.07 0 7.14 0 0 Z " fill="#013213" transform="translate(1300,442)"/>
<path d="M0 0 C2.475 0.495 2.475 0.495 5 1 C5.66 3.31 6.32 5.62 7 8 C7.66 8 8.32 8 9 8 C9.25652344 8.47566406 9.51304688 8.95132812 9.77734375 9.44140625 C12.55010837 14.51080419 15.46059974 19.48635976 18.4375 24.4375 C18.82397705 25.08243408 19.2104541 25.72736816 19.60864258 26.3918457 C21.36065862 29.30818786 23.13056058 32.20643747 24.94921875 35.08203125 C25.50222656 35.96246094 26.05523438 36.84289062 26.625 37.75 C27.11226562 38.50796875 27.59953125 39.2659375 28.1015625 40.046875 C29 42 29 42 28 45 C9.56147721 14.66709003 9.56147721 14.66709003 2 2 C-2.35449352 8.39108369 -6.4246495 14.91518181 -10.375 21.5625 C-10.92027344 22.47580078 -11.46554687 23.38910156 -12.02734375 24.33007812 C-13.35361891 26.55217072 -14.67779892 28.77548169 -16 31 C-16.33 29.68 -16.66 28.36 -17 27 C-16.34 27 -15.68 27 -15 27 C-14.87625 26.195625 -14.87625 26.195625 -14.75 25.375 C-13.9450753 22.82607178 -12.69702582 20.95530355 -11.1796875 18.7734375 C-7.90268082 13.84707646 -4.98101195 8.58285185 -3 3 C-2.34 3 -1.68 3 -1 3 C-0.67 2.01 -0.34 1.02 0 0 Z " fill="#1B8B4D" transform="translate(1396,470)"/>
<path d="M0 0 C0.33 0.66 0.66 1.32 1 2 C0.34 3.65 -0.32 5.3 -1 7 C17.15 7 35.3 7 54 7 C54 7.66 54 8.32 54 9 C34.53 9 15.06 9 -5 9 C-3.35 6.03 -1.7 3.06 0 0 Z " fill="#1D7E48" transform="translate(1382,526)"/>
<path d="M0 0 C4.20570714 1.40190238 5.28909145 4.39564167 7.375 8.0625 C8.17245565 9.43401348 8.97062721 10.80511095 9.76953125 12.17578125 C10.15189941 12.83658691 10.53426758 13.49739258 10.92822266 14.17822266 C12.24227958 16.4118201 13.64305091 18.58218806 15.0625 20.75 C17 24 17 24 17 27 C17.66 27 18.32 27 19 27 C19 27.99 19 28.98 19 30 C26.26 30 33.52 30 41 30 C40.34 27.69 39.68 25.38 39 23 C41.74084921 25.36709704 42.7367158 27.64405806 44 31 C35.44209732 32.86041363 26.31069779 34.3831052 18 31 C9.70451094 23.9320747 5.26285121 11.76322453 1 2 C0.67 1.34 0.34 0.68 0 0 Z " fill="#208B50" transform="translate(1436,535)"/>
<path d="M0 0 C9.84006632 -0.04633116 19.6801067 -0.08187319 29.52025986 -0.10362434 C34.08939211 -0.11406356 38.65844975 -0.1282253 43.22753906 -0.15087891 C47.63658634 -0.17260233 52.04556184 -0.18456759 56.45465851 -0.18975449 C58.13718038 -0.19345114 59.8196983 -0.20066972 61.50218964 -0.21146011 C63.85799158 -0.22596842 66.21349653 -0.22797823 68.56933594 -0.22705078 C69.26561096 -0.23424133 69.96188599 -0.24143188 70.67926025 -0.24884033 C74.29334467 -0.23343459 76.92472722 0.02574552 80 2 C80 2.66 80 3.32 80 4 C79.46710358 3.86042877 78.93420715 3.72085754 78.38516235 3.57705688 C70.20585411 1.67250604 62.05996628 1.65001335 53.7109375 1.5859375 C52.15580253 1.56719209 50.60067736 1.54761627 49.04556274 1.5272522 C44.98510567 1.4762807 40.92461574 1.43646963 36.86401367 1.39910889 C32.70743926 1.35884781 28.55099734 1.3078572 24.39453125 1.2578125 C16.26311191 1.16146838 8.13162607 1.07693309 0 1 C0 0.67 0 0.34 0 0 Z " fill="#003111" transform="translate(1207,493)"/>
<path d="M0 0 C1.13115234 0.07831055 1.13115234 0.07831055 2.28515625 0.15820312 C4.1487937 0.28795004 6.01194996 0.42457488 7.875 0.5625 C7.875 1.8825 7.875 3.2025 7.875 4.5625 C5.13594655 5.93202673 2.90412668 5.68871361 -0.125 5.5625 C-0.785 5.2325 -1.445 4.9025 -2.125 4.5625 C-3.49842831 4.4935528 -4.87502102 4.47782292 -6.25 4.5 C-8.168125 4.5309375 -8.168125 4.5309375 -10.125 4.5625 C-10.125 3.2425 -10.125 1.9225 -10.125 0.5625 C-6.91158631 -1.04420684 -3.49541032 -0.26260855 0 0 Z " fill="#E8E7E7" transform="translate(1155.125,605.4375)"/>
<path d="M0 0 C0.66 0 1.32 0 2 0 C1.35305526 2.00646628 0.68071077 4.00473629 0 6 C-0.19996582 6.62745117 -0.39993164 7.25490234 -0.60595703 7.90136719 C-2.36220166 12.98450227 -4.42579061 17.90845781 -9 21 C-17.11967909 22.93463782 -25.78262244 21.90889882 -34 21 C-33.01 19.02 -32.02 17.04 -31 15 C-30.67 15.66 -30.34 16.32 -30 17 C-30.33 17.66 -30.66 18.32 -31 19 C-24.07 19.33 -17.14 19.66 -10 20 C-9.34 18.35 -8.68 16.7 -8 15 C-7.33333333 13.33333333 -6.66666667 11.66666667 -6 10 C-5.34 10 -4.68 10 -4 10 C-3.896875 9.46375 -3.79375 8.9275 -3.6875 8.375 C-2.81907303 5.37497956 -1.44379704 2.7620465 0 0 Z " fill="#218A50" transform="translate(1351,545)"/>
<path d="M0 0 C4.36651332 2.67538418 7.90710518 6.29098665 10 11 C9.67 11.66 9.34 12.32 9 13 C8.60167969 12.44570313 8.20335937 11.89140625 7.79296875 11.3203125 C7.26316406 10.59585937 6.73335937 9.87140625 6.1875 9.125 C5.66542969 8.40570313 5.14335938 7.68640625 4.60546875 6.9453125 C2.96727223 4.76971345 2.96727223 4.76971345 0 3 C-6.47017815 3 -9.63139622 5.65795309 -14 10 C-14 6.04435836 -12.59478606 4.89133304 -10 2 C-6.19593784 -0.53604144 -4.51491096 -0.60198813 0 0 Z " fill="#1C8249" transform="translate(1402,440)"/>
<path d="M0 0 C2.97 0 5.94 0 9 0 C8.55090939 1.48199902 8.09043436 2.96055236 7.625 4.4375 C7.36976562 5.26121094 7.11453125 6.08492187 6.8515625 6.93359375 C6 9 6 9 4 10 C3.32845067 8.71086513 2.66291141 7.41859796 2 6.125 C1.62875 5.40570312 1.2575 4.68640625 0.875 3.9453125 C0 2 0 2 0 0 Z " fill="#E5E4E5" transform="translate(1087,670)"/>
<path d="M0 0 C0.33 0.66 0.66 1.32 1 2 C0.70351562 2.81726563 0.40703125 3.63453125 0.1015625 4.4765625 C-1.35112239 9.1230936 -1.4592577 13.53394352 -1.625 18.375 C-1.66367188 19.30183594 -1.70234375 20.22867187 -1.7421875 21.18359375 C-1.83587591 23.4555377 -1.92159348 25.72748596 -2 28 C-5.44552674 21.64338982 -5.06172535 13.71142253 -3.1015625 6.859375 C-2.15639281 4.5132091 -1.15971528 2.24694836 0 0 Z " fill="#1F874D" transform="translate(1177,459)"/>
<path d="M0 0 C0.66 0 1.32 0 2 0 C0.50787224 5.43683334 -2.1009183 9.69063815 -5.125 14.375 C-5.82689453 15.47908203 -5.82689453 15.47908203 -6.54296875 16.60546875 C-7.68958913 18.40730078 -8.84401076 20.20416431 -10 22 C-10.33 21.01 -10.66 20.02 -11 19 C-9.890625 17.01953125 -9.890625 17.01953125 -8.25 14.8125 C-5.31906109 10.65465643 -3.5783076 6.82260654 -2 2 C-1.34 2 -0.68 2 0 2 C0 1.34 0 0.68 0 0 Z " fill="#1B8C4D" transform="translate(1377,501)"/>
<path d="M0 0 C0.33 0.66 0.66 1.32 1 2 C0.01196289 4.06298828 0.01196289 4.06298828 -1.52734375 6.5703125 C-2.07197266 7.46621094 -2.61660156 8.36210938 -3.17773438 9.28515625 C-4.04881836 10.69087891 -4.04881836 10.69087891 -4.9375 12.125 C-5.51435547 13.06988281 -6.09121094 14.01476562 -6.68554688 14.98828125 C-8.11659795 17.33000119 -9.55498219 19.66688189 -11 22 C-12 19 -12 19 -10.99609375 16.8359375 C-10.48175781 16.02382813 -9.96742187 15.21171875 -9.4375 14.375 C-8.88707031 13.4984375 -8.33664062 12.621875 -7.76953125 11.71875 C-5.21236005 7.7898512 -2.63911182 3.87444076 0 0 Z " fill="#1C8C4E" transform="translate(1365,523)"/>
<path d="M0 0 C2.1875 -0.5 2.1875 -0.5 5 0 C8.38343159 3.18225458 9.86465127 6.6126755 10.3125 11.203125 C10.3125 14.15234003 10.22052952 17.05960635 10 20 C9.67 20 9.34 20 9 20 C8.91363281 19.11957031 8.82726563 18.23914063 8.73828125 17.33203125 C8.17540794 9.92905693 8.17540794 9.92905693 4.5 3.8125 C3.675 3.214375 2.85 2.61625 2 2 C1.34 1.34 0.68 0.68 0 0 Z " fill="#1B8E4F" transform="translate(1277,513)"/>
<path d="M0 0 C0.9075 0.103125 1.815 0.20625 2.75 0.3125 C-0.58333333 2.97916667 -3.91666667 5.64583333 -7.25 8.3125 C-7.25 5.3125 -7.25 5.3125 -5.625 2.625 C-3.25 0.3125 -3.25 0.3125 0 0 Z " fill="#17934F" transform="translate(1395.25,441.6875)"/>
<path d="M0 0 C2.08304538 -0.05418326 4.16649768 -0.09287551 6.25 -0.125 C7.99023438 -0.15980469 7.99023438 -0.15980469 9.765625 -0.1953125 C12.82786046 -0.0103949 14.44202751 0.39176977 17 2 C17 2.66 17 3.32 17 4 C11.39 3.01 5.78 2.02 0 1 C0 0.67 0 0.34 0 0 Z " fill="#012209" transform="translate(1270,493)"/>
<path d="M0 0 C2.89932357 2.39509338 3.50168276 4.31245243 4 8 C4.66 8 5.32 8 6 8 C5.67 9.32 5.34 10.64 5 12 C4.15556432 10.75747321 3.3248542 9.5056114 2.5 8.25 C1.80390625 7.20585937 1.80390625 7.20585937 1.09375 6.140625 C0 4 0 4 0 0 Z " fill="#1C8B4D" transform="translate(1175,487)"/>
<path d="M0 0 C0.33 0 0.66 0 1 0 C1 1.65 1 3.3 1 5 C0.360625 5.268125 -0.27875 5.53625 -0.9375 5.8125 C-3.33131686 6.88667752 -3.33131686 6.88667752 -4 10 C-4.33 9.34 -4.66 8.68 -5 8 C-4.0390625 6.0546875 -4.0390625 6.0546875 -2.625 3.875 C-2.16351562 3.15054688 -1.70203125 2.42609375 -1.2265625 1.6796875 C-0.82179688 1.12539063 -0.41703125 0.57109375 0 0 Z " fill="#1A8C4C" transform="translate(1350,510)"/>
</svg>
