<svg version="1.1" id="Layer_1" xmlns="http://www.w3.org/2000/svg" xmlns:xlink="http://www.w3.org/1999/xlink" x="0px" y="0px"
	 width="100%" viewBox="0 0 1920 1080" enable-background="new 0 0 1920 1080" xml:space="preserve">
<path fill="#000000" opacity="1.000000" stroke="none"
		d="
M1795.000000,1081.000000 
	C1196.666748,1081.000000 598.833557,1081.000000 1.000241,1081.000000 
	C1.000160,721.000183 1.000160,361.000336 1.000080,1.000386 
	C640.999695,1.000257 1280.999390,1.000257 1920.999268,1.000129 
	C1920.999512,360.999634 1920.999512,720.999268 1920.999756,1080.999512 
	C1879.166626,1081.000000 1837.333374,1081.000000 1795.000000,1081.000000 
M1179.693604,567.029480 
	C1210.515381,567.014526 1241.340454,567.263855 1272.157227,566.864685 
	C1285.993530,566.685486 1297.905273,561.323853 1303.746216,547.952393 
	C1309.883057,533.903931 1309.645996,519.602539 1300.272095,506.741943 
	C1293.884521,497.978760 1284.113037,495.215179 1273.829224,495.037781 
	C1254.675171,494.707306 1235.511963,494.928192 1216.352905,494.839386 
	C1213.539429,494.826355 1210.690308,494.581543 1207.922974,494.082245 
	C1201.223389,492.873535 1197.154419,488.072479 1196.802490,481.295166 
	C1196.246826,470.588287 1201.341431,464.924438 1212.058838,464.830627 
	C1228.218262,464.689148 1244.379761,464.784149 1260.540405,464.780823 
	C1272.535889,464.778381 1284.532227,464.844391 1296.525879,464.697693 
	C1298.045776,464.679138 1300.831299,463.619232 1300.866211,462.931976 
	C1301.198975,456.372437 1301.065063,449.789185 1301.065063,443.140503 
	C1268.441406,443.140503 1236.537598,441.577026 1204.863770,443.604095 
	C1176.295166,445.432434 1169.488403,471.726044 1176.065674,490.649506 
	C1180.810547,504.300568 1193.597168,512.781494 1209.043945,512.950134 
	C1228.367920,513.161133 1247.695557,512.997192 1267.021362,513.080139 
	C1269.659546,513.091431 1272.350586,513.345276 1274.922363,513.914490 
	C1282.551758,515.603027 1286.580688,520.579651 1286.914185,528.352844 
	C1287.235840,535.843018 1283.346924,541.820129 1276.201660,543.909302 
	C1273.072144,544.824341 1269.652588,545.057495 1266.363159,545.067627 
	C1238.373901,545.153931 1210.384155,545.117615 1182.394653,545.118042 
	C1180.441772,545.118103 1178.488770,545.118042 1175.924561,545.118042 
	C1175.924561,552.144653 1175.838989,558.587341 1176.047852,565.020386 
	C1176.070435,565.715515 1177.799927,566.355225 1179.693604,567.029480 
M679.383362,566.941162 
	C685.414490,565.836487 691.687439,565.446838 697.434753,563.503052 
	C721.801208,555.261902 736.853088,533.113647 737.778931,504.997650 
	C738.831421,473.039703 718.898132,447.879364 687.405090,444.022766 
	C671.320312,442.053131 654.798645,442.788818 638.526428,443.496216 
	C626.516174,444.018402 615.578979,448.893951 606.442505,456.993500 
	C589.475220,472.035065 584.781067,491.430847 587.071106,513.121460 
	C589.978516,540.658752 610.354187,562.666626 637.503357,565.953918 
	C650.983215,567.586060 664.766663,566.711609 679.383362,566.941162 
M852.357483,522.143250 
	C827.395691,497.384369 802.435486,472.623932 777.467773,447.871033 
	C776.167358,446.581818 774.889832,445.246216 773.453430,444.121399 
	C766.042480,438.318085 756.973206,441.725494 755.274719,450.986053 
	C754.918091,452.930511 755.005005,454.968964 755.004150,456.964172 
	C754.989990,492.122467 754.991577,527.280762 755.001953,562.439087 
	C755.002380,563.880066 755.122620,565.320984 755.188232,566.787781 
	C762.119568,566.787781 768.712097,566.787781 775.986816,566.787781 
	C775.986816,536.804749 775.986816,507.033173 775.986816,478.394104 
	C803.926331,505.858795 832.079163,533.544312 860.255737,561.205627 
	C862.150757,563.065979 864.040344,565.031006 866.250549,566.453003 
	C873.659302,571.219666 881.671448,567.636108 883.174988,558.959656 
	C883.570251,556.678589 883.663696,554.321716 883.665649,551.999512 
	C883.695435,517.007812 883.686768,482.016144 883.687073,447.024445 
	C883.687073,445.410767 883.687012,443.797119 883.687012,442.102814 
	C876.516235,442.102814 869.924011,442.102814 862.750793,442.102814 
	C862.750793,472.118927 862.750793,501.915955 862.750793,533.161438 
	C858.793579,528.953491 855.826111,525.797913 852.357483,522.143250 
M926.061584,465.567596 
	C927.721802,465.224152 929.381226,464.585388 931.042297,464.581421 
	C957.205139,464.518951 983.368164,464.538208 1009.531189,464.538696 
	C1011.310547,464.538727 1013.089844,464.538666 1015.073486,464.538666 
	C1015.073486,457.089996 1015.073486,450.151001 1015.073486,443.050903 
	C978.273743,443.050903 941.643005,443.050903 904.865845,443.050903 
	C904.865845,484.397949 904.865845,525.604309 904.865845,566.828735 
	C941.832642,566.828735 978.455811,566.828735 1015.211304,566.828735 
	C1015.211304,559.584473 1015.211304,552.522339 1015.211304,545.186646 
	C985.405945,545.186646 955.954529,545.186646 926.022949,545.186646 
	C926.022949,518.794128 926.022949,492.679016 926.061584,465.567596 
M1376.482056,468.937469 
	C1356.987671,501.386505 1337.493286,533.835571 1317.547241,567.036316 
	C1324.805786,567.036316 1330.963623,566.769348 1337.084351,567.130310 
	C1341.145020,567.369812 1343.294922,565.854492 1345.306641,562.405518 
	C1360.484863,536.383118 1375.868286,510.480255 1391.207275,484.551636 
	C1393.529785,480.625580 1395.953491,476.759277 1398.845703,472.021057 
	C1408.194336,487.713165 1416.984131,502.467438 1426.262695,518.041870 
	C1414.392212,518.041870 1403.614258,518.010071 1392.837158,518.076660 
	C1391.240234,518.086548 1388.804199,517.997070 1388.190063,518.914001 
	C1384.663452,524.179443 1381.569092,529.734497 1377.903076,535.906982 
	C1397.045532,535.906982 1414.860107,535.975464 1432.673096,535.841064 
	C1435.721069,535.818054 1437.542480,536.779602 1439.053589,539.420410 
	C1443.764648,547.653748 1448.664307,555.780396 1453.587524,563.889709 
	C1454.308228,565.076660 1455.529419,566.793091 1456.562866,566.824524 
	C1464.591675,567.068542 1472.631104,566.959290 1481.606812,566.959290 
	C1474.865356,555.729492 1468.725952,545.482788 1462.567383,535.247498 
	C1445.491333,506.867493 1428.449463,478.466827 1411.307251,450.126862 
	C1403.880371,437.848663 1395.346191,437.796844 1387.881958,449.884644 
	C1384.121826,455.973907 1380.534058,462.169556 1376.482056,468.937469 
M1073.307739,468.578735 
	C1080.088989,467.232147 1086.843994,464.906342 1093.656372,464.724396 
	C1113.308594,464.199493 1132.983887,464.538849 1152.650146,464.538788 
	C1154.404907,464.538788 1156.159668,464.538788 1157.928345,464.538788 
	C1157.928345,456.978943 1157.928345,450.064087 1157.928345,442.903351 
	C1135.348633,442.903351 1113.027222,442.700134 1090.710938,442.949860 
	C1055.161987,443.347656 1031.462524,467.196259 1030.767944,502.685791 
	C1030.077026,537.982117 1055.332886,567.944092 1093.695801,567.084778 
	C1113.518799,566.640747 1133.359985,567.006775 1153.192871,567.006836 
	C1154.783813,567.006836 1156.374878,567.006836 1157.977051,567.006836 
	C1157.977051,559.488098 1157.977051,552.524963 1157.977051,545.219666 
	C1156.128784,545.219666 1154.491089,545.219666 1152.853394,545.219666 
	C1133.187134,545.220215 1113.520752,545.257080 1093.854736,545.188477 
	C1090.204590,545.175720 1086.468506,545.159851 1082.921753,544.423828 
	C1066.997314,541.119202 1055.441284,528.730591 1053.043701,512.778320 
	C1050.128662,493.384216 1057.036499,477.915619 1073.307739,468.578735 
M547.500000,567.008423 
	C555.750854,567.008423 564.001770,567.008423 572.244507,567.008423 
	C572.244507,559.442505 572.244507,552.516357 572.244507,545.217285 
	C570.147339,545.217285 568.347595,545.217346 566.547791,545.217346 
	C546.556641,545.217224 526.565125,545.147034 506.574463,545.248779 
	C497.647095,545.294189 489.445221,543.270386 482.226685,537.865662 
	C468.686584,527.727844 463.156982,508.552887 468.707001,491.044708 
	C473.992828,474.369812 487.261810,464.795044 506.137726,464.594025 
	C526.459778,464.377563 546.785828,464.543060 567.110168,464.541962 
	C568.853821,464.541840 570.597412,464.541962 572.325317,464.541962 
	C572.325317,456.925995 572.325317,450.135376 572.325317,443.133606 
	C570.999023,443.042633 569.872925,442.898743 568.746704,442.898041 
	C547.755981,442.884949 526.764343,442.759949 505.774841,442.918854 
	C472.480530,443.170929 450.161530,461.917145 445.628693,494.866669 
	C440.359802,533.166687 466.305725,567.408508 506.517883,567.028198 
	C519.844177,566.902161 533.172546,567.008362 547.500000,567.008423 
M930.322571,617.923950 
	C925.577209,634.460083 920.831848,650.996216 916.014771,667.782166 
	C919.369873,667.782166 922.127075,667.782166 924.991638,667.782166 
	C928.132507,656.321960 931.222717,645.046387 934.586060,632.774170 
	C935.690430,634.924622 936.402649,636.144531 936.963257,637.430481 
	C940.677246,645.949829 944.181763,654.567383 948.167358,662.956848 
	C949.247681,665.230896 951.750061,666.829346 953.599731,668.737915 
	C955.456665,666.857483 957.990051,665.296143 959.053467,663.041443 
	C963.704651,653.179993 967.929565,643.117554 972.664307,632.317932 
	C976.056335,644.706238 979.205322,656.206909 982.384705,667.818481 
	C985.306580,667.818481 988.090027,667.818481 991.250854,667.818481 
	C986.888794,651.871826 982.689880,636.175232 978.186401,620.566406 
	C977.708557,618.910278 975.455017,616.691895 974.008606,616.679504 
	C972.432312,616.666016 970.126404,618.591858 969.365356,620.239136 
	C964.702576,630.330933 960.398071,640.587891 955.943970,650.776611 
	C955.389893,652.044067 954.657410,653.233459 953.761902,654.922363 
	C951.046509,648.754211 948.626038,643.297363 946.240417,637.825317 
	C943.786194,632.196106 941.366516,626.551819 938.930786,620.914612 
	C937.334656,617.220337 935.096924,614.996338 930.322571,617.923950 
M1210.635742,617.933289 
	C1198.897583,621.489075 1192.671143,630.027039 1192.817749,642.366211 
	C1192.963867,654.649048 1199.829834,664.608887 1211.304199,666.913269 
	C1218.349243,668.328186 1225.878052,668.324646 1233.085571,667.719055 
	C1245.559814,666.670898 1254.451050,655.943909 1254.891846,642.667419 
	C1255.318359,629.821716 1247.402588,619.229431 1234.775269,617.597290 
	C1227.136719,616.610046 1219.238647,617.630005 1210.635742,617.933289 
M852.228821,629.844910 
	C844.999146,646.906433 853.119080,664.700562 869.977966,667.530151 
	C876.450623,668.616577 883.296570,668.385193 889.874268,667.745483 
	C902.370728,666.529968 911.061035,656.093689 911.617798,642.611267 
	C912.144287,629.861938 904.138977,619.306641 891.453247,617.565125 
	C884.282410,616.580750 876.806824,616.782837 869.579712,617.528198 
	C862.147278,618.294678 856.249512,622.369568 852.228821,629.844910 
M968.500061,494.832947 
	C959.745300,494.832947 950.990540,494.832947 942.165344,494.832947 
	C942.165344,501.134399 942.165344,506.882843 942.165344,512.742554 
	C965.075562,512.742554 987.777161,512.742554 1010.585144,512.742554 
	C1010.585144,506.727722 1010.585144,500.988617 1010.585144,494.832947 
	C996.727051,494.832947 983.113586,494.832947 968.500061,494.832947 
M746.684204,625.574097 
	C746.684204,622.793823 746.684204,620.013611 746.684204,617.181519 
	C743.339600,617.181519 740.561035,617.181519 738.018250,617.181519 
	C738.018250,628.978882 737.533325,640.599854 738.200500,652.154236 
	C738.599182,659.058777 743.032776,664.033020 749.830261,666.346130 
	C759.755981,669.723633 769.741394,669.640076 779.687439,666.491089 
	C786.719482,664.264709 791.297241,659.161743 791.727112,652.069946 
	C792.428162,640.506348 791.916504,628.869263 791.916504,617.137329 
	C789.406372,617.137329 786.774170,617.137329 783.837891,617.137329 
	C783.837891,618.933899 783.840454,620.578735 783.837463,622.223572 
	C783.823059,630.210205 783.995728,638.202881 783.739624,646.181824 
	C783.472351,654.509766 780.505127,658.095459 772.289307,659.164368 
	C767.265564,659.818054 762.003845,659.674500 756.972473,658.986450 
	C750.138306,658.051819 747.151917,654.417603 746.879395,647.516846 
	C746.603760,640.538635 746.732544,633.544373 746.684204,625.574097 
M1001.937866,654.318481 
	C999.320007,658.701477 996.702148,663.084473 993.996399,667.614563 
	C1003.574036,668.627014 1003.574280,668.627197 1007.991882,661.136780 
	C1008.667480,659.991333 1009.334717,658.840942 1010.012939,657.697021 
	C1015.574646,648.316345 1021.138123,638.936768 1027.082764,628.913147 
	C1031.031494,635.577515 1034.564209,641.539856 1038.318359,647.875977 
	C1021.535889,648.189514 1021.535889,648.189514 1019.429260,655.105835 
	C1024.642090,655.105835 1029.857910,655.576843 1034.948975,654.981140 
	C1040.716675,654.306335 1043.966675,656.312805 1046.600830,661.453125 
	C1050.525635,669.111511 1051.811279,669.312561 1060.641968,667.252625 
	C1051.290161,651.685852 1041.997681,636.151733 1032.632202,620.661621 
	C1029.037109,614.715332 1025.703247,614.762695 1022.064392,620.767700 
	C1015.431824,631.713379 1008.866821,642.699951 1001.937866,654.318481 
M717.108521,642.299805 
	C712.825867,635.176819 708.571289,628.036743 704.252319,620.935852 
	C700.442688,614.672241 697.262695,614.671814 693.478577,620.948792 
	C684.809753,635.328491 676.178040,649.730713 667.549133,664.134399 
	C666.900330,665.217407 666.393616,666.385498 665.822754,667.510315 
	C672.310486,669.291992 676.605286,667.799622 679.473816,661.424683 
	C682.184814,655.399719 686.109253,649.920715 689.501770,644.202515 
	C692.410950,639.298889 695.322510,634.396606 698.582031,628.905884 
	C702.521851,635.546692 706.015747,641.435913 709.885010,647.957825 
	C705.718079,647.957825 702.533875,648.300537 699.452637,647.883057 
	C693.847473,647.123779 692.066101,650.360596 690.851501,655.102722 
	C696.208435,655.102722 701.247925,655.528687 706.182922,654.992554 
	C712.063354,654.353699 715.564148,656.232605 718.260437,661.686157 
	C721.947205,669.142883 723.093201,669.222046 732.151855,667.270081 
	C727.236206,659.098816 722.369019,651.008057 717.108521,642.299805 
M1128.188965,668.010437 
	C1129.838135,667.023376 1132.140747,666.437866 1133.033203,664.985657 
	C1140.246704,653.249756 1147.194946,641.350830 1154.577637,628.905762 
	C1158.437134,635.421509 1161.985474,641.411743 1165.863037,647.957825 
	C1161.769897,647.957825 1158.703613,648.369019 1155.793213,647.870239 
	C1150.132568,646.900269 1148.299805,650.285217 1146.578369,655.102722 
	C1152.636353,655.102722 1158.272217,655.475769 1163.833008,654.990051 
	C1168.674683,654.567139 1171.813110,656.009460 1173.427124,660.591003 
	C1175.900269,667.612549 1180.846436,669.625061 1188.035400,667.475769 
	C1187.654175,666.691772 1187.307007,665.812805 1186.826538,665.013916 
	C1177.921143,650.204346 1169.024902,635.389160 1160.069458,620.609802 
	C1156.501465,614.721558 1153.198364,614.800354 1149.552979,620.838562 
	C1140.707031,635.490906 1131.903442,650.168823 1123.111328,664.853577 
	C1122.589600,665.725037 1122.319092,666.746948 1121.804932,668.010498 
	C1124.002319,668.010498 1125.663452,668.010498 1128.188965,668.010437 
M1067.367065,652.993958 
	C1070.964966,661.002319 1077.020996,666.707825 1085.677246,667.465454 
	C1096.180054,668.384766 1106.824707,667.683716 1117.323730,667.683716 
	C1117.323730,664.649048 1117.323730,661.929504 1117.323730,659.021362 
	C1107.961670,659.021362 1098.970459,659.116150 1089.982422,658.991760 
	C1082.604370,658.889709 1077.076660,654.709229 1075.027222,648.027100 
	C1071.373657,636.114868 1078.658447,626.083618 1091.131104,625.969055 
	C1099.886353,625.888672 1108.642822,625.953552 1117.492920,625.953552 
	C1117.492920,622.682251 1117.492920,620.084045 1117.492920,616.986145 
	C1108.519653,616.986145 1099.740967,616.966919 1090.962646,617.001770 
	C1089.135132,617.009033 1087.256104,616.985596 1085.494385,617.387085 
	C1083.083496,617.936646 1080.642212,618.629089 1078.422852,619.695312 
	C1066.948730,625.207886 1062.714600,637.504395 1067.367065,652.993958 
M833.520142,625.952698 
	C837.290039,625.952698 841.059875,625.952698 844.722778,625.952698 
	C844.722778,622.621948 844.722778,619.889893 844.722778,617.268616 
	C828.829590,617.268616 813.250977,617.268616 797.672668,617.268616 
	C797.672668,620.289368 797.672668,623.013855 797.672668,626.006592 
	C804.157593,626.006592 810.296570,626.006592 816.958435,626.006592 
	C816.958435,640.130310 816.958435,653.985718 816.958435,667.805908 
	C820.107056,667.805908 822.721985,667.805908 825.753662,667.805908 
	C825.753662,653.866882 825.753662,640.126465 825.753662,625.952759 
	C828.291199,625.952759 830.413452,625.952759 833.520142,625.952698 
M1160.337280,608.280334 
	C1157.828247,607.580322 1155.317139,606.887634 1152.810669,606.178711 
	C1148.418091,604.936340 1146.276245,606.479919 1146.299683,609.771545 
	C1149.706299,610.345703 1152.968994,610.540710 1155.998779,611.484192 
	C1161.372437,613.157959 1164.011841,611.699097 1163.340698,606.935486 
	C1162.605835,607.307861 1161.871094,607.680237 1160.337280,608.280334 
M1090.509644,677.008118 
	C1091.141479,678.445251 1091.773438,679.882385 1092.726196,682.049377 
	C1094.410400,678.148010 1095.810059,674.905823 1097.298462,671.458252 
	C1094.031372,671.458252 1091.338013,671.458252 1088.338013,671.458252 
	C1089.031128,673.324829 1089.598022,674.851624 1090.509644,677.008118 
z"/>
<path fill="#089D4D" opacity="1.000000" stroke="none"
		d="
M1179.215576,567.025024 
	C1177.799927,566.355225 1176.070435,565.715515 1176.047852,565.020386 
	C1175.838989,558.587341 1175.924561,552.144653 1175.924561,545.118042 
	C1178.488770,545.118042 1180.441772,545.118103 1182.394653,545.118042 
	C1210.384155,545.117615 1238.373901,545.153931 1266.363159,545.067627 
	C1269.652588,545.057495 1273.072144,544.824341 1276.201660,543.909302 
	C1283.346924,541.820129 1287.235840,535.843018 1286.914185,528.352844 
	C1286.580688,520.579651 1282.551758,515.603027 1274.922363,513.914490 
	C1272.350586,513.345276 1269.659546,513.091431 1267.021362,513.080139 
	C1247.695557,512.997192 1228.367920,513.161133 1209.043945,512.950134 
	C1193.597168,512.781494 1180.810547,504.300568 1176.065674,490.649506 
	C1169.488403,471.726044 1176.295166,445.432434 1204.863770,443.604095 
	C1236.537598,441.577026 1268.441406,443.140503 1301.065063,443.140503 
	C1301.065063,449.789185 1301.198975,456.372437 1300.866211,462.931976 
	C1300.831299,463.619232 1298.045776,464.679138 1296.525879,464.697693 
	C1284.532227,464.844391 1272.535889,464.778381 1260.540405,464.780823 
	C1244.379761,464.784149 1228.218262,464.689148 1212.058838,464.830627 
	C1201.341431,464.924438 1196.246826,470.588287 1196.802490,481.295166 
	C1197.154419,488.072479 1201.223389,492.873535 1207.922974,494.082245 
	C1210.690308,494.581543 1213.539429,494.826355 1216.352905,494.839386 
	C1235.511963,494.928192 1254.675171,494.707306 1273.829224,495.037781 
	C1284.113037,495.215179 1293.884521,497.978760 1300.272095,506.741943 
	C1309.645996,519.602539 1309.883057,533.903931 1303.746216,547.952393 
	C1297.905273,561.323853 1285.993530,566.685486 1272.157227,566.864685 
	C1241.340454,567.263855 1210.515381,567.014526 1179.215576,567.025024 
z"/>
<path fill="#FCFAFB" opacity="1.000000" stroke="none"
		d="
M678.898071,566.956177 
	C664.766663,566.711609 650.983215,567.586060 637.503357,565.953918 
	C610.354187,562.666626 589.978516,540.658752 587.071106,513.121460 
	C584.781067,491.430847 589.475220,472.035065 606.442505,456.993500 
	C615.578979,448.893951 626.516174,444.018402 638.526428,443.496216 
	C654.798645,442.788818 671.320312,442.053131 687.405090,444.022766 
	C718.898132,447.879364 738.831421,473.039703 737.778931,504.997650 
	C736.853088,533.113647 721.801208,555.261902 697.434753,563.503052 
	C691.687439,565.446838 685.414490,565.836487 678.898071,566.956177 
M608.940186,513.245239 
	C613.167603,533.463074 627.054199,544.994751 647.569336,545.203796 
	C657.063171,545.300537 666.559570,545.303650 676.053345,545.206238 
	C697.679993,544.984253 712.064270,532.593445 715.600281,511.256378 
	C719.196960,489.553345 706.682922,469.862061 685.862122,465.607635 
	C679.106628,464.227264 671.944763,464.594452 664.968811,464.594604 
	C656.153442,464.594788 647.148010,463.969757 638.560242,465.499237 
	C617.343567,469.278015 604.844299,489.664734 608.940186,513.245239 
z"/>
<path fill="#FCFAFB" opacity="1.000000" stroke="none"
		d="
M852.608032,522.392822 
	C855.826111,525.797913 858.793579,528.953491 862.750793,533.161438 
	C862.750793,501.915955 862.750793,472.118927 862.750793,442.102814 
	C869.924011,442.102814 876.516235,442.102814 883.687012,442.102814 
	C883.687012,443.797119 883.687073,445.410767 883.687073,447.024445 
	C883.686768,482.016144 883.695435,517.007812 883.665649,551.999512 
	C883.663696,554.321716 883.570251,556.678589 883.174988,558.959656 
	C881.671448,567.636108 873.659302,571.219666 866.250549,566.453003 
	C864.040344,565.031006 862.150757,563.065979 860.255737,561.205627 
	C832.079163,533.544312 803.926331,505.858795 775.986816,478.394104 
	C775.986816,507.033173 775.986816,536.804749 775.986816,566.787781 
	C768.712097,566.787781 762.119568,566.787781 755.188232,566.787781 
	C755.122620,565.320984 755.002380,563.880066 755.001953,562.439087 
	C754.991577,527.280762 754.989990,492.122467 755.004150,456.964172 
	C755.005005,454.968964 754.918091,452.930511 755.274719,450.986053 
	C756.973206,441.725494 766.042480,438.318085 773.453430,444.121399 
	C774.889832,445.246216 776.167358,446.581818 777.467773,447.871033 
	C802.435486,472.623932 827.395691,497.384369 852.608032,522.392822 
z"/>
<path fill="#FCFAFB" opacity="1.000000" stroke="none"
		d="
M926.042236,466.065735 
	C926.022949,492.679016 926.022949,518.794128 926.022949,545.186646 
	C955.954529,545.186646 985.405945,545.186646 1015.211304,545.186646 
	C1015.211304,552.522339 1015.211304,559.584473 1015.211304,566.828735 
	C978.455811,566.828735 941.832642,566.828735 904.865845,566.828735 
	C904.865845,525.604309 904.865845,484.397949 904.865845,443.050903 
	C941.643005,443.050903 978.273743,443.050903 1015.073486,443.050903 
	C1015.073486,450.151001 1015.073486,457.089996 1015.073486,464.538666 
	C1013.089844,464.538666 1011.310547,464.538727 1009.531189,464.538696 
	C983.368164,464.538208 957.205139,464.518951 931.042297,464.581421 
	C929.381226,464.585388 927.721802,465.224152 926.042236,466.065735 
z"/>
<path fill="#099D4D" opacity="1.000000" stroke="none"
		d="
M1376.675171,468.627258 
	C1380.534058,462.169556 1384.121826,455.973907 1387.881958,449.884644 
	C1395.346191,437.796844 1403.880371,437.848663 1411.307251,450.126862 
	C1428.449463,478.466827 1445.491333,506.867493 1462.567383,535.247498 
	C1468.725952,545.482788 1474.865356,555.729492 1481.606812,566.959290 
	C1472.631104,566.959290 1464.591675,567.068542 1456.562866,566.824524 
	C1455.529419,566.793091 1454.308228,565.076660 1453.587524,563.889709 
	C1448.664307,555.780396 1443.764648,547.653748 1439.053589,539.420410 
	C1437.542480,536.779602 1435.721069,535.818054 1432.673096,535.841064 
	C1414.860107,535.975464 1397.045532,535.906982 1377.903076,535.906982 
	C1381.569092,529.734497 1384.663452,524.179443 1388.190063,518.914001 
	C1388.804199,517.997070 1391.240234,518.086548 1392.837158,518.076660 
	C1403.614258,518.010071 1414.392212,518.041870 1426.262695,518.041870 
	C1416.984131,502.467438 1408.194336,487.713165 1398.845703,472.021057 
	C1395.953491,476.759277 1393.529785,480.625580 1391.207275,484.551636 
	C1375.868286,510.480255 1360.484863,536.383118 1345.306641,562.405518 
	C1343.294922,565.854492 1341.145020,567.369812 1337.084351,567.130310 
	C1330.963623,566.769348 1324.805786,567.036316 1317.547241,567.036316 
	C1337.493286,533.835571 1356.987671,501.386505 1376.675171,468.627258 
z"/>
<path fill="#FBF9FA" opacity="1.000000" stroke="none"
		d="
M1072.969482,468.747375 
	C1057.036499,477.915619 1050.128662,493.384216 1053.043701,512.778320 
	C1055.441284,528.730591 1066.997314,541.119202 1082.921753,544.423828 
	C1086.468506,545.159851 1090.204590,545.175720 1093.854736,545.188477 
	C1113.520752,545.257080 1133.187134,545.220215 1152.853394,545.219666 
	C1154.491089,545.219666 1156.128784,545.219666 1157.977051,545.219666 
	C1157.977051,552.524963 1157.977051,559.488098 1157.977051,567.006836 
	C1156.374878,567.006836 1154.783813,567.006836 1153.192871,567.006836 
	C1133.359985,567.006775 1113.518799,566.640747 1093.695801,567.084778 
	C1055.332886,567.944092 1030.077026,537.982117 1030.767944,502.685791 
	C1031.462524,467.196259 1055.161987,443.347656 1090.710938,442.949860 
	C1113.027222,442.700134 1135.348633,442.903351 1157.928345,442.903351 
	C1157.928345,450.064087 1157.928345,456.978943 1157.928345,464.538788 
	C1156.159668,464.538788 1154.404907,464.538788 1152.650146,464.538788 
	C1132.983887,464.538849 1113.308594,464.199493 1093.656372,464.724396 
	C1086.843994,464.906342 1080.088989,467.232147 1072.969482,468.747375 
z"/>
<path fill="#FBF9FA" opacity="1.000000" stroke="none"
		d="
M547.000000,567.008423 
	C533.172546,567.008362 519.844177,566.902161 506.517883,567.028198 
	C466.305725,567.408508 440.359802,533.166687 445.628693,494.866669 
	C450.161530,461.917145 472.480530,443.170929 505.774841,442.918854 
	C526.764343,442.759949 547.755981,442.884949 568.746704,442.898041 
	C569.872925,442.898743 570.999023,443.042633 572.325317,443.133606 
	C572.325317,450.135376 572.325317,456.925995 572.325317,464.541962 
	C570.597412,464.541962 568.853821,464.541840 567.110168,464.541962 
	C546.785828,464.543060 526.459778,464.377563 506.137726,464.594025 
	C487.261810,464.795044 473.992828,474.369812 468.707001,491.044708 
	C463.156982,508.552887 468.686584,527.727844 482.226685,537.865662 
	C489.445221,543.270386 497.647095,545.294189 506.574463,545.248779 
	C526.565125,545.147034 546.556641,545.217224 566.547791,545.217346 
	C568.347595,545.217346 570.147339,545.217285 572.244507,545.217285 
	C572.244507,552.516357 572.244507,559.442505 572.244507,567.008423 
	C564.001770,567.008423 555.750854,567.008423 547.000000,567.008423 
z"/>
<path fill="#F8F6F7" opacity="1.000000" stroke="none"
		d="
M930.584839,617.659302 
	C935.096924,614.996338 937.334656,617.220337 938.930786,620.914612 
	C941.366516,626.551819 943.786194,632.196106 946.240417,637.825317 
	C948.626038,643.297363 951.046509,648.754211 953.761902,654.922363 
	C954.657410,653.233459 955.389893,652.044067 955.943970,650.776611 
	C960.398071,640.587891 964.702576,630.330933 969.365356,620.239136 
	C970.126404,618.591858 972.432312,616.666016 974.008606,616.679504 
	C975.455017,616.691895 977.708557,618.910278 978.186401,620.566406 
	C982.689880,636.175232 986.888794,651.871826 991.250854,667.818481 
	C988.090027,667.818481 985.306580,667.818481 982.384705,667.818481 
	C979.205322,656.206909 976.056335,644.706238 972.664307,632.317932 
	C967.929565,643.117554 963.704651,653.179993 959.053467,663.041443 
	C957.990051,665.296143 955.456665,666.857483 953.599731,668.737915 
	C951.750061,666.829346 949.247681,665.230896 948.167358,662.956848 
	C944.181763,654.567383 940.677246,645.949829 936.963257,637.430481 
	C936.402649,636.144531 935.690430,634.924622 934.586060,632.774170 
	C931.222717,645.046387 928.132507,656.321960 924.991638,667.782166 
	C922.127075,667.782166 919.369873,667.782166 916.014771,667.782166 
	C920.831848,650.996216 925.577209,634.460083 930.584839,617.659302 
z"/>
<path fill="#F9F7F8" opacity="1.000000" stroke="none"
		d="
M1211.046509,617.840698 
	C1219.238647,617.630005 1227.136719,616.610046 1234.775269,617.597290 
	C1247.402588,619.229431 1255.318359,629.821716 1254.891846,642.667419 
	C1254.451050,655.943909 1245.559814,666.670898 1233.085571,667.719055 
	C1225.878052,668.324646 1218.349243,668.328186 1211.304199,666.913269 
	C1199.829834,664.608887 1192.963867,654.649048 1192.817749,642.366211 
	C1192.671143,630.027039 1198.897583,621.489075 1211.046509,617.840698 
M1239.383545,656.049011 
	C1245.566895,650.406250 1247.511597,643.132507 1244.779419,635.867126 
	C1242.326660,629.344788 1236.710571,625.997070 1228.066895,625.952148 
	C1224.249023,625.932373 1220.425049,625.851562 1216.614136,626.025452 
	C1208.893188,626.377747 1203.054688,631.674866 1201.972534,639.114624 
	C1200.676025,648.027283 1204.418335,656.113647 1212.070312,657.881775 
	C1220.901123,659.922363 1230.072266,660.685913 1239.383545,656.049011 
z"/>
<path fill="#F9F7F8" opacity="1.000000" stroke="none"
		d="
M852.434265,629.532959 
	C856.249512,622.369568 862.147278,618.294678 869.579712,617.528198 
	C876.806824,616.782837 884.282410,616.580750 891.453247,617.565125 
	C904.138977,619.306641 912.144287,629.861938 911.617798,642.611267 
	C911.061035,656.093689 902.370728,666.529968 889.874268,667.745483 
	C883.296570,668.385193 876.450623,668.616577 869.977966,667.530151 
	C853.119080,664.700562 844.999146,646.906433 852.434265,629.532959 
M878.573853,659.045349 
	C881.735168,659.020325 884.907593,659.156128 888.055725,658.939392 
	C896.594971,658.351624 902.729980,651.361084 902.734253,642.400452 
	C902.738525,633.441895 896.595032,626.512451 887.929443,626.061279 
	C882.951477,625.802124 877.939575,625.819641 872.959717,626.059509 
	C865.866821,626.401245 860.432129,631.229248 858.943420,638.097351 
	C856.217651,650.672180 863.623291,658.980347 878.573853,659.045349 
z"/>
<path fill="#FEFCFD" opacity="1.000000" stroke="none"
		d="
M969.000122,494.832947 
	C983.113586,494.832947 996.727051,494.832947 1010.585144,494.832947 
	C1010.585144,500.988617 1010.585144,506.727722 1010.585144,512.742554 
	C987.777161,512.742554 965.075562,512.742554 942.165344,512.742554 
	C942.165344,506.882843 942.165344,501.134399 942.165344,494.832947 
	C950.990540,494.832947 959.745300,494.832947 969.000122,494.832947 
z"/>
<path fill="#F6F4F5" opacity="1.000000" stroke="none"
		d="
M746.684204,626.065674 
	C746.732544,633.544373 746.603760,640.538635 746.879395,647.516846 
	C747.151917,654.417603 750.138306,658.051819 756.972473,658.986450 
	C762.003845,659.674500 767.265564,659.818054 772.289307,659.164368 
	C780.505127,658.095459 783.472351,654.509766 783.739624,646.181824 
	C783.995728,638.202881 783.823059,630.210205 783.837463,622.223572 
	C783.840454,620.578735 783.837891,618.933899 783.837891,617.137329 
	C786.774170,617.137329 789.406372,617.137329 791.916504,617.137329 
	C791.916504,628.869263 792.428162,640.506348 791.727112,652.069946 
	C791.297241,659.161743 786.719482,664.264709 779.687439,666.491089 
	C769.741394,669.640076 759.755981,669.723633 749.830261,666.346130 
	C743.032776,664.033020 738.599182,659.058777 738.200500,652.154236 
	C737.533325,640.599854 738.018250,628.978882 738.018250,617.181519 
	C740.561035,617.181519 743.339600,617.181519 746.684204,617.181519 
	C746.684204,620.013611 746.684204,622.793823 746.684204,626.065674 
z"/>
<path fill="#F8F6F7" opacity="1.000000" stroke="none"
		d="
M1002.105713,653.993958 
	C1008.866821,642.699951 1015.431824,631.713379 1022.064392,620.767700 
	C1025.703247,614.762695 1029.037109,614.715332 1032.632202,620.661621 
	C1041.997681,636.151733 1051.290161,651.685852 1060.641968,667.252625 
	C1051.811279,669.312561 1050.525635,669.111511 1046.600830,661.453125 
	C1043.966675,656.312805 1040.716675,654.306335 1034.948975,654.981140 
	C1029.857910,655.576843 1024.642090,655.105835 1019.429260,655.105835 
	C1021.535889,648.189514 1021.535889,648.189514 1038.318359,647.875977 
	C1034.564209,641.539856 1031.031494,635.577515 1027.082764,628.913147 
	C1021.138123,638.936768 1015.574646,648.316345 1010.012939,657.697021 
	C1009.334717,658.840942 1008.667480,659.991333 1007.991882,661.136780 
	C1003.574280,668.627197 1003.574036,668.627014 993.996399,667.614563 
	C996.702148,663.084473 999.320007,658.701477 1002.105713,653.993958 
z"/>
<path fill="#FAF8F9" opacity="1.000000" stroke="none"
		d="
M717.305176,642.608582 
	C722.369019,651.008057 727.236206,659.098816 732.151855,667.270081 
	C723.093201,669.222046 721.947205,669.142883 718.260437,661.686157 
	C715.564148,656.232605 712.063354,654.353699 706.182922,654.992554 
	C701.247925,655.528687 696.208435,655.102722 690.851501,655.102722 
	C692.066101,650.360596 693.847473,647.123779 699.452637,647.883057 
	C702.533875,648.300537 705.718079,647.957825 709.885010,647.957825 
	C706.015747,641.435913 702.521851,635.546692 698.582031,628.905884 
	C695.322510,634.396606 692.410950,639.298889 689.501770,644.202515 
	C686.109253,649.920715 682.184814,655.399719 679.473816,661.424683 
	C676.605286,667.799622 672.310486,669.291992 665.822754,667.510315 
	C666.393616,666.385498 666.900330,665.217407 667.549133,664.134399 
	C676.178040,649.730713 684.809753,635.328491 693.478577,620.948792 
	C697.262695,614.671814 700.442688,614.672241 704.252319,620.935852 
	C708.571289,628.036743 712.825867,635.176819 717.305176,642.608582 
z"/>
<path fill="#FAF8F9" opacity="1.000000" stroke="none"
		d="
M1127.756714,668.010498 
	C1125.663452,668.010498 1124.002319,668.010498 1121.804932,668.010498 
	C1122.319092,666.746948 1122.589600,665.725037 1123.111328,664.853577 
	C1131.903442,650.168823 1140.707031,635.490906 1149.552979,620.838562 
	C1153.198364,614.800354 1156.501465,614.721558 1160.069458,620.609802 
	C1169.024902,635.389160 1177.921143,650.204346 1186.826538,665.013916 
	C1187.307007,665.812805 1187.654175,666.691772 1188.035400,667.475769 
	C1180.846436,669.625061 1175.900269,667.612549 1173.427124,660.591003 
	C1171.813110,656.009460 1168.674683,654.567139 1163.833008,654.990051 
	C1158.272217,655.475769 1152.636353,655.102722 1146.578369,655.102722 
	C1148.299805,650.285217 1150.132568,646.900269 1155.793213,647.870239 
	C1158.703613,648.369019 1161.769897,647.957825 1165.863037,647.957825 
	C1161.985474,641.411743 1158.437134,635.421509 1154.577637,628.905762 
	C1147.194946,641.350830 1140.246704,653.249756 1133.033203,664.985657 
	C1132.140747,666.437866 1129.838135,667.023376 1127.756714,668.010498 
z"/>
<path fill="#F8F6F7" opacity="1.000000" stroke="none"
		d="
M1067.214600,652.636719 
	C1062.714600,637.504395 1066.948730,625.207886 1078.422852,619.695312 
	C1080.642212,618.629089 1083.083496,617.936646 1085.494385,617.387085 
	C1087.256104,616.985596 1089.135132,617.009033 1090.962646,617.001770 
	C1099.740967,616.966919 1108.519653,616.986145 1117.492920,616.986145 
	C1117.492920,620.084045 1117.492920,622.682251 1117.492920,625.953552 
	C1108.642822,625.953552 1099.886353,625.888672 1091.131104,625.969055 
	C1078.658447,626.083618 1071.373657,636.114868 1075.027222,648.027100 
	C1077.076660,654.709229 1082.604370,658.889709 1089.982422,658.991760 
	C1098.970459,659.116150 1107.961670,659.021362 1117.323730,659.021362 
	C1117.323730,661.929504 1117.323730,664.649048 1117.323730,667.683716 
	C1106.824707,667.683716 1096.180054,668.384766 1085.677246,667.465454 
	C1077.020996,666.707825 1070.964966,661.002319 1067.214600,652.636719 
z"/>
<path fill="#F8F6F7" opacity="1.000000" stroke="none"
		d="
M833.027954,625.952759 
	C830.413452,625.952759 828.291199,625.952759 825.753662,625.952759 
	C825.753662,640.126465 825.753662,653.866882 825.753662,667.805908 
	C822.721985,667.805908 820.107056,667.805908 816.958435,667.805908 
	C816.958435,653.985718 816.958435,640.130310 816.958435,626.006592 
	C810.296570,626.006592 804.157593,626.006592 797.672668,626.006592 
	C797.672668,623.013855 797.672668,620.289368 797.672668,617.268616 
	C813.250977,617.268616 828.829590,617.268616 844.722778,617.268616 
	C844.722778,619.889893 844.722778,622.621948 844.722778,625.952698 
	C841.059875,625.952698 837.290039,625.952698 833.027954,625.952759 
z"/>
<path fill="#F6F4F5" opacity="1.000000" stroke="none"
		d="
M1160.736816,608.166504 
	C1161.871094,607.680237 1162.605835,607.307861 1163.341187,606.936462 
	C1164.011841,611.699097 1161.372437,613.157959 1155.998779,611.484192 
	C1152.968994,610.540710 1149.706299,610.345703 1146.299683,609.771545 
	C1146.276245,606.479919 1148.418091,604.936340 1152.810669,606.178711 
	C1155.317139,606.887634 1157.828247,607.580322 1160.736816,608.166504 
z"/>
<path fill="#F6F4F5" opacity="1.000000" stroke="none"
		d="
M1090.337402,676.693237 
	C1089.598022,674.851624 1089.031128,673.324829 1088.338013,671.458252 
	C1091.338013,671.458252 1094.031372,671.458252 1097.298462,671.458252 
	C1095.810059,674.905823 1094.410400,678.148010 1092.726196,682.049377 
	C1091.773438,679.882385 1091.141479,678.445251 1090.337402,676.693237 
z"/>
<path fill="#010101" opacity="1.000000" stroke="none"
		d="
M608.889160,512.817261 
	C604.844299,489.664734 617.343567,469.278015 638.560242,465.499237 
	C647.148010,463.969757 656.153442,464.594788 664.968811,464.594604 
	C671.944763,464.594452 679.106628,464.227264 685.862122,465.607635 
	C706.682922,469.862061 719.196960,489.553345 715.600281,511.256378 
	C712.064270,532.593445 697.679993,544.984253 676.053345,545.206238 
	C666.559570,545.303650 657.063171,545.300537 647.569336,545.203796 
	C627.054199,544.994751 613.167603,533.463074 608.889160,512.817261 
z"/>
<path fill="#030303" opacity="1.000000" stroke="none"
		d="
M1239.079102,656.278442 
	C1230.072266,660.685913 1220.901123,659.922363 1212.070312,657.881775 
	C1204.418335,656.113647 1200.676025,648.027283 1201.972534,639.114624 
	C1203.054688,631.674866 1208.893188,626.377747 1216.614136,626.025452 
	C1220.425049,625.851562 1224.249023,625.932373 1228.066895,625.952148 
	C1236.710571,625.997070 1242.326660,629.344788 1244.779419,635.867126 
	C1247.511597,643.132507 1245.566895,650.406250 1239.079102,656.278442 
z"/>
<path fill="#030303" opacity="1.000000" stroke="none"
		d="
M878.094849,659.045410 
	C863.623291,658.980347 856.217651,650.672180 858.943420,638.097351 
	C860.432129,631.229248 865.866821,626.401245 872.959717,626.059509 
	C877.939575,625.819641 882.951477,625.802124 887.929443,626.061279 
	C896.595032,626.512451 902.738525,633.441895 902.734253,642.400452 
	C902.729980,651.361084 896.594971,658.351624 888.055725,658.939392 
	C884.907593,659.156128 881.735168,659.020325 878.094849,659.045410 
z"/>
</svg>