<?xml version="1.0" encoding="UTF-8"?>
<svg version="1.1" xmlns="http://www.w3.org/2000/svg" width="1024" height="600">
<path d="M0 0 C337.92 0 675.84 0 1024 0 C1024 198 1024 396 1024 600 C686.08 600 348.16 600 0 600 C0 402 0 204 0 0 Z " fill="#FDFDFC" transform="translate(0,0)"/>
<path d="M0 0 C3.48307678 0.07595665 6.96581961 0.05653091 10.44953895 0.05034161 C16.29234112 0.0541807 22.13091594 0.12799226 27.97244239 0.24717999 C34.71586746 0.38417876 41.45419443 0.42249553 48.19887453 0.40564275 C54.70772793 0.39057128 61.21487969 0.43255472 67.72331786 0.50474072 C70.48452341 0.53512225 73.24497536 0.54796219 76.0063417 0.54693127 C79.8614848 0.54962127 83.7122058 0.63693711 87.56619239 0.73350811 C88.70553229 0.72583416 89.8448722 0.71816021 91.01873755 0.71025372 C94.19706304 0.83031504 96.66448561 1.02192433 99.63919044 2.15440655 C102.39848765 5.19044287 104.01058716 8.41630655 105.63919044 12.15440655 C106.19904639 13.10420391 106.75890235 14.05400127 107.33572364 15.03258038 C108.00607642 16.1853648 108.00607642 16.1853648 108.68997169 17.3614378 C109.21453956 18.26241192 109.73910743 19.16338604 110.27957129 20.09166241 C110.83137061 21.04049297 111.38316993 21.98932354 111.95169044 22.96690655 C113.18845273 25.08942876 114.42544204 27.21181871 115.66262794 29.33409405 C116.6328086 30.99843487 116.6328086 30.99843487 117.62258887 32.69639874 C120.74604366 38.05312179 123.87250897 43.4080741 127.00454688 48.75978374 C127.7183031 49.97947959 128.43176426 51.19934816 129.14492774 52.41939068 C133.06609715 59.12517328 137.01892097 65.8089584 141.05325294 72.4473753 C141.40571586 73.02867702 141.75817878 73.60997875 142.12132239 74.20889568 C143.79590572 76.97000774 145.47706519 79.72663864 147.17019629 82.47642803 C147.75937842 83.44523907 148.34856055 84.4140501 148.95559669 85.41221905 C149.47581397 86.25929424 149.99603126 87.10636944 150.5320127 87.97911358 C151.63919044 90.15440655 151.63919044 90.15440655 151.63919044 93.15440655 C145.62538797 93.35260513 139.61349659 93.49753725 133.59719825 93.59385967 C131.55226497 93.63401991 129.5075604 93.68856237 127.46340919 93.75792217 C124.51882511 93.85531114 121.57728195 93.90040443 118.63137794 93.93565655 C117.72177314 93.97694683 116.81216834 94.01823711 115.87499976 94.06077862 C112.17910806 94.06337408 109.67037656 94.06511245 106.82633948 91.55336285 C105.24341624 89.49341224 103.92392456 87.4109455 102.63919044 85.15440655 C101.94656104 84.04951885 101.25393165 82.94463116 100.54031348 81.80626202 C99.60505836 80.18035137 99.60505836 80.18035137 98.65090919 78.52159405 C98.30341117 77.92243176 97.95591315 77.32326946 97.59788489 76.70595074 C96.50266487 74.81650639 95.41406709 72.92337384 94.32669044 71.02940655 C93.24942853 69.15722664 92.17049277 67.28607956 91.08763099 65.41713238 C90.09682135 63.70652228 89.11132917 61.9928353 88.12625098 60.27891827 C87.75148124 59.68239452 87.37671149 59.08587078 86.99058509 58.47127056 C85.63919044 56.15440655 85.63919044 56.15440655 84.00691199 52.6209898 C80.6885401 45.78582192 80.6885401 45.78582192 74.78585982 41.38185787 C69.33316418 40.17919527 63.79980884 40.54746722 58.26028419 40.78721905 C56.4796071 40.81336659 54.69882855 40.83327823 52.91801429 40.84724712 C48.25454307 40.90043725 43.59728258 41.03767169 38.93624854 41.19310284 C34.17076638 41.33692883 29.40426914 41.40038574 24.63723731 41.4708128 C15.30184153 41.62048105 5.97103437 41.85905355 -3.36080956 42.15440655 C-3.96377358 43.22969112 -4.5667376 44.3049757 -5.18797326 45.41284466 C-5.99498211 46.85023636 -6.80202645 48.28760814 -7.60910058 49.72496319 C-8.00461366 50.43051594 -8.40012673 51.13606869 -8.80762506 51.86300182 C-12.53641995 58.50079411 -16.39767865 65.05351218 -20.29830956 71.59190655 C-21.34136246 73.34517617 -22.3837451 75.09884315 -23.42610192 76.85252666 C-24.44204367 78.56161495 -25.45854978 80.27036772 -26.47506738 81.97911358 C-29.45136201 86.99072518 -32.40492454 92.01558731 -35.35470605 97.04283428 C-36.91280132 99.69722454 -38.45307789 102.28316194 -40.24752831 104.78721905 C-41.6357466 107.09831887 -41.6357466 107.09831887 -40.79049706 109.5255003 C-40.31870019 110.39303936 -39.84690331 111.26057842 -39.36080956 112.15440655 C-38.78588769 113.23850811 -38.21096581 114.32260967 -37.61862206 115.4395628 C-36.91178206 116.70098219 -36.20056269 117.95995403 -35.48580956 119.21690655 C-34.90186425 120.24932476 -34.90186425 120.24932476 -34.30612206 121.30259991 C-29.61190894 129.54772854 -24.70204501 137.66423248 -19.79342675 145.78282452 C-17.68277988 149.27682992 -15.58418187 152.77802099 -13.48580956 156.27940655 C-12.48776888 157.94280769 -11.48945979 159.60635062 -10.45822167 161.24937725 C-9.36080956 163.15440655 -9.36080956 163.15440655 -8.20285058 165.76842022 C-6.81287972 168.64095863 -5.56849873 170.84237387 -3.36080956 173.15440655 C0.76492808 174.48658317 4.64967405 174.37718273 8.95169044 174.21690655 C11.13527335 174.20548746 13.31886915 174.19624866 15.50247169 174.1895628 C16.46451514 174.16257305 17.4265586 174.13558331 18.41775489 174.10777569 C20.63919044 174.15440655 20.63919044 174.15440655 21.63919044 175.15440655 C21.72774204 177.82066685 21.75443717 180.46087769 21.73684669 183.1270628 C21.73543174 183.92470547 21.73401679 184.72234814 21.73255897 185.5441618 C21.7269436 188.1017809 21.71438855 190.65931373 21.70169044 193.21690655 C21.69667741 194.946723 21.69211416 196.67654081 21.68801856 198.40635967 C21.67696918 202.65574208 21.6596943 206.90505967 21.63919044 211.15440655 C14.80869768 211.48518786 7.98027697 211.71211038 1.14358497 211.86851788 C-1.17913985 211.93373023 -3.50133418 212.02233196 -5.82223535 212.13511944 C-24.50593724 213.0200526 -24.50593724 213.0200526 -29.12789941 209.99962139 C-32.34377949 206.61635504 -33.78865757 202.46546674 -35.36080956 198.15440655 C-36.34068268 196.41968567 -37.35908516 194.70588448 -38.42330956 193.02159405 C-39.40362095 191.35820565 -40.38275324 189.69412189 -41.36080956 188.02940655 C-42.49344592 186.10742774 -43.62626678 184.18555764 -44.75924706 182.26378155 C-45.3467373 181.2666917 -45.93422753 180.26960186 -46.5395205 179.24229717 C-49.68059822 173.91678095 -52.83322734 168.59811785 -55.98580956 163.27940655 C-56.64033105 162.17484112 -57.29485253 161.07027569 -57.969208 159.93223858 C-61.79604655 153.4751408 -65.62767941 147.02090545 -69.46237206 140.56846905 C-70.32744589 139.11257844 -71.19251752 137.65668651 -72.05758691 136.20079327 C-73.72649877 133.39211739 -75.39621139 130.58391967 -77.06637597 127.77598858 C-77.83642175 126.4802685 -78.60644249 125.18453354 -79.37643456 123.88878155 C-80.04964746 122.75666241 -80.72286035 121.62454327 -81.41647363 120.45811749 C-82.05810449 119.36789288 -82.69973535 118.27766827 -83.36080956 117.15440655 C-83.73588647 116.56083355 -84.11096337 115.96726055 -84.49740624 115.35570049 C-86.6732368 111.81606613 -88.11039582 109.32188553 -87.36080956 105.15440655 C-86.16183496 102.56846905 -86.16183496 102.56846905 -84.45846581 99.77940655 C-83.82432763 98.72704815 -83.19018945 97.67468975 -82.53683496 96.5904417 C-81.83233126 95.44509372 -81.12782266 94.29974875 -80.42330956 93.15440655 C-79.69473924 91.95123914 -78.96746847 90.74728393 -78.2414248 89.54259014 C-77.1050475 87.65756972 -75.96779321 85.77313336 -74.82652307 83.89107037 C-71.14629832 77.82155569 -67.55128884 71.70386236 -63.97192407 65.57448101 C-62.91732553 63.76916275 -61.86092271 61.96491271 -60.8039248 60.16099834 C-57.5372162 54.58563797 -54.27457506 49.00791514 -51.01612878 43.42772198 C-49.5301557 40.88356669 -48.04283105 38.34020283 -46.55535913 35.79692364 C-45.53808432 34.05634952 -44.52275816 32.31463695 -43.50753808 30.57286358 C-42.22937849 28.38753529 -40.92287162 26.2184855 -39.58560205 24.06882 C-37.93642388 21.31949586 -36.70391674 18.58592894 -35.54420495 15.59945965 C-28.37356186 -1.13024288 -16.56059023 -0.44011204 0 0 Z " fill="#03164F" transform="translate(477.36080956459045,170.8455934524536)"/>
<path d="M0 0 C2.08315357 0.06526049 4.1665027 0.12456724 6.25 0.17773438 C11.33818151 0.32051709 16.4169407 0.544453 21.5 0.8125 C20.63725334 4.69652061 19.03251351 7.58285941 17 11.01953125 C16.64850891 11.61686066 16.29701782 12.21419006 15.93487549 12.82962036 C14.7947479 14.76431297 13.64751154 16.69467949 12.5 18.625 C11.71152545 19.95948726 10.92344039 21.29420473 10.13574219 22.62915039 C5.7002232 30.13832437 1.23548135 37.62996611 -3.26953125 45.09765625 C-6.18758119 49.94387321 -9.06046856 54.81686328 -11.9375 59.6875 C-12.48929932 60.62102295 -13.04109863 61.5545459 -13.60961914 62.51635742 C-16.24625236 66.98071427 -18.87482663 71.44943879 -21.484375 75.9296875 C-21.94271729 76.7148877 -22.40105957 77.50008789 -22.87329102 78.30908203 C-23.72801846 79.77464665 -24.58020985 81.24169427 -25.42944336 82.71044922 C-26.96250187 85.33714831 -28.33944346 87.65194346 -30.5 89.8125 C-32.55604553 90.05973816 -32.55604553 90.05973816 -35.11743164 90.05541992 C-36.07504898 90.05849655 -37.03266632 90.06157318 -38.01930237 90.06474304 C-39.05578415 90.05755753 -40.09226593 90.05037201 -41.16015625 90.04296875 C-42.75046913 90.04228142 -42.75046913 90.04228142 -44.37290955 90.0415802 C-46.61653766 90.03855571 -48.86016362 90.03066356 -51.10375977 90.01831055 C-54.55167009 90.00005733 -57.99931204 89.99780079 -61.44726562 89.99804688 C-63.62239817 89.99313176 -65.79752889 89.98730347 -67.97265625 89.98046875 C-69.01116226 89.97935593 -70.04966827 89.9782431 -71.11964417 89.97709656 C-72.55134193 89.96752678 -72.55134193 89.96752678 -74.01196289 89.95776367 C-74.85642471 89.95395187 -75.70088654 89.95014008 -76.57093811 89.94621277 C-78.5 89.8125 -78.5 89.8125 -79.5 88.8125 C-79.60095564 86.15793807 -79.63970998 83.52994824 -79.6328125 80.875 C-79.63376923 80.079729 -79.63472595 79.28445801 -79.63571167 78.46508789 C-79.63639343 76.7804354 -79.63453943 75.09578029 -79.63037109 73.41113281 C-79.62502275 70.82350803 -79.63031619 68.23605684 -79.63671875 65.6484375 C-79.63605797 64.01562461 -79.6347768 62.38281184 -79.6328125 60.75 C-79.63483673 59.97084229 -79.63686096 59.19168457 -79.63894653 58.38891602 C-79.61495105 52.92745105 -79.61495105 52.92745105 -78.5 51.8125 C-76.66476601 51.81325516 -74.82950473 51.8713414 -72.99609375 51.953125 C-60.65704294 52.72219211 -60.65704294 52.72219211 -49.48828125 48.69921875 C-47.8509731 45.92131391 -46.62230206 43.16861628 -45.49414062 40.15185547 C-43.35225111 35.11168226 -40.30643925 30.50339827 -37.5 25.8125 C-36.35227038 23.8344324 -35.2064185 21.85527402 -34.0625 19.875 C-33.46630859 18.90071045 -32.87011719 17.9264209 -32.25585938 16.92260742 C-30.4000641 13.80193133 -30.4000641 13.80193133 -29.07226562 10.1965332 C-23.18806521 -2.95243292 -12.55045447 -0.68153083 0 0 Z " fill="#0EC152" transform="translate(607.5,293.1875)"/>
<path d="M0 0 C0.89772125 -0.00902847 1.7954425 -0.01805695 2.72036743 -0.02735901 C4.62181249 -0.04188197 6.52330775 -0.05075331 8.42480469 -0.05444336 C11.33354048 -0.06633259 14.24015027 -0.1154903 17.1484375 -0.16601562 C18.9947813 -0.17548041 20.84113814 -0.18271518 22.6875 -0.1875 C23.5574057 -0.20703232 24.4273114 -0.22656464 25.32357788 -0.24668884 C31.35560961 -0.20165586 31.35560961 -0.20165586 34.34790039 2.55834961 C35.15408813 3.95065796 35.15408813 3.95065796 35.9765625 5.37109375 C36.53480713 6.25925781 37.09305176 7.14742187 37.66821289 8.0625 C38.21469482 9.00996094 38.76117676 9.95742187 39.32421875 10.93359375 C39.92943359 11.97773438 40.53464844 13.021875 41.15820312 14.09765625 C41.77888672 15.17789062 42.39957031 16.258125 43.0390625 17.37109375 C44.27976393 19.51703347 45.52064301 21.66287049 46.76171875 23.80859375 C47.30707275 24.75605469 47.85242676 25.70351563 48.41430664 26.6796875 C49.45979702 28.4808261 50.57028451 30.24568909 51.73999023 31.96875 C52.9765625 34.37109375 52.9765625 34.37109375 52.80517578 36.40991211 C51.8801434 38.59930077 50.86517254 40.6668006 49.71875 42.75 C49.26097168 43.58426514 48.80319336 44.41853027 48.33154297 45.27807617 C47.84314941 46.15439697 47.35475586 47.03071777 46.8515625 47.93359375 C46.35672363 48.82731689 45.86188477 49.72104004 45.35205078 50.6418457 C36.0772288 67.27042745 36.0772288 67.27042745 32.9765625 70.37109375 C26.97947985 70.85866145 20.98326532 71.02765201 14.96899414 71.16064453 C12.944036 71.21728445 10.91961367 71.29903876 8.89672852 71.40673828 C-7.86226002 72.2825049 -7.86226002 72.2825049 -12.96826172 67.76660156 C-15.05507048 64.38379564 -16.55637627 61.06027953 -18.0234375 57.37109375 C-19.05017124 55.59987268 -20.11000478 53.8471741 -21.2109375 52.12109375 C-22.15006633 50.53872599 -23.08760736 48.95541463 -24.0234375 47.37109375 C-24.51199219 46.56542969 -25.00054687 45.75976562 -25.50390625 44.9296875 C-25.96410156 44.14722656 -26.42429687 43.36476563 -26.8984375 42.55859375 C-27.30835938 41.87152344 -27.71828125 41.18445313 -28.140625 40.4765625 C-29.2247426 37.89098999 -29.32137408 36.15464163 -29.0234375 33.37109375 C-28.12475586 31.24975586 -28.12475586 31.24975586 -26.86328125 29.1484375 C-26.40236084 28.36782959 -25.94144043 27.58722168 -25.46655273 26.78295898 C-24.96969971 25.96641846 -24.47284668 25.14987793 -23.9609375 24.30859375 C-23.46086182 23.46820557 -22.96078613 22.62781738 -22.44555664 21.76196289 C-21.44291998 20.07722972 -20.43638564 18.39480949 -19.42578125 16.71484375 C-17.56333515 13.60212046 -15.76388455 10.45611147 -13.9609375 7.30859375 C-10.07131249 0.52790271 -7.6801923 0.0471267 0 0 Z " fill="#0FC154" transform="translate(503.0234375,243.62890625)"/>
<path d="M0 0 C1.08809212 0.01061211 1.08809212 0.01061211 2.19816589 0.0214386 C4.50167578 0.04929719 6.80270126 0.11200934 9.10546875 0.17578125 C10.67249078 0.20087562 12.23955115 0.22368681 13.80664062 0.24414062 C17.63636531 0.29909444 21.46424672 0.38529899 25.29296875 0.48828125 C25.29296875 1.47828125 25.29296875 2.46828125 25.29296875 3.48828125 C16.05296875 3.81828125 6.81296875 4.14828125 -2.70703125 4.48828125 C-1.71703125 5.47828125 -0.72703125 6.46828125 0.29296875 7.48828125 C0.98046875 9.67578125 0.98046875 9.67578125 1.29296875 11.48828125 C1.95296875 9.50828125 2.61296875 7.52828125 3.29296875 5.48828125 C8.68394557 4.35333876 13.80844579 4.41416607 19.29296875 4.48828125 C19.95296875 8.44828125 20.61296875 12.40828125 21.29296875 16.48828125 C21.43734375 14.85890625 21.58171875 13.22953125 21.73046875 11.55078125 C22.16796875 6.61328125 22.16796875 6.61328125 23.29296875 5.48828125 C25.73046875 5.30078125 25.73046875 5.30078125 28.29296875 5.48828125 C30.43151725 7.62682975 30.71951938 8.62103439 31.29296875 11.48828125 C31.51984375 10.68390625 31.74671875 9.87953125 31.98046875 9.05078125 C33.29296875 6.48828125 33.29296875 6.48828125 35.79296875 5.61328125 C38.29296875 5.48828125 38.29296875 5.48828125 40.29296875 6.48828125 C40.37422962 8.57096718 40.43227714 10.65456783 40.48046875 12.73828125 C40.53267578 14.47851562 40.53267578 14.47851562 40.5859375 16.25390625 C40.26548265 19.79172783 39.45451898 20.8115122 37.29296875 23.48828125 C37.78796875 24.97328125 37.78796875 24.97328125 38.29296875 26.48828125 C31.83362835 26.6151742 25.37460991 26.70267093 18.91430664 26.76293945 C16.71724435 26.78806634 14.52026551 26.82217371 12.32348633 26.86547852 C9.1633647 26.92620887 6.00434918 26.95450958 2.84375 26.9765625 C1.86336258 27.00236893 0.88297516 27.02817535 -0.12712097 27.05476379 C-4.77588085 27.05667089 -6.98895973 27.01619399 -10.82495117 24.19604492 C-13.28948996 20.65029324 -13.44751721 17.66117405 -13.33203125 13.48828125 C-13.35136719 12.78960937 -13.37070312 12.0909375 -13.390625 11.37109375 C-13.35588961 7.68914284 -12.88623861 5.7238613 -10.6472168 2.78051758 C-7.02887812 -0.04042254 -4.39640391 -0.16300412 0 0 Z " fill="#F4FCF6" transform="translate(485.70703125,489.51171875)"/>
<path d="M0 0 C4.79687741 0.56539771 7.75055053 1.64429121 10.9609375 5.32226562 C14.14192299 9.83234775 17.42514858 14.77758612 17.390625 20.43945312 C16.00227852 23.87726345 14.2403105 27.00886548 12.34375 30.18945312 C11.96669922 30.83462891 11.58964844 31.47980469 11.20117188 32.14453125 C10.27587507 33.72573464 9.34192319 35.30186773 8.40625 36.87695312 C-10.32206093 38.51294319 -10.32206093 38.51294319 -15.44140625 34.82617188 C-17.19268887 32.22811524 -18.41753923 29.77517031 -19.59375 26.87695312 C-20.15835937 26.04550781 -20.72296875 25.2140625 -21.3046875 24.35742188 C-22.59375 21.87695312 -22.59375 21.87695312 -22.48828125 19.55273438 C-18.35726773 7.19577254 -14.11791558 -0.32180543 0 0 Z " fill="#F6FCF7" transform="translate(517.59375,259.123046875)"/>
<path d="M0 0 C3.32947103 0.07185909 4.28412344 0.39632715 7.25 2.25 C10.06123681 6.64255751 10.02738792 10.292722 9.25 15.375 C7.63727433 19.06123011 6.619675 20.12855 3.25 22.375 C0.375 22.8125 0.375 22.8125 -2.75 22.375 C-5.85164769 19.82475635 -7.47566416 18.19800753 -8.75 14.375 C-9.28973359 8.65382393 -8.28865525 5.87874305 -4.75 1.375 C-3.75 0.375 -3.75 0.375 0 0 Z " fill="#2B2D49" transform="translate(463.75,448.625)"/>
<path d="M0 0 C10 0 10 0 13.0625 1.875 C16.32656959 5.45494729 16.27898575 8.05885797 16.21875 12.7421875 C15.91889867 15.83708155 15.00312491 17.63917422 13 20 C9 22 9 22 0 22 C0 14.74 0 7.48 0 0 Z " fill="#20223D" transform="translate(496,449)"/>
<path d="M0 0 C1.08809212 0.01061211 1.08809212 0.01061211 2.19816589 0.0214386 C4.50167578 0.04929719 6.80270126 0.11200934 9.10546875 0.17578125 C10.67249078 0.20087562 12.23955115 0.22368681 13.80664062 0.24414062 C17.63636531 0.29909444 21.46424672 0.38529899 25.29296875 0.48828125 C25.29296875 1.47828125 25.29296875 2.46828125 25.29296875 3.48828125 C14.07296875 3.81828125 2.85296875 4.14828125 -8.70703125 4.48828125 C-8.70703125 10.09828125 -8.70703125 15.70828125 -8.70703125 21.48828125 C-7.15044643 23.04486607 -5.62835389 22.65137524 -3.46264648 22.69360352 C-2.11135902 22.72352135 -2.11135902 22.72352135 -0.73277283 22.75404358 C0.24638596 22.77075607 1.22554474 22.78746857 2.234375 22.8046875 C3.23178207 22.8254686 4.22918915 22.84624969 5.25682068 22.86766052 C8.45629718 22.93326762 11.65585857 22.99209259 14.85546875 23.05078125 C17.01888914 23.09395587 19.18230081 23.1375698 21.34570312 23.18164062 C26.66136749 23.28896028 31.97711709 23.39070552 37.29296875 23.48828125 C37.78796875 24.97328125 37.78796875 24.97328125 38.29296875 26.48828125 C31.83362835 26.6151742 25.37460991 26.70267093 18.91430664 26.76293945 C16.71724435 26.78806634 14.52026551 26.82217371 12.32348633 26.86547852 C9.1633647 26.92620887 6.00434918 26.95450958 2.84375 26.9765625 C1.86336258 27.00236893 0.88297516 27.02817535 -0.12712097 27.05476379 C-4.77588085 27.05667089 -6.98895973 27.01619399 -10.82495117 24.19604492 C-13.28948996 20.65029324 -13.44751721 17.66117405 -13.33203125 13.48828125 C-13.35136719 12.78960937 -13.37070312 12.0909375 -13.390625 11.37109375 C-13.35588961 7.68914284 -12.88623861 5.7238613 -10.6472168 2.78051758 C-7.02887812 -0.04042254 -4.39640391 -0.16300412 0 0 Z " fill="#545769" transform="translate(485.70703125,489.51171875)"/>
<path d="M0 0 C1.32 0 2.64 0 4 0 C5.78574043 2.31791473 7.26882294 4.50081525 8.75 7 C9.36681641 8.00160156 9.36681641 8.00160156 9.99609375 9.0234375 C11.01028343 10.67444395 12.00684598 12.3362548 13 14 C13.33 9.38 13.66 4.76 14 0 C14.99 0 15.98 0 17 0 C17 7.26 17 14.52 17 22 C13 21 13 21 10.859375 18.05859375 C10.14360567 16.85901738 9.4408473 15.65160016 8.75 14.4375 C8.38648438 13.82197266 8.02296875 13.20644531 7.6484375 12.57226562 C6.7543912 11.05473967 5.87568372 9.52819561 5 8 C4.67 12.62 4.34 17.24 4 22 C2.68 22 1.36 22 0 22 C0 14.74 0 7.48 0 0 Z " fill="#2E314C" transform="translate(524,449)"/>
<path d="M0 0 C1.32 0 2.64 0 4 0 C5.33891561 3.28942366 6.67017703 6.58189109 8 9.875 C8.3815625 10.81214844 8.763125 11.74929688 9.15625 12.71484375 C9.5171875 13.61074219 9.878125 14.50664062 10.25 15.4296875 C10.75273437 16.67081299 10.75273437 16.67081299 11.265625 17.93701172 C12 20 12 20 12 22 C10.68 22 9.36 22 8 22 C7.67 20.02 7.34 18.04 7 16 C3.7 16 0.4 16 -3 16 C-3.33 17.98 -3.66 19.96 -4 22 C-4.99 22 -5.98 22 -7 22 C-5.56006454 14.27670981 -2.94467554 7.2717751 0 0 Z " fill="#3C405A" transform="translate(482,449)"/>
<path d="M0 0 C2.9375 0.875 2.9375 0.875 4.9375 3.875 C5.51347403 7.93673896 5.46849197 11.6655183 3.8125 15.4375 C1.11773401 17.50348726 -0.76065888 17.29651163 -4.0625 16.875 C-6.75351234 14.18398766 -6.36137549 12.68424054 -6.375 8.9375 C-6.39175781 7.87660156 -6.40851563 6.81570313 -6.42578125 5.72265625 C-6.0625 2.875 -6.0625 2.875 -4.734375 0.98828125 C-3.0625 -0.125 -3.0625 -0.125 0 0 Z " fill="#F6F6F6" transform="translate(465.0625,451.125)"/>
<path d="M0 0 C3.9375 0.625 3.9375 0.625 6.4375 2.5 C7.9375 4.625 7.9375 4.625 7.9375 6.625 C6.9475 6.625 5.9575 6.625 4.9375 6.625 C4.2775 5.635 3.6175 4.645 2.9375 3.625 C0.5943787 3.88061323 -1.74093403 4.21770772 -4.0625 4.625 C-5.64743084 7.79486168 -5.3565042 11.16532261 -5.0625 14.625 C-4.19984032 17.03057853 -4.19984032 17.03057853 -3.0625 18.625 C-0.7525 18.625 1.5575 18.625 3.9375 18.625 C4.2675 16.975 4.5975 15.325 4.9375 13.625 C3.2875 13.625 1.6375 13.625 -0.0625 13.625 C-0.0625 12.965 -0.0625 12.305 -0.0625 11.625 C2.5775 11.625 5.2175 11.625 7.9375 11.625 C7.9375 14.595 7.9375 17.565 7.9375 20.625 C3.62446187 22.78151907 1.66514004 23.20558737 -3.0625 22.625 C-6.22204305 20.08362841 -7.77790886 18.47877341 -9.0625 14.625 C-9.5095275 10.08022045 -9.75842136 6.93366742 -7.0625 3.125 C-3.55147796 0.1991483 -3.55147796 0.1991483 0 0 Z " fill="#1D213F" transform="translate(554.0625,448.375)"/>
<path d="M0 0 C6 0 6 0 8.375 1.4375 C10.78226912 5.23357822 10.64213079 8.62548398 10 13 C8.9375 15.5625 8.9375 15.5625 7 17 C4.69 17 2.38 17 0 17 C0 11.39 0 5.78 0 0 Z " fill="#ECEDED" transform="translate(499,451)"/>
<path d="M0 0 C15.51 0 31.02 0 47 0 C47.495 1.485 47.495 1.485 48 3 C41.48558999 3.07589036 34.9712934 3.12853202 28.45654297 3.16479492 C26.23905172 3.17990753 24.02159047 3.20039826 21.80419922 3.22631836 C18.62199511 3.26259293 15.44018518 3.27970139 12.2578125 3.29296875 C10.76400558 3.31619453 10.76400558 3.31619453 9.24002075 3.33988953 C7.85881546 3.34022942 7.85881546 3.34022942 6.44970703 3.34057617 C5.6369632 3.34723801 4.82421936 3.35389984 3.98684692 3.36076355 C3.33118744 3.24171158 2.67552795 3.12265961 2 3 C1.34 2.01 0.68 1.02 0 0 Z " fill="#424458" transform="translate(476,513)"/>
<path d="M0 0 C1.02086197 -0.00137466 2.04172394 -0.00274933 3.09352112 -0.00416565 C4.21776993 -0.00057037 5.34201874 0.0030249 6.50033569 0.00672913 C7.68080978 0.0065831 8.86128387 0.00643707 10.07752991 0.00628662 C13.31906079 0.00686492 16.56054879 0.01188868 19.80207109 0.01886058 C23.18801214 0.02510146 26.57395399 0.0256985 29.9598999 0.02688599 C36.37367314 0.02999713 42.78742938 0.03820761 49.20119512 0.04823548 C56.5021885 0.05940333 63.80318269 0.06490876 71.10418248 0.06993091 C86.12475215 0.08039039 101.14530589 0.09798565 116.16586304 0.12025452 C116.16586304 0.45025452 116.16586304 0.78025452 116.16586304 1.12025452 C76.56586304 1.45025452 36.96586304 1.78025452 -3.83413696 2.12025452 C-4.49413696 3.77025452 -5.15413696 5.42025452 -5.83413696 7.12025452 C-6.49413696 6.13025452 -7.15413696 5.14025452 -7.83413696 4.12025452 C-7.50413696 3.13025452 -7.17413696 2.14025452 -6.83413696 1.12025452 C-4.3677938 -0.11291707 -2.75862523 -0.00285572 0 0 Z " fill="#000A41" transform="translate(456.8341369628906,173.87974548339844)"/>
<path d="M0 0 C1.65 0 3.3 0 5 0 C4.34 0.66 3.68 1.32 3 2 C2.75479372 4.57485365 2.62642023 7.05311526 2.5859375 9.6328125 C2.56829346 10.29917725 2.55064941 10.96554199 2.5324707 11.65209961 C2.46937509 14.14282034 2.42320804 16.63394665 2.375 19.125 C2.25125 24.69375 2.1275 30.2625 2 36 C17.51 36 33.02 36 49 36 C49 36.33 49 36.66 49 37 C42.18238106 37.0252689 35.36477411 37.04283244 28.54711914 37.05493164 C26.22582549 37.05997333 23.90453503 37.06680651 21.58325195 37.07543945 C18.25471205 37.08751225 14.92621398 37.09322979 11.59765625 37.09765625 C10.03048607 37.10539818 10.03048607 37.10539818 8.43165588 37.11329651 C7.47073532 37.11337204 6.50981476 37.11344757 5.51977539 37.11352539 C4.66928116 37.115746 3.81878693 37.11796661 2.94252014 37.12025452 C1 37 1 37 0 36 C-0.08855161 33.3337397 -0.11524673 30.69352886 -0.09765625 28.02734375 C-0.0962413 27.22970108 -0.09482635 26.43205841 -0.09336853 25.61024475 C-0.08775316 23.05262565 -0.07519812 20.49509282 -0.0625 17.9375 C-0.05748698 16.20768355 -0.05292373 14.47786574 -0.04882812 12.74804688 C-0.03777875 8.49866447 -0.02050386 4.24934688 0 0 Z " fill="#3BC36B" transform="translate(528,346)"/>
<path d="M0 0 C2.5625 0.1875 2.5625 0.1875 4.5625 2.1875 C4.828125 4.9375 4.828125 4.9375 4.8125 8.1875 C4.81765625 9.26 4.8228125 10.3325 4.828125 11.4375 C4.5625 14.1875 4.5625 14.1875 2.5625 16.1875 C-1.99305556 15.63194444 -1.99305556 15.63194444 -3.4375 14.1875 C-3.5364294 12.02269203 -3.567211 9.85456215 -3.5625 7.6875 C-3.56507813 6.5015625 -3.56765625 5.315625 -3.5703125 4.09375 C-3.39516757 0.26116674 -3.39516757 0.26116674 0 0 Z " fill="#2DCC6C" transform="translate(511.4375,494.8125)"/>
<path d="M0 0 C3.125 0.375 3.125 0.375 6 1 C6.05386629 3.12472576 6.09273071 5.24983652 6.125 7.375 C6.14820313 8.55835938 6.17140625 9.74171875 6.1953125 10.9609375 C6 14 6 14 4 16 C-0.55555556 15.44444444 -0.55555556 15.44444444 -2 14 C-2.12514928 12.02380553 -2.1757276 10.04261827 -2.1875 8.0625 C-2.20167969 6.98097656 -2.21585938 5.89945312 -2.23046875 4.78515625 C-2 2 -2 2 0 0 Z " fill="#B9EBCA" transform="translate(520,495)"/>
<path d="M0 0 C2.5 0.125 2.5 0.125 3.5 1.125 C3.57271741 3.47813555 3.58370868 5.83333668 3.5625 8.1875 C3.55347656 9.47785156 3.54445313 10.76820313 3.53515625 12.09765625 C3.52355469 13.09667969 3.51195312 14.09570312 3.5 15.125 C1.125 15.75 1.125 15.75 -1.5 16.125 C-3.5 14.125 -3.5 14.125 -3.73046875 11.12109375 C-3.71628906 9.94675781 -3.70210938 8.77242188 -3.6875 7.5625 C-3.67783203 5.79712891 -3.67783203 5.79712891 -3.66796875 3.99609375 C-3.44425872 0.17221294 -3.44425872 0.17221294 0 0 Z " fill="#19CA61" transform="translate(501.5,494.875)"/>
<path d="M0 0 C2.5 0.125 2.5 0.125 3.5 1.125 C3.57271741 3.47813555 3.58370868 5.83333668 3.5625 8.1875 C3.55347656 9.47785156 3.54445313 10.76820313 3.53515625 12.09765625 C3.52355469 13.09667969 3.51195312 14.09570312 3.5 15.125 C1.125 15.75 1.125 15.75 -1.5 16.125 C-3.5 14.125 -3.5 14.125 -3.73046875 11.12109375 C-3.71628906 9.94675781 -3.70210938 8.77242188 -3.6875 7.5625 C-3.67783203 5.79712891 -3.67783203 5.79712891 -3.66796875 3.99609375 C-3.44425872 0.17221294 -3.44425872 0.17221294 0 0 Z " fill="#08BE4B" transform="translate(491.5,494.875)"/>
<path d="M0 0 C1.65 0.33 3.3 0.66 5 1 C5 5.62 5 10.24 5 15 C3.35 15.33 1.7 15.66 0 16 C-2 14 -2 14 -2.265625 11.25 C-2.26046875 10.1775 -2.2553125 9.105 -2.25 8 C-2.25515625 6.9275 -2.2603125 5.855 -2.265625 4.75 C-2 2 -2 2 0 0 Z " fill="#14C75E" transform="translate(480,495)"/>
<path d="M0 0 C0.495 0.99 0.495 0.99 1 2 C3.01669827 3.13350534 3.01669827 3.13350534 5 4 C5 4.99 5 5.98 5 7 C-9.19 7 -23.38 7 -38 7 C-38 6.34 -38 5.68 -38 5 C-25.46 5 -12.92 5 0 5 C0 3.35 0 1.7 0 0 Z " fill="#1F2953" transform="translate(624,257)"/>
<path d="M0 0 C0.99 0 1.98 0 3 0 C3 6.27 3 12.54 3 19 C6.3 19 9.6 19 13 19 C13 19.99 13 20.98 13 22 C8.71 22 4.42 22 0 22 C0 14.74 0 7.48 0 0 Z " fill="#23263F" transform="translate(441,449)"/>
<path d="M0 0 C1.32 0 2.64 0 4 0 C4 7.26 4 14.52 4 22 C2.68 22 1.36 22 0 22 C0 14.74 0 7.48 0 0 Z " fill="#44465C" transform="translate(516,449)"/>
<path d="M0 0 C0.33 0.99 0.66 1.98 1 3 C1.60328125 2.86980469 2.2065625 2.73960937 2.828125 2.60546875 C5.28555772 2.18136343 7.50600671 1.89680028 10 2 C12.99413906 4.61987168 14.41677263 7.06321527 15 11 C13.68 11 12.36 11 11 11 C10.67 9.02 10.34 7.04 10 5 C6.7 5 3.4 5 0 5 C-0.33 6.98 -0.66 8.96 -1 11 C-1.99 11 -2.98 11 -4 11 C-3.71758359 9.53984709 -3.42373386 8.08190207 -3.125 6.625 C-2.96257812 5.81289063 -2.80015625 5.00078125 -2.6328125 4.1640625 C-2 2 -2 2 0 0 Z " fill="#040725" transform="translate(479,460)"/>
<path d="M0 0 C2.7356661 0.20925804 4.0449287 0.58721079 6.5 1.9375 C8.81720603 5.99261056 8.3135704 9.99830864 8 14.5625 C7.67 14.5625 7.34 14.5625 7 14.5625 C6.01 11.2625 5.02 7.9625 4 4.5625 C1.24293584 3.69867572 1.24293584 3.69867572 -2 3.5625 C-4.86965747 5.37338845 -4.86965747 5.37338845 -7 7.5625 C-7.33 6.9025 -7.66 6.2425 -8 5.5625 C-5.79216 1.88276667 -4.29277761 0.18420501 0 0 Z " fill="#171935" transform="translate(464,448.4375)"/>
<path d="M0 0 C2.00720923 0.28674418 4.0085944 0.61866701 6 1 C5.3503125 1.37125 4.700625 1.7425 4.03125 2.125 C1.73498363 3.87084743 1.73498363 3.87084743 1.46875 6.8125 C1.4790625 7.864375 1.489375 8.91625 1.5 10 C1.4896875 11.051875 1.479375 12.10375 1.46875 13.1875 C1.73498363 16.12915257 1.73498363 16.12915257 4.03125 17.875 C5.00578125 18.431875 5.00578125 18.431875 6 19 C3.625 19.625 3.625 19.625 1 20 C-1 18 -1 18 -1.23046875 14.12109375 C-1.22647576 12.55983524 -1.21171261 10.99857586 -1.1875 9.4375 C-1.18685547 8.64408203 -1.18621094 7.85066406 -1.18554688 7.03320312 C-1.14025522 1.14025522 -1.14025522 1.14025522 0 0 Z " fill="#E4F3EA" transform="translate(477,493)"/>
<path d="M0 0 C4.34041334 -0.29426531 7.02762756 -0.4456707 11 1.375 C14.02552356 5.34599967 13.41409788 9.1780603 13 14 C12.01 14.495 12.01 14.495 11 15 C10.96261719 14.38511719 10.92523438 13.77023437 10.88671875 13.13671875 C10.78810547 11.92435547 10.78810547 11.92435547 10.6875 10.6875 C10.62949219 9.88699219 10.57148438 9.08648437 10.51171875 8.26171875 C9.90202198 5.56695213 9.20569614 4.63384899 7 3 C3.38976901 2.26958147 3.38976901 2.26958147 0 2 C0 1.34 0 0.68 0 0 Z " fill="#121533" transform="translate(498,449)"/>
<path d="M0 0 C1.66611905 -0.042721 3.33382885 -0.04063832 5 0 C6 1 6 1 6.09765625 4.16015625 C6.08605469 5.44792969 6.07445312 6.73570312 6.0625 8.0625 C6.05347656 9.35285156 6.04445313 10.64320313 6.03515625 11.97265625 C6.02355469 12.97167969 6.01195312 13.97070312 6 15 C5.67 15 5.34 15 5 15 C4.67 12.03 4.34 9.06 4 6 C2.68 6.99 1.36 7.98 0 9 C0 6.03 0 3.06 0 0 Z " fill="#0EBD50" transform="translate(499,495)"/>
<path d="M0 0 C0.99 0.33 1.98 0.66 3 1 C3.06058594 2.05960937 3.12117188 3.11921875 3.18359375 4.2109375 C3.26800127 5.59897221 3.35264917 6.98699232 3.4375 8.375 C3.47681641 9.07367188 3.51613281 9.77234375 3.55664062 10.4921875 C3.74280134 14.37360492 3.74280134 14.37360492 5 18 C4.01 18.33 3.02 18.66 2 19 C-0.52775351 15.20836973 -0.22443035 12.19125969 -0.125 7.8125 C-0.11597656 7.06291016 -0.10695313 6.31332031 -0.09765625 5.54101562 C-0.07412578 3.69387346 -0.03825561 1.84689588 0 0 Z " fill="#575B75" transform="translate(473,495)"/>
<path d="M0 0 C1.32 0.66 2.64 1.32 4 2 C4.33 1.34 4.66 0.68 5 0 C5 2.64 5 5.28 5 8 C3.35 8.33 1.7 8.66 0 9 C-0.84454356 5.62182575 -1.10844919 3.32534757 0 0 Z " fill="#0BB94B" transform="translate(510,502)"/>
<path d="M0 0 C1.37478516 0.01740234 1.37478516 0.01740234 2.77734375 0.03515625 C3.69644531 0.04417969 4.61554688 0.05320312 5.5625 0.0625 C6.27277344 0.07410156 6.98304688 0.08570313 7.71484375 0.09765625 C7.38484375 0.75765625 7.05484375 1.41765625 6.71484375 2.09765625 C5.06484375 2.09765625 3.41484375 2.09765625 1.71484375 2.09765625 C1.67746094 2.7009375 1.64007813 3.30421875 1.6015625 3.92578125 C1.53582031 4.725 1.47007812 5.52421875 1.40234375 6.34765625 C1.34433594 7.1365625 1.28632813 7.92546875 1.2265625 8.73828125 C0.62985845 11.48949687 -0.47179414 12.97801582 -2.28515625 15.09765625 C-2.47906354 12.7856847 -2.66511992 10.47305335 -2.84765625 8.16015625 C-3.00427734 6.22849609 -3.00427734 6.22849609 -3.1640625 4.2578125 C-3.20402344 3.21496094 -3.24398438 2.17210937 -3.28515625 1.09765625 C-2.28515625 0.09765625 -2.28515625 0.09765625 0 0 Z " fill="#BFEECC" transform="translate(497.28515625,493.90234375)"/>
<path d="M0 0 C2.29462457 2.73637048 3.36719236 4.55639952 3.625 8.125 C3.74572315 11.79059554 3.74572315 11.79059554 5 14 C3.35 14.33 1.7 14.66 0 15 C-1.47193312 12.05613377 -0.84936173 9.62609964 -0.5625 6.375 C-0.46066406 5.18648438 -0.35882813 3.99796875 -0.25390625 2.7734375 C-0.17011719 1.85820312 -0.08632813 0.94296875 0 0 Z " fill="#C3F0D0" transform="translate(485,497)"/>
<path d="M0 0 C1.32 0 2.64 0 4 0 C4.50615298 1.26839526 5.00469099 2.53983102 5.5 3.8125 C5.91765625 4.87404297 5.91765625 4.87404297 6.34375 5.95703125 C7 8 7 8 7 11 C6.01 10.67 5.02 10.34 4 10 C3.67 8.02 3.34 6.04 3 4 C2.01 4 1.02 4 0 4 C0 2.68 0 1.36 0 0 Z " fill="#181B38" transform="translate(482,449)"/>
<path d="M0 0 C0.66 0 1.32 0 2 0 C3.25664978 2.90600261 4 4.79604584 4 8 C2.02 8 0.04 8 -2 8 C-1.125 2.25 -1.125 2.25 0 0 Z " fill="#E2E4E5" transform="translate(483,454)"/>
<path d="M0 0 C0.99 0 1.98 0 3 0 C4.38671875 1.64453125 4.38671875 1.64453125 5.6875 3.8125 C6.12449219 4.52019531 6.56148437 5.22789062 7.01171875 5.95703125 C8 8 8 8 8 11 C4.57733173 9.85911058 4.01632563 8.84118611 2 6 C1.67 6 1.34 6 1 6 C0.67 4.02 0.34 2.04 0 0 Z " fill="#0F1436" transform="translate(525,449)"/>
<path d="M0 0 C0.33 0 0.66 0 1 0 C1.03738281 0.60328125 1.07476562 1.2065625 1.11328125 1.828125 C1.53869263 8.02346343 1.53869263 8.02346343 5 13 C5.99 13.66 6.98 14.32 8 15 C5.36 15 2.72 15 0 15 C-1.47193312 12.05613377 -0.84936173 9.62609964 -0.5625 6.375 C-0.46066406 5.18648438 -0.35882813 3.99796875 -0.25390625 2.7734375 C-0.17011719 1.85820312 -0.08632813 0.94296875 0 0 Z " fill="#C3EFD1" transform="translate(505,497)"/>
<path d="M0 0 C0 2.97 0 5.94 0 9 C-1.32 8.67 -2.64 8.34 -4 8 C-4 5.69 -4 3.38 -4 1 C-2 0 -2 0 0 0 Z " fill="#3F4050" transform="translate(459,455)"/>
<path d="M0 0 C0.33 0.66 0.66 1.32 1 2 C4.63 2 8.26 2 12 2 C12 2.33 12 2.66 12 3 C8.7 3 5.4 3 2 3 C1.67 4.98 1.34 6.96 1 9 C0.01 9 -0.98 9 -2 9 C-1.34 6.03 -0.68 3.06 0 0 Z " fill="#2A2F4A" transform="translate(477,462)"/>
<path d="M0 0 C0.99 0 1.98 0 3 0 C3.433125 0.639375 3.86625 1.27875 4.3125 1.9375 C5.91325516 4.32066633 5.91325516 4.32066633 9.1875 4.75 C10.115625 4.8325 11.04375 4.915 12 5 C11.67 5.66 11.34 6.32 11 7 C8.3125 7.3125 8.3125 7.3125 5 7 C2.125 4.625 2.125 4.625 0 2 C0 1.34 0 0.68 0 0 Z " fill="#191C37" transform="translate(456,464)"/>
<path d="M0 0 C0.66 0 1.32 0 2 0 C1.125 6.875 1.125 6.875 0 8 C-2.33297433 8.04092937 -4.66705225 8.04241723 -7 8 C-7 7.34 -7 6.68 -7 6 C-5.02 5.67 -3.04 5.34 -1 5 C-0.67 3.35 -0.34 1.7 0 0 Z " fill="#353A54" transform="translate(548,507)"/>
<path d="M0 0 C2.64 0 5.28 0 8 0 C8 2.31 8 4.62 8 7 C7.34 7 6.68 7 6 7 C6 5.35 6 3.7 6 2 C4.02 2 2.04 2 0 2 C0 1.34 0 0.68 0 0 Z " fill="#090E30" transform="translate(554,460)"/>
<path d="M0 0 C0.33 0 0.66 0 1 0 C1 1.65 1 3.3 1 5 C1.66 5 2.32 5 3 5 C2.67 5.99 2.34 6.98 2 8 C-1.47325181 9.1577506 -4.36067448 9.06866652 -8 9 C-8 8.67 -8 8.34 -8 8 C-6.02 8 -4.04 8 -2 8 C-1.34 5.36 -0.68 2.72 0 0 Z " fill="#323651" transform="translate(559,462)"/>
<path d="M0 0 C1.65 0.33 3.3 0.66 5 1 C4.38245741 2.31602523 3.75571258 3.62773556 3.125 4.9375 C2.77695312 5.66839844 2.42890625 6.39929688 2.0703125 7.15234375 C1 9 1 9 -1 10 C-0.67 6.7 -0.34 3.4 0 0 Z " fill="#0C153E" transform="translate(455,235)"/>
<path d="M0 0 C1.2065625 0.0309375 1.2065625 0.0309375 2.4375 0.0625 C1.0625 1.5625 1.0625 1.5625 -0.5625 3.0625 C-1.2225 3.0625 -1.8825 3.0625 -2.5625 3.0625 C-2.5625 6.6925 -2.5625 10.3225 -2.5625 14.0625 C-2.8925 14.0625 -3.2225 14.0625 -3.5625 14.0625 C-3.58935938 11.91673363 -3.60883088 9.77087355 -3.625 7.625 C-3.63660156 6.43003906 -3.64820313 5.23507812 -3.66015625 4.00390625 C-3.53008299 0.08609959 -3.53008299 0.08609959 0 0 Z " fill="#3DC870" transform="translate(491.5625,494.9375)"/>
<path d="M0 0 C2.31 0.33 4.62 0.66 7 1 C7.66 2.65 8.32 4.3 9 6 C6 6 6 6 3.9375 4.125 C3.298125 3.42375 2.65875 2.7225 2 2 C1.34 1.34 0.68 0.68 0 0 Z " fill="#151733" transform="translate(553,449)"/>
<path d="M0 0 C0.33 0 0.66 0 1 0 C1 2.31 1 4.62 1 7 C-0.65 7.33 -2.3 7.66 -4 8 C-4.33 7.34 -4.66 6.68 -5 6 C-3.35 5.34 -1.7 4.68 0 4 C0 2.68 0 1.36 0 0 Z " fill="#10B64C" transform="translate(484,503)"/>
<path d="M0 0 C0.66 0.66 1.32 1.32 2 2 C1.51917969 2.39832031 1.03835938 2.79664063 0.54296875 3.20703125 C-1.37391825 5.43450247 -1.47741643 6.78834669 -1.6875 9.6875 C-1.75324219 10.49574219 -1.81898438 11.30398438 -1.88671875 12.13671875 C-1.92410156 12.75160156 -1.96148437 13.36648438 -2 14 C-2.33 14 -2.66 14 -3 14 C-3.08082094 12.04233719 -3.13910778 10.08373272 -3.1875 8.125 C-3.22230469 7.03445313 -3.25710938 5.94390625 -3.29296875 4.8203125 C-3.19628906 3.88960938 -3.09960938 2.95890625 -3 2 C-2.01 1.34 -1.02 0.68 0 0 Z " fill="#12142F" transform="translate(477,491)"/>
<path d="M0 0 C0.66 3.63 1.32 7.26 2 11 C-3 4.33333333 -3 4.33333333 -3 1 C-1 0 -1 0 0 0 Z " fill="#121A45" transform="translate(414,313)"/>
<path d="M0 0 C1.32 0 2.64 0 4 0 C4.33 2.31 4.66 4.62 5 7 C4.01 6.67 3.02 6.34 2 6 C0.8125 2.9375 0.8125 2.9375 0 0 Z " fill="#070F3B" transform="translate(569,235)"/>
<path d="M0 0 C2.52588702 2.36292656 3.88820837 3.66462511 5 7 C3.68 7.33 2.36 7.66 1 8 C0.67 5.36 0.34 2.72 0 0 Z " fill="#141A43" transform="translate(609,230)"/>
<path d="M0 0 C0.66 0 1.32 0 2 0 C2.66 1.98 3.32 3.96 4 6 C2.68 6 1.36 6 0 6 C0 4.02 0 2.04 0 0 Z " fill="#3A3D53" transform="translate(490,465)"/>
<path d="M0 0 C0.66 0.33 1.32 0.66 2 1 C2 4.3 2 7.6 2 11 C1.67 11 1.34 11 1 11 C0.63890458 9.35567294 0.28629924 7.7094792 -0.0625 6.0625 C-0.25972656 5.14597656 -0.45695312 4.22945313 -0.66015625 3.28515625 C-0.77230469 2.53105469 -0.88445312 1.77695312 -1 1 C-0.67 0.67 -0.34 0.34 0 0 Z " fill="#050628" transform="translate(470,452)"/>
<path d="M0 0 C1.33332095 2.6666419 0.67102033 4.16680303 0 7 C-1.32 7.33 -2.64 7.66 -4 8 C-2.25 2.25 -2.25 2.25 0 0 Z " fill="#0A0D31" transform="translate(442,189)"/>
<path d="M0 0 C2.64 0 5.28 0 8 0 C7.0409375 0.433125 7.0409375 0.433125 6.0625 0.875 C3.84793921 1.82823451 3.84793921 1.82823451 3 4 C2.01 3.67 1.02 3.34 0 3 C0 2.01 0 1.02 0 0 Z " fill="#ECF9EE" transform="translate(505,494)"/>
<path d="M0 0 C0.33 0.99 0.66 1.98 1 3 C1.66 3.33 2.32 3.66 3 4 C2.01 5.485 2.01 5.485 1 7 C0.34 7 -0.32 7 -1 7 C-1.04254356 5.00045254 -1.04080783 2.99958364 -1 1 C-0.67 0.67 -0.34 0.34 0 0 Z " fill="#050F3C" transform="translate(442,258)"/>
<path d="M0 0 C0 2.31 0 4.62 0 7 C-2.2477975 4.94766315 -3.0022242 3.99332739 -4 1 C-2 0 -2 0 0 0 Z " fill="#0A1138" transform="translate(564,220)"/>
</svg>
