<?xml version="1.0" encoding="UTF-8"?>
<svg version="1.1" xmlns="http://www.w3.org/2000/svg" width="128" height="128">
<path d="M0 0 C3.12121362 0.07498533 6.23657685 0.0347002 9.35808086 -0.00661373 C12.3818546 -0.03428639 15.402191 0.00259188 18.42545509 0.05941582 C19.8616836 0.0805053 21.29828965 0.08407854 22.73459435 0.06904793 C27.34109024 0.04712808 31.34726084 0.30526209 35.65234375 1.99371338 C39.29807602 5.97497833 41.38828834 10.08445535 43.65234375 14.99371338 C44.59093988 16.63719225 45.54375986 18.27282473 46.5234375 19.89215088 C47.38059835 21.38336702 48.23607375 22.87555327 49.08984375 24.36871338 C52.96784574 31.12259847 56.91420658 37.82666698 61.01147461 44.45025635 C63.65234375 48.77721418 63.65234375 48.77721418 63.65234375 50.99371338 C55.07234375 50.99371338 46.49234375 50.99371338 37.65234375 50.99371338 C36.04552734 48.19580322 36.04552734 48.19580322 34.40625 45.34136963 C33.37074265 43.54077552 32.3346903 41.74049608 31.29858398 39.94024658 C30.57730936 38.68634338 29.85660415 37.43211246 29.13647461 36.17755127 C28.10288675 34.37713085 27.06727481 32.57788857 26.03125 30.77886963 C25.09647827 29.15283813 25.09647827 29.15283813 24.14282227 27.49395752 C22.87469294 25.13429667 22.87469294 25.13429667 21.65234375 23.99371338 C16.18769923 23.580315 10.72229806 23.46573532 5.24389648 23.36895752 C3.3995903 23.32731765 1.555618 23.26596645 -0.28735352 23.18438721 C-10.56142543 22.28275776 -10.56142543 22.28275776 -19.68041992 25.87310791 C-21.25928969 28.51232661 -22.28080701 31.11208316 -23.34765625 33.99371338 C-24.46367271 35.87671294 -25.62010169 37.736255 -26.8125 39.57183838 C-27.97047844 41.46220227 -29.12802835 43.35282873 -30.28515625 45.24371338 C-30.88650391 46.19761963 -31.48785156 47.15152588 -32.10742188 48.13433838 C-32.67009766 49.06246338 -33.23277344 49.99058838 -33.8125 50.94683838 C-34.32417725 51.77344971 -34.83585449 52.60006104 -35.36303711 53.45172119 C-36.64687904 56.76621715 -36.28921028 58.59084586 -35.34765625 61.99371338 C-34.15277803 64.6079111 -34.15277803 64.6079111 -32.58203125 67.11090088 C-32.02128906 68.04804932 -31.46054687 68.98519775 -30.8828125 69.95074463 C-30.29371094 70.91367432 -29.70460937 71.876604 -29.09765625 72.86871338 C-28.52402344 73.82390869 -27.95039062 74.779104 -27.359375 75.76324463 C-26.22951389 77.63948324 -25.088707 79.50918022 -23.9362793 81.37164307 C-22.92942945 83.03347914 -21.96169135 84.72018429 -21.05004883 86.43609619 C-18.6292191 90.96288079 -18.6292191 90.96288079 -14.015625 92.99371338 C-12.86707031 92.99371338 -11.71851563 92.99371338 -10.53515625 92.99371338 C-8.49328125 92.99371338 -6.45140625 92.99371338 -4.34765625 92.99371338 C-4.34765625 99.92371338 -4.34765625 106.85371338 -4.34765625 113.99371338 C-28.53436063 115.95888311 -28.53436063 115.95888311 -34.53515625 111.76715088 C-36.19887772 108.93452166 -37.44810134 106.17081094 -38.53369141 103.07281494 C-40.06729621 99.15554485 -42.37407375 95.65251861 -44.53515625 92.05621338 C-45.46330167 90.44038157 -46.38901736 88.82315208 -47.3125 87.20465088 C-49.47096651 83.46062194 -51.70349055 79.77080504 -53.9765625 76.09527588 C-54.57895752 75.11035156 -55.18135254 74.12542725 -55.80200195 73.11065674 C-56.97832368 71.191597 -58.16783945 69.28054833 -59.37182617 67.37872314 C-63.31917365 60.89639282 -63.31917365 60.89639282 -63.44921875 56.77496338 C-62.10788981 53.38834562 -60.42761893 50.36349537 -58.47265625 47.30621338 C-57.64808316 45.97650996 -56.82524707 44.64572826 -56.00390625 43.31402588 C-55.56949219 42.61309814 -55.13507812 41.91217041 -54.6875 41.19000244 C-51.95256106 36.70685544 -49.37020525 32.13330758 -46.77001953 27.57110596 C-45.88506406 26.03041806 -44.96116388 24.51177093 -44.01000977 23.01104736 C-42.60148668 20.4544404 -41.68709177 18.18036633 -40.73022461 15.44708252 C-33.38603874 -2.89397356 -16.96726572 -0.56980949 0 0 Z " fill="#061E47" transform="translate(64.34765625,6.00628662109375)"/>
<path d="M0 0 C0.9583374 0.00523682 1.9166748 0.01047363 2.90405273 0.01586914 C4.45576172 0.02070312 4.45576172 0.02070312 6.03881836 0.02563477 C7.12743164 0.03401367 8.21604492 0.04239258 9.33764648 0.05102539 C10.97636719 0.05779297 10.97636719 0.05779297 12.64819336 0.06469727 C15.35723144 0.07652713 18.06616248 0.09300996 20.77514648 0.11352539 C21.62960719 2.49700346 21.93426933 3.69235748 21.02514648 6.09863281 C20.40639648 7.14821167 20.40639648 7.14821167 19.77514648 8.21899414 C19.0728894 9.42990723 19.0728894 9.42990723 18.35644531 10.6652832 C17.57370239 11.96997559 17.57370239 11.96997559 16.77514648 13.30102539 C16.24493896 14.205625 15.71473145 15.11022461 15.16845703 16.04223633 C13.38470881 19.07453118 11.58106146 22.09438457 9.77514648 25.11352539 C8.75320857 26.83348011 7.73127665 28.55343844 6.70974731 30.27363586 C3.73097756 35.28578459 0.73944033 40.29029295 -2.26782227 45.28540039 C-2.81462646 46.19386719 -3.36143066 47.10233398 -3.92480469 48.03833008 C-5.22485352 50.11352539 -5.22485352 50.11352539 -6.22485352 51.11352539 C-8.22450334 51.20110542 -10.22721461 51.22049115 -12.22875977 51.21118164 C-13.44370117 51.20795898 -14.65864258 51.20473633 -15.91040039 51.20141602 C-17.18979492 51.19303711 -18.46918945 51.1846582 -19.78735352 51.17602539 C-21.07061523 51.17151367 -22.35387695 51.16700195 -23.67602539 51.16235352 C-26.85898772 51.15052094 -30.04192626 51.13258484 -33.22485352 51.11352539 C-33.22485352 44.18352539 -33.22485352 37.25352539 -33.22485352 30.11352539 C-28.60485352 30.11352539 -23.98485352 30.11352539 -19.22485352 30.11352539 C-18.56485352 28.13352539 -17.90485352 26.15352539 -17.22485352 24.11352539 C-16.20559416 22.22218314 -15.12817773 20.36131192 -14.00219727 18.53149414 C-13.38151367 17.51764648 -12.76083008 16.50379883 -12.12133789 15.45922852 C-11.15164062 13.89591797 -11.15164062 13.89591797 -10.16235352 12.30102539 C-9.51202148 11.23948242 -8.86168945 10.17793945 -8.19165039 9.08422852 C-2.69068877 0.1372951 -2.69068877 0.1372951 0 0 Z " fill="#059F4C" transform="translate(106.224853515625,68.886474609375)"/>
<path d="M0 0 C7.11851748 0.16434371 7.11851748 0.16434371 10.38647461 2.31591797 C11.91390336 4.69937821 12.86842694 7.01514435 13.87084961 9.65966797 C15.01763832 11.42275809 16.18440032 13.17301913 17.37084961 14.90966797 C18.96459961 17.30029297 18.96459961 17.30029297 19.87084961 19.65966797 C18.76770593 24.04302034 16.06912759 28.01093814 13.80834961 31.90966797 C13.26210937 32.86486328 13.26210937 32.86486328 12.70483398 33.83935547 C10.01159209 38.51892549 10.01159209 38.51892549 8.87084961 39.65966797 C6.17591975 40.13524383 3.59335405 40.43112194 0.87084961 40.65966797 C-0.26223633 40.78470703 -1.39532227 40.90974609 -2.56274414 41.03857422 C-11.90532079 41.66141266 -11.90532079 41.66141266 -15.15258789 39.00341797 C-16.72964645 36.63365801 -17.91469921 34.23278641 -19.12915039 31.65966797 C-20.2886401 29.90490453 -21.45523742 28.15481537 -22.62915039 26.40966797 C-24.22290039 24.01904297 -24.22290039 24.01904297 -25.12915039 21.65966797 C-24.01696198 17.05536352 -21.01971283 12.93222534 -18.56665039 8.90966797 C-18.15479492 8.22517578 -17.74293945 7.54068359 -17.31860352 6.83544922 C-12.59748699 -0.96868776 -8.80559772 0.10377582 0 0 Z M-9.75415039 15.34716797 C-11.23681061 18.91903124 -11.44037577 20.10062765 -10.12915039 23.65966797 C-9.46915039 24.97966797 -8.80915039 26.29966797 -8.12915039 27.65966797 C-4.49915039 27.65966797 -0.86915039 27.65966797 2.87084961 27.65966797 C4.19084961 25.01966797 5.51084961 22.37966797 6.87084961 19.65966797 C4.29688738 14.658854 4.29688738 14.658854 -0.32446289 11.98388672 C-4.82493456 11.72395849 -6.52474621 12.04087322 -9.75415039 15.34716797 Z " fill="#07A04F" transform="translate(69.129150390625,43.34033203125)"/>
</svg>
