<?xml version="1.0" encoding="UTF-8"?>
<svg version="1.1" xmlns="http://www.w3.org/2000/svg" width="418" height="418">
<path d="M0 0 C137.94 0 275.88 0 418 0 C418 137.94 418 275.88 418 418 C280.06 418 142.12 418 0 418 C0 280.06 0 142.12 0 0 Z " fill="#FFFFFF" transform="translate(0,0)"/>
<path d="M0 0 C1.22445394 -0.00445668 1.22445394 -0.00445668 2.47364432 -0.0090034 C5.22434753 -0.01771408 7.97500734 -0.01920063 10.72572327 -0.02069092 C12.69156996 -0.02531735 14.65741576 -0.03034177 16.6232605 -0.03573608 C21.97441217 -0.04887739 27.32555128 -0.0553082 32.67671657 -0.05974674 C36.01656117 -0.06267418 39.35640232 -0.06677831 42.69624519 -0.07125092 C53.13629451 -0.08492929 63.57633595 -0.09459475 74.0163936 -0.09845281 C86.08605112 -0.10293707 98.15559558 -0.12050062 110.22521871 -0.1494534 C119.54327788 -0.17103342 128.86130515 -0.18115508 138.17938906 -0.18249393 C143.75019041 -0.18354444 149.32088555 -0.18950447 154.89166069 -0.20731354 C160.12912387 -0.2237311 165.36640027 -0.22598061 170.60387993 -0.21717453 C172.52963255 -0.2164008 174.45539496 -0.22079074 176.38112259 -0.23063278 C179.0032496 -0.24325157 181.62470488 -0.2375309 184.24682617 -0.22705078 C185.01491307 -0.23510719 185.78299996 -0.24316359 186.57436222 -0.25146413 C191.71181376 -0.20319767 191.71181376 -0.20319767 194.08969975 1.51675797 C195.58209593 3.72525988 196.9506906 5.9589227 198.26893616 8.27716064 C199.16201477 9.83793335 199.16201477 9.83793335 200.07313538 11.43023682 C201.02663879 13.11210083 201.02663879 13.11210083 201.99940491 14.82794189 C203.0071028 16.59220196 204.01659904 18.35542574 205.02607727 20.1186676 C205.7176824 21.32707442 206.40871664 22.53580815 207.09919739 23.74485779 C210.55329884 29.7920684 214.05121954 35.81341468 217.56190491 41.82794189 C218.14754211 42.83171875 218.73317932 43.83549561 219.33656311 44.86968994 C222.76126732 50.72941482 226.22467982 56.56335103 229.73329163 62.37310791 C233.1056841 67.97213434 236.39752361 73.61734246 239.68690491 79.26544189 C240.27455627 80.27445557 240.86220764 81.28346924 241.46766663 82.32305908 C242.07368713 83.36365479 242.67970764 84.40425049 243.30409241 85.47637939 C247.10199383 91.99737809 250.90728729 98.51401143 254.72035217 105.02615356 C255.44601743 106.26553415 256.171442 107.5050557 256.8966217 108.74472046 C260.52618314 114.94768866 264.17157571 121.13935374 267.89784241 127.28497314 C268.45777893 128.20890869 269.01771545 129.13284424 269.59461975 130.08477783 C270.6239074 131.77721585 271.65778032 133.46687749 272.69715881 135.15313721 C273.37270813 136.26253662 273.37270813 136.26253662 274.06190491 137.39434814 C274.64585022 138.34289673 274.64585022 138.34289673 275.24159241 139.31060791 C276.24662389 141.25603946 276.82716336 142.98170436 277.18690491 145.14044189 C275.3245086 147.0028382 272.21554954 146.30721331 269.72694397 146.33331299 C269.05207947 146.34149048 268.37721497 146.34966797 267.68190002 146.35809326 C265.43878578 146.38299273 263.19573512 146.39947692 260.95252991 146.41387939 C259.8048476 146.42186491 259.8048476 146.42186491 258.6339798 146.43001175 C254.58229574 146.45676633 250.53064271 146.47613156 246.47889709 146.49053955 C242.29435174 146.50717064 238.11059659 146.55192768 233.92634964 146.602911 C230.70925502 146.63658491 227.4923476 146.64811721 224.27509308 146.65376663 C222.73290231 146.66048154 221.19072397 146.67571012 219.64870453 146.69965744 C217.48663312 146.73131116 215.32668665 146.73134687 213.16444397 146.72393799 C211.93502075 146.73202484 210.70559753 146.74011169 209.43891907 146.7484436 C204.26061953 145.78030053 202.14221254 142.52668162 199.26502991 138.35162354 C198.66174866 137.34478516 198.05846741 136.33794678 197.43690491 135.30059814 C196.93469925 134.46900177 196.93469925 134.46900177 196.42234802 133.62060547 C195.33676915 131.81887327 194.26174207 130.01109893 193.18690491 128.20294189 C192.42656476 126.93591985 191.66565274 125.66924081 190.90419006 124.40289307 C188.65424752 120.65516433 186.41826121 116.89925991 184.18690491 113.14044189 C183.58716858 112.13046143 182.98743225 111.12048096 182.36952209 110.07989502 C180.250306 106.50504316 178.13472348 102.9281484 176.02992249 99.3447876 C173.0697848 94.30709857 170.07722046 89.29055081 167.05018616 84.29278564 C166.34851581 83.13222865 165.64685559 81.97166554 164.94520569 80.81109619 C163.58657607 78.56684252 162.22438797 76.32473842 160.85829163 74.08502197 C160.2487262 73.0772168 159.63916077 72.06941162 159.01112366 71.03106689 C158.46544739 70.13420166 157.91977112 69.23733643 157.3575592 68.31329346 C156.18690491 66.14044189 156.18690491 66.14044189 156.18690491 64.14044189 C142.56398476 64.11714148 128.94106946 64.09943741 115.31813335 64.08862972 C108.99061053 64.08343928 102.66310146 64.07641244 96.33558655 64.06500244 C90.21473877 64.05403578 84.09390411 64.04813624 77.97304726 64.04556465 C75.65260932 64.04373499 73.33217199 64.04016292 71.01173973 64.03471184 C64.69766925 64.0204861 58.38532947 64.03416085 52.0716362 64.10847092 C50.15766477 64.12968313 48.24359627 64.14350084 46.32951736 64.14970779 C43.68387971 64.16465478 41.04191909 64.21786543 38.39710999 64.28326416 C37.62650332 64.28179603 36.85589666 64.28032789 36.06193829 64.27881527 C31.86227082 64.43213623 30.41276409 64.90865805 27.43200684 67.96760559 C25.9469289 70.33830903 24.65830692 72.53314125 23.57752991 75.10137939 C20.98469005 80.79495887 17.701578 86.00894705 14.40309143 91.31588745 C12.53993294 94.32452678 10.7072407 97.35154755 8.87440491 100.37872314 C8.30601898 101.31662941 8.30601898 101.31662941 7.72615051 102.27348328 C2.79337758 110.42561786 -2.05535868 118.62779602 -6.90855408 126.82745361 C-12.01448917 135.45333465 -17.14327552 144.06137651 -22.42979431 152.57843018 C-23.57132374 154.42444083 -24.69310676 156.28129959 -25.81309509 158.14044189 C-26.28521423 158.89599365 -26.75733337 159.65154541 -27.24375916 160.42999268 C-27.71265564 161.21229248 -28.18155212 161.99459229 -28.66465759 162.80059814 C-29.09858826 163.50966309 -29.53251892 164.21872803 -29.979599 164.94927979 C-31.07581847 167.83111041 -30.75391786 169.21786252 -29.81309509 172.14044189 C-28.83768697 174.05231797 -27.78145488 175.92391656 -26.67247009 177.76153564 C-25.6949176 179.39469727 -25.6949176 179.39469727 -24.69761658 181.06085205 C-23.98619279 182.23326593 -23.27468352 183.40562794 -22.56309509 184.57794189 C-21.83064359 185.79672253 -21.09896305 187.0159668 -20.36802673 188.23565674 C-18.88732964 190.70521633 -17.40340629 193.1727903 -15.917099 195.63897705 C-12.99449485 200.49456155 -10.12368907 205.38045843 -7.25059509 210.26544189 C-0.71735095 221.33929072 5.90278318 232.36064765 12.52870178 243.37921143 C13.98633917 245.80646097 15.4397763 248.23611995 16.89002991 250.66778564 C17.28609436 251.33108887 17.68215881 251.99439209 18.09022522 252.67779541 C19.08175371 254.33924575 20.07191081 256.00151431 21.06190491 257.66387939 C21.56077209 258.43997559 21.56077209 258.43997559 22.06971741 259.23175049 C23.18690491 261.14044189 23.18690491 261.14044189 24.42909241 263.97491455 C26.0702402 267.28431458 27.4809002 269.61093951 30.18690491 272.14044189 C35.56308354 273.48981402 40.71939388 273.14061532 46.18690491 272.76544189 C48.35011241 272.67019114 50.51348302 272.59055788 52.67738342 272.5128479 C54.64134677 272.43385085 56.60375881 272.31870817 58.56581116 272.20147705 C62.22402209 272.13981627 65.58567887 272.52575386 69.18690491 273.14044189 C69.98321062 285.76757532 70.29603409 298.36639787 70.31190491 311.01544189 C70.31565125 312.06284546 70.31565125 312.06284546 70.31947327 313.13140869 C70.32541178 315.1526402 70.32268836 317.17389134 70.31971741 319.19512939 C70.31858948 320.36543701 70.31746155 321.53574463 70.31629944 322.74151611 C70.182081 326.26715591 69.74527089 329.65883318 69.18690491 333.14044189 C65.29473894 334.05486079 61.68164799 334.26704231 57.68763733 334.26983643 C56.39246689 334.27298859 55.09729645 334.27614075 53.76287842 334.27938843 C52.35604315 334.27759785 50.9492082 334.2755467 49.54237366 334.27325439 C48.0889484 334.27392874 46.63552326 334.27489985 45.18209839 334.27615356 C42.13836084 334.2776258 39.0946527 334.27549217 36.05091858 334.27081299 C32.16755154 334.26513125 28.28425386 334.26838783 24.4008894 334.27438545 C21.39900195 334.27801692 18.39713065 334.27684038 15.39524269 334.27425766 C13.96444503 334.27359474 12.53364586 334.27439441 11.10284996 334.27673721 C-8.46746265 334.30174113 -8.46746265 334.30174113 -11.80918884 331.41778564 C-12.28485291 330.64563721 -12.76051697 329.87348877 -13.25059509 329.07794189 C-13.81778259 328.17559814 -14.38497009 327.27325439 -14.96934509 326.34356689 C-20.17567594 317.29867008 -20.17567594 317.29867008 -22.26597595 313.46636963 C-25.21240212 308.07757475 -28.42800158 302.87434422 -31.66099548 297.65338135 C-35.69185668 291.10810845 -39.51958207 284.44040169 -43.385849 277.79718018 C-47.77463947 270.26125704 -52.24429282 262.79018671 -56.83457947 255.37432861 C-59.89043097 250.37953481 -62.8262535 245.31626223 -65.76683044 240.25302124 C-72.36430505 228.90218587 -79.12433448 217.66978543 -86.042099 206.51055908 C-91.08055923 198.37082883 -95.98874076 190.16097187 -100.82969666 181.90240479 C-101.32695251 181.05412109 -101.82420837 180.2058374 -102.33653259 179.33184814 C-102.9850116 178.22111938 -102.9850116 178.22111938 -103.64659119 177.08795166 C-104.65271452 175.4082016 -105.72698072 173.76961346 -106.81309509 172.14044189 C-107.31885197 166.82354068 -106.51073403 163.76836643 -103.76231384 159.23809814 C-103.09296814 158.11669434 -102.42362244 156.99529053 -101.73399353 155.83990479 C-100.98971541 154.62746838 -100.24524371 153.41515079 -99.50059509 152.20294189 C-98.73247519 150.92708068 -97.96590431 149.65028576 -97.20079041 148.37261963 C-95.58265232 145.67482629 -93.95650151 142.98210806 -92.32432556 140.29278564 C-89.82776968 136.17359571 -87.36464293 132.03515797 -84.91075134 127.89044189 C-84.50917816 127.21223389 -84.10760498 126.53402588 -83.69386292 125.83526611 C-82.8861533 124.47089423 -82.07852564 123.10647383 -81.27098083 121.74200439 C-79.27487702 118.37233101 -77.27227744 115.00652439 -75.27012634 111.64044189 C-67.34395133 98.31014193 -59.46138637 84.95408297 -51.60411072 71.58306885 C-47.79308279 65.09991468 -43.96250983 58.62836753 -40.13267517 52.15631104 C-36.90349405 46.69389079 -33.68798103 41.22370106 -30.48497009 35.74591064 C-30.11340286 35.11075531 -29.74183563 34.47559998 -29.35900879 33.82119751 C-27.53771919 30.70766839 -25.7179086 27.59329294 -23.90074158 24.47735596 C-20.45128555 18.57054069 -16.97056022 12.68234469 -13.42637634 6.83184814 C-12.45825012 5.22805298 -12.45825012 5.22805298 -11.4705658 3.59185791 C-8.47952429 -0.83192287 -4.90461587 -0.0055169 0 0 Z " fill="#011657" transform="translate(119.81309509277344,37.85955810546875)"/>
<path d="M0 0 C1.39288795 0.00119394 2.78577672 0.00164451 4.17866516 0.00138855 C7.08604024 0.00294627 9.99329095 0.01118328 12.90063477 0.0246582 C16.62292391 0.04169455 20.34507736 0.04547074 24.06740093 0.04471302 C26.9387389 0.0449851 29.81004736 0.0504717 32.6813755 0.05771446 C34.05407297 0.06089005 35.42677377 0.06286594 36.79947472 0.06360817 C38.71618228 0.06578081 40.63287718 0.07533101 42.54956055 0.08520508 C44.18334908 0.09092278 44.18334908 0.09092278 45.85014343 0.09675598 C48.29867499 0.2126236 50.34093438 0.52165825 52.67578125 1.23046875 C52.1207168 6.04102729 49.8933647 9.67356206 47.42578125 13.73046875 C46.98468018 14.46821533 46.5435791 15.20596191 46.08911133 15.96606445 C42.03208365 22.72028115 37.86189189 29.40532602 33.69726562 36.09350586 C29.29865994 43.17482677 25.0436095 50.33296506 20.82397461 57.52197266 C16.78030952 64.39698197 12.65592244 71.22044078 8.50186157 78.02911377 C2.15208562 88.43733674 -4.1067416 98.89328458 -10.26171875 109.41796875 C-10.61860779 110.02792694 -10.97549683 110.63788513 -11.34320068 111.2663269 C-14.74341031 117.07945356 -18.13356707 122.89832039 -21.5078125 128.7265625 C-21.97131104 129.52360596 -22.43480957 130.32064941 -22.91235352 131.1418457 C-23.7359545 132.55857689 -24.55581757 133.97749182 -25.37084961 135.39916992 C-28.91551118 141.48855091 -28.91551118 141.48855091 -31.32421875 143.23046875 C-33.89441494 143.52641026 -36.22262383 143.64047196 -38.79321289 143.61865234 C-39.55121689 143.6239093 -40.30922089 143.62916626 -41.0901947 143.63458252 C-43.59679745 143.64779134 -46.10276575 143.6390425 -48.609375 143.62890625 C-50.34907656 143.63092653 -52.0887773 143.63383758 -53.82847595 143.63760376 C-57.47435571 143.64202812 -61.120015 143.63559174 -64.76586914 143.62158203 C-69.44595128 143.60447729 -74.12551781 143.61433863 -78.80558109 143.63229942 C-82.39745492 143.64312346 -85.98920583 143.63969752 -89.5810833 143.63191605 C-91.30711363 143.62991087 -93.03315502 143.63238441 -94.75917244 143.63935471 C-97.16795689 143.64694808 -99.57589776 143.63539617 -101.98461914 143.61865234 C-103.06080002 143.62776138 -103.06080002 143.62776138 -104.15872192 143.63705444 C-106.14271545 143.61141968 -106.14271545 143.61141968 -109.32421875 143.23046875 C-111.56916603 139.86304783 -111.57660613 138.73609732 -111.58300781 134.796875 C-111.58931213 133.68562256 -111.59561646 132.57437012 -111.60211182 131.42944336 C-111.59806335 130.22940674 -111.59401489 129.02937012 -111.58984375 127.79296875 C-111.5917572 126.5613501 -111.59367065 125.32973145 -111.59564209 124.06079102 C-111.59735309 120.78707856 -111.58929595 117.51355546 -111.578125 114.23986816 C-111.57422259 112.23244176 -111.57811094 110.22519022 -111.58496094 108.21777344 C-111.59729162 104.36775554 -111.59582518 100.51799733 -111.58984375 96.66796875 C-111.59389221 95.46793213 -111.59794067 94.26789551 -111.60211182 93.03149414 C-111.5958075 91.9202417 -111.58950317 90.80898926 -111.58300781 89.6640625 C-111.58141663 88.68493896 -111.57982544 87.70581543 -111.57818604 86.69702148 C-111.32421875 84.23046875 -111.32421875 84.23046875 -109.32421875 81.23046875 C-106.29324579 81.19002255 -103.44440855 81.31880572 -100.43359375 81.5625 C-81.54954257 83.41281834 -81.54954257 83.41281834 -64.11474609 78.08251953 C-59.29890912 72.55506063 -56.76184545 66.07811777 -54.40380859 59.20556641 C-52.95092974 55.20177137 -50.8966028 51.83854423 -48.57421875 48.29296875 C-47.8608155 47.12156223 -47.15241803 45.94709152 -46.44921875 44.76953125 C-45.92908203 43.90569824 -45.92908203 43.90569824 -45.3984375 43.02441406 C-43.8537404 40.44476991 -42.32768135 37.85436726 -40.80493164 35.26171875 C-39.98656292 33.86946916 -39.16544759 32.47883028 -38.34155273 31.08984375 C-35.84529286 26.87108306 -33.42279125 22.61986616 -31.046875 18.33203125 C-30.48129883 17.33051025 -29.91572266 16.32898926 -29.33300781 15.29711914 C-28.22210264 13.32969136 -27.12825987 11.35250802 -26.05371094 9.36499023 C-25.54098633 8.46594971 -25.02826172 7.56690918 -24.5 6.640625 C-23.8335144 5.43611694 -23.8335144 5.43611694 -23.15356445 4.20727539 C-17.61382036 -1.77901954 -7.44700619 -0.04220753 0 0 Z " fill="#01D14F" transform="translate(344.32421875,228.76953125)"/>
<path d="M0 0 C0.65389709 -0.01474869 1.30779419 -0.02949738 1.98150635 -0.04469299 C4.14943891 -0.08927911 6.31710181 -0.11745874 8.48535156 -0.1418457 C9.22624275 -0.15124491 9.96713394 -0.16064411 10.73047638 -0.17032814 C14.65362481 -0.21792493 18.57663897 -0.25159563 22.5 -0.27539062 C26.54740691 -0.30307786 30.59210274 -0.38221311 34.63851547 -0.47293377 C37.75445411 -0.53283267 40.8697514 -0.55266479 43.98621368 -0.56189919 C45.47747626 -0.57346688 46.96870369 -0.60027815 48.45940399 -0.64282799 C60.09254923 -0.95513439 60.09254923 -0.95513439 63.79560852 2.24461365 C65.36474572 4.55726675 66.52006529 6.80774664 67.62597656 9.36987305 C68.51289185 10.82478149 68.51289185 10.82478149 69.41772461 12.30908203 C70.14536011 13.57473999 70.14536011 13.57473999 70.88769531 14.8659668 C71.44424805 15.82857422 72.00080078 16.79118164 72.57421875 17.78295898 C73.14817383 18.78101563 73.72212891 19.77907227 74.31347656 20.80737305 C79.18181129 29.2210407 84.12880892 37.5739276 89.24975586 45.83642578 C89.87684448 46.85071655 89.87684448 46.85071655 90.51660156 47.88549805 C91.05849121 48.75609863 91.05849121 48.75609863 91.61132812 49.64428711 C92.1135791 50.49845215 92.1135791 50.49845215 92.62597656 51.36987305 C93.21717285 52.2820459 93.21717285 52.2820459 93.8203125 53.21264648 C94.98358648 56.32740068 94.49584293 58.17366547 93.62597656 61.36987305 C92.40722324 63.78333698 91.16712588 66.02827402 89.75878906 68.32299805 C89.17228325 69.30395699 89.17228325 69.30395699 88.57392883 70.30473328 C87.30880538 72.41547057 86.03034058 74.51774247 84.75097656 76.61987305 C83.88054522 78.06418158 83.01083662 79.50892592 82.1418457 80.95410156 C80.42904968 83.79872659 78.71062519 86.63981879 76.98681641 89.4777832 C74.97412749 92.79188127 72.9782598 96.11570998 70.98925781 99.4440918 C70.01467985 101.06559592 69.03948976 102.68673241 68.06347656 104.30737305 C67.62986816 105.03279297 67.19625977 105.75821289 66.74951172 106.50561523 C63.85812724 111.25379771 63.85812724 111.25379771 61.62597656 112.36987305 C49.05579482 114.05769531 36.23440493 113.54560655 23.58642578 113.41137695 C20.98654755 113.38413128 18.38659951 113.36278008 15.78662109 113.34790039 C12.21117735 113.32020561 8.63820692 113.25730323 5.06347656 113.18237305 C3.98243652 113.1767334 2.90139648 113.17109375 1.78759766 113.1652832 C-5.58116566 112.95109561 -5.58116566 112.95109561 -9.37402344 110.1706543 C-11.34173617 107.41508783 -13.15234042 104.69718432 -14.81152344 101.74487305 C-15.41480469 100.67881836 -16.01808594 99.61276367 -16.63964844 98.5144043 C-18.60826107 94.94518546 -20.55697045 91.36586481 -22.49511719 87.7800293 C-25.15678329 82.94918833 -27.88927346 78.15963279 -30.62402344 73.36987305 C-31.42199341 71.97007202 -31.42199341 71.97007202 -32.23608398 70.54199219 C-32.74051025 69.66019287 -33.24493652 68.77839355 -33.76464844 67.86987305 C-34.2187207 67.07581055 -34.67279297 66.28174805 -35.140625 65.46362305 C-36.16139414 63.73082096 -37.25845904 62.04321964 -38.37402344 60.36987305 C-38.81252716 55.88150145 -38.1373438 53.21417411 -35.88183594 49.3503418 C-35.3463916 48.41875244 -34.81094727 47.48716309 -34.25927734 46.52734375 C-33.67839355 45.54725342 -33.09750977 44.56716309 -32.49902344 43.55737305 C-31.90911621 42.53925537 -31.31920898 41.5211377 -30.71142578 40.47216797 C-28.9449815 37.43043592 -27.16142937 34.39932298 -25.37402344 31.36987305 C-24.42541681 29.74788053 -23.47743765 28.12552078 -22.53027344 26.50268555 C-20.8958549 23.70831728 -19.25264959 20.91946795 -17.60058594 18.13549805 C-16.14163946 15.67580744 -14.69845864 13.20818623 -13.27246094 10.72924805 C-12.33273438 9.09729492 -12.33273438 9.09729492 -11.37402344 7.43237305 C-10.83777344 6.49522461 -10.30152344 5.55807617 -9.74902344 4.5925293 C-6.9507629 0.06920473 -5.16371462 0.09889728 0 0 Z " fill="#02D151" transform="translate(185.3740234375,150.630126953125)"/>
<path d="M0 0 C1.97709961 -0.00483398 1.97709961 -0.00483398 3.99414062 -0.00976562 C5.30060547 -0.07099609 6.60707031 -0.13222656 7.953125 -0.1953125 C17.32315476 -0.26676672 17.32315476 -0.26676672 21.00146484 2.9675293 C22.82003557 5.53947997 24.26962899 8.11487839 25.68164062 10.92773438 C26.49160048 12.20039667 27.31300268 13.465918 28.15039062 14.72070312 C28.82070312 15.84089844 29.49101562 16.96109375 30.18164062 18.11523438 C30.71917969 18.96118164 30.71917969 18.96118164 31.26757812 19.82421875 C33.01152868 22.78149925 33.68096264 24.83089549 33.70507812 28.27539062 C32.37769441 33.01242792 30.26112627 36.93627193 27.80664062 41.17773438 C27.13568359 42.38042969 27.13568359 42.38042969 26.45117188 43.60742188 C22.21677296 51.07695153 22.21677296 51.07695153 19.68164062 52.92773438 C15.36170008 53.65513638 11.02294395 53.69740804 6.65014648 53.75830078 C4.51424382 53.80232006 2.39059628 53.92092144 0.2578125 54.04101562 C-9.67809475 54.34589254 -9.67809475 54.34589254 -13.9453125 50.65649414 C-16.01901094 47.83933534 -17.69923481 45.02519006 -19.31835938 41.92773438 C-20.10584276 40.68772069 -20.89881201 39.45114315 -21.70117188 38.22070312 C-22.27609375 37.19589844 -22.85101563 36.17109375 -23.44335938 35.11523438 C-24.0440625 34.07753906 -24.64476562 33.03984375 -25.26367188 31.97070312 C-26.63794748 28.00566352 -26.09690847 26.7001306 -24.31835938 22.92773438 C-22.77987571 20.01864718 -21.1344898 17.18789376 -19.44335938 14.36523438 C-19.00894531 13.62337891 -18.57453125 12.88152344 -18.12695312 12.1171875 C-16.88751274 10.02726024 -15.65592931 7.95650392 -14.31835938 5.92773438 C-13.74045654 5.03763672 -13.16255371 4.14753906 -12.56713867 3.23046875 C-8.87420503 -0.55106964 -5.06088379 0.11613451 0 0 Z " fill="#FFFFFF" transform="translate(209.318359375,179.072265625)"/>
<path d="M0 0 C0.33 0 0.66 0 1 0 C1.52428389 5.97683631 1.02142334 8.75556307 -2.7734375 13.3984375 C-4.18985598 15.07818597 -4.18985598 15.07818597 -5 17.8125 C-6 20 -6 20 -7.98510742 21.13818359 C-12.13915381 22.32563065 -15.94649244 22.13952877 -20.23828125 21.9765625 C-21.41022034 21.94405396 -21.41022034 21.94405396 -22.60583496 21.91088867 C-25.5084161 21.82725378 -28.41043781 21.72503559 -31.3125 21.625 C-37.809375 21.41875 -44.30625 21.2125 -51 21 C-51 40.14 -51 59.28 -51 79 C-25.59 79 -0.18 79 26 79 C26 79.33 26 79.66 26 80 C15.86464856 80.06941159 5.72935336 80.12276615 -4.40618706 80.15543652 C-9.11218517 80.17111411 -13.81802105 80.19239036 -18.52392578 80.22631836 C-23.0626498 80.25883745 -27.60121748 80.27683723 -32.14004898 80.28463173 C-33.87447701 80.29018868 -35.60889617 80.30103963 -37.3432579 80.31719017 C-39.76662658 80.33886587 -42.18934347 80.34197113 -44.61279297 80.34057617 C-45.69604355 80.35675491 -45.69604355 80.35675491 -46.80117798 80.3732605 C-48.79830933 80.36076355 -48.79830933 80.36076355 -52 80 C-54.24494728 76.63257908 -54.25238738 75.50562857 -54.25878906 71.56640625 C-54.26509338 70.45515381 -54.27139771 69.34390137 -54.27789307 68.19897461 C-54.2738446 66.99893799 -54.26979614 65.79890137 -54.265625 64.5625 C-54.26753845 63.33088135 -54.2694519 62.0992627 -54.27142334 60.83032227 C-54.27313434 57.55660981 -54.2650772 54.28308671 -54.25390625 51.00939941 C-54.25000384 49.00197301 -54.25389219 46.99472147 -54.26074219 44.98730469 C-54.27307287 41.13728679 -54.27160643 37.28752858 -54.265625 33.4375 C-54.26967346 32.23746338 -54.27372192 31.03742676 -54.27789307 29.80102539 C-54.27158875 28.68977295 -54.26528442 27.57852051 -54.25878906 26.43359375 C-54.25719788 25.45447021 -54.25560669 24.47534668 -54.25396729 23.46655273 C-54 21 -54 21 -52 18 C-48.92422897 17.87254458 -46.0317463 17.92199664 -42.96875 18.0859375 C-41.1068724 18.13191924 -39.24488028 18.17343936 -37.3828125 18.2109375 C-34.44645992 18.28045435 -31.52116722 18.37376448 -28.58886719 18.54492188 C-19.11082988 19.17084374 -19.11082988 19.17084374 -10 17 C-4.99384778 12.41242561 -2.56272535 6.15070448 0 0 Z " fill="#16C35E" transform="translate(287,292)"/>
<path d="M0 0 C3 1 3 1 4.1875 3.0625 C4.455625 3.701875 4.72375 4.34125 5 5 C5.66 5 6.32 5 7 5 C7.66 7.64 8.32 10.28 9 13 C9.99 13 10.98 13 12 13 C15 18.625 15 18.625 15 22 C15.66 22 16.32 22 17 22 C19.84450614 25.71973879 20.3227506 28.37390802 20 33 C20.8971875 33.0928125 20.8971875 33.0928125 21.8125 33.1875 C24.92266847 34.34270543 25.60417708 36.06877187 27 39 C27 39.99 27 40.98 27 42 C52.08 42 77.16 42 103 42 C103.33 40.35 103.66 38.7 104 37 C104.33 37 104.66 37 105 37 C105 39.31 105 41.62 105 44 C101.10783403 44.9144189 97.49474308 45.12660042 93.50073242 45.12939453 C91.55797676 45.13412277 91.55797676 45.13412277 89.57597351 45.13894653 C88.16913824 45.13715596 86.76230329 45.13510481 85.35546875 45.1328125 C83.9020435 45.13348684 82.44861835 45.13445796 80.99519348 45.13571167 C77.95145594 45.1371839 74.90774779 45.13505027 71.86401367 45.13037109 C67.98064663 45.12468935 64.09734896 45.12794594 60.21398449 45.13394356 C57.21209704 45.13757503 54.21022575 45.13639849 51.20833778 45.13381577 C49.77754012 45.13315284 48.34674095 45.13395251 46.91594505 45.13629532 C27.34563245 45.16129923 27.34563245 45.16129923 24.00390625 42.27734375 C23.52824219 41.50519531 23.05257812 40.73304688 22.5625 39.9375 C21.71171875 38.58398438 21.71171875 38.58398438 20.84375 37.203125 C17.94953029 32.17503144 15.08439038 27.13417947 12.28125 22.0546875 C9.57191914 17.18113944 6.61868472 12.47465737 3.62890625 7.76953125 C2.13281925 5.22582458 1.00701891 2.76803691 0 0 Z " fill="#0A0D35" transform="translate(84,327)"/>
<path d="M0 0 C1.25 1.5625 1.25 1.5625 2 4 C0.35594862 7.40988435 -1.38630263 10.20446637 -3.6875 13.1875 C-5.09422653 15.13012235 -5.58153409 16.65659088 -6 19 C-6.66 19 -7.32 19 -8 19 C-8.33 19.99 -8.66 20.98 -9 22 C-9.66 22 -10.32 22 -11 22 C-11.061875 23.19625 -11.12375 24.3925 -11.1875 25.625 C-11.75849009 30.44858795 -13.78728165 32.46600981 -17 36 C-18.3669171 38.91608981 -18.02978563 39.8957503 -17.125 43.0625 C-16.75375 44.031875 -16.3825 45.00125 -16 46 C-15.67 46.99 -15.34 47.98 -15 49 C-14.38125 49.268125 -13.7625 49.53625 -13.125 49.8125 C-10.02257237 51.54620956 -9.49499499 53.78001079 -8 57 C-6.43005085 59.59505734 -4.82617077 62.16584629 -3.20703125 64.73046875 C-2 67 -2 67 -2 70 C-1.34 70 -0.68 70 0 70 C0 70.99 0 71.98 0 73 C0.66 73 1.32 73 2 73 C2.43699219 73.81791016 2.43699219 73.81791016 2.8828125 74.65234375 C5.56962987 79.59507382 8.47634486 84.27369978 11.6484375 88.91796875 C13.32717119 91.50399493 14.62265266 94.24530533 16 97 C16.99 97.495 16.99 97.495 18 98 C18.8515625 100.1796875 18.8515625 100.1796875 19.625 102.875 C19.88539062 103.75929688 20.14578125 104.64359375 20.4140625 105.5546875 C21 108 21 108 21 111 C18.06335657 107.47497285 15.61105537 103.87678437 13.26953125 99.93359375 C12.92146423 99.3502124 12.57339722 98.76683105 12.21478271 98.16577148 C11.46653902 96.91086098 10.71995359 95.6549605 9.97488403 94.39816284 C7.98536905 91.04232863 5.98384548 87.69365845 3.984375 84.34375 C3.36949974 83.31235146 3.36949974 83.31235146 2.74220276 82.26011658 C-1.61152286 74.96189211 -6.02052622 67.69756385 -10.4375 60.4375 C-11.15976233 59.24992652 -11.88201203 58.06234535 -12.60424805 56.87475586 C-13.86393141 54.80354425 -15.12396369 52.73254477 -16.38452148 50.66186523 C-16.91762939 49.78344971 -17.4507373 48.90503418 -18 48 C-18.56468994 47.204729 -19.12937988 46.40945801 -19.71118164 45.59008789 C-21.44162605 42.11248139 -21.43834025 39.85031412 -21 36 C-19.90095806 33.54382409 -18.82895046 31.47540277 -17.421875 29.21875 C-16.8701059 28.29298157 -16.8701059 28.29298157 -16.30718994 27.34851074 C-15.1356424 25.39004931 -13.94354091 23.44511908 -12.75 21.5 C-11.96342017 20.19486733 -11.17825039 18.88888374 -10.39453125 17.58203125 C-8.9433093 15.16447448 -7.48298493 12.75289482 -6.01464844 10.34570312 C-3.95493711 6.92516459 -1.96839512 3.47363844 0 0 Z " fill="#070C2D" transform="translate(34,167)"/>
<path d="M0 0 C1.0859697 0.00212242 1.0859697 0.00212242 2.19387817 0.00428772 C4.48606657 0.0098455 6.77815407 0.02238992 9.0703125 0.03515625 C10.63281108 0.04017672 12.19531121 0.04473866 13.7578125 0.04882812 C17.57035085 0.05980106 21.38281462 0.07703615 25.1953125 0.09765625 C25.1953125 0.75765625 25.1953125 1.41765625 25.1953125 2.09765625 C21.97628165 3.70717168 18.44692418 3.34000373 14.90625 3.4140625 C14.08782623 3.4348436 13.26940247 3.45562469 12.42617798 3.47703552 C9.80764284 3.54250437 7.18900611 3.60140351 4.5703125 3.66015625 C2.79686443 3.70334401 1.02342669 3.74695839 -0.75 3.79101562 C-5.10145796 3.89818301 -9.45301827 3.99945794 -13.8046875 4.09765625 C-13.8046875 5.41765625 -13.8046875 6.73765625 -13.8046875 8.09765625 C-13.1446875 8.42765625 -12.4846875 8.75765625 -11.8046875 9.09765625 C-12.4440625 9.32453125 -13.0834375 9.55140625 -13.7421875 9.78515625 C-14.4228125 10.21828125 -15.1034375 10.65140625 -15.8046875 11.09765625 C-15.94390625 11.87238281 -16.083125 12.64710938 -16.2265625 13.4453125 C-16.90473103 16.55663976 -17.89356209 17.61926933 -20.1171875 19.84765625 C-23.41234899 23.38491123 -25.18039982 26.67725661 -26.78515625 31.21484375 C-27.8046875 33.09765625 -27.8046875 33.09765625 -29.890625 34.078125 C-30.52226562 34.41457031 -31.15390625 34.75101562 -31.8046875 35.09765625 C-32.31942266 37.19359599 -32.31942266 37.19359599 -32.2421875 39.53515625 C-32.3984375 41.96484375 -32.3984375 41.96484375 -32.8046875 44.09765625 C-35.24991723 46.16669679 -36.59559869 47.09765625 -39.8046875 47.09765625 C-39.8046875 48.08765625 -39.8046875 49.07765625 -39.8046875 50.09765625 C-41.2896875 50.59265625 -41.2896875 50.59265625 -42.8046875 51.09765625 C-41.34338102 47.09013394 -39.41861919 43.66153402 -37.1796875 40.03515625 C-33.93359782 34.72852355 -30.79678696 29.3649902 -27.72265625 23.95703125 C-27.18702057 23.01513695 -27.18702057 23.01513695 -26.64056396 22.05421448 C-25.18449206 19.49140309 -23.72986644 16.92780915 -22.28118896 14.36080933 C-21.25129242 12.53590855 -20.21765809 10.71316637 -19.18359375 8.890625 C-18.5810376 7.82352295 -17.97848145 6.7564209 -17.35766602 5.65698242 C-15.8046875 3.09765625 -15.8046875 3.09765625 -13.8046875 1.09765625 C-9.21802947 0.02126502 -4.68609401 -0.03500857 0 0 Z " fill="#1DC35B" transform="translate(337.8046875,228.90234375)"/>
<path d="M0 0 C0.74985336 0.0023747 1.49970671 0.00474941 2.2722829 0.00719607 C4.79208995 0.01763667 7.31154915 0.04251631 9.83125305 0.06729126 C11.6346235 0.07771433 13.43799926 0.08725013 15.24137878 0.09596252 C20.14402737 0.12217316 25.04650893 0.16083871 29.94905448 0.20168638 C35.06996535 0.24225325 40.19094054 0.27144088 45.31192017 0.30181885 C55.01231977 0.36109989 64.71261751 0.43066265 74.41292077 0.50388968 C85.45505214 0.58674769 96.49724804 0.65818889 107.53946435 0.72865558 C130.25702075 0.87388588 152.97445794 1.03350403 175.69184875 1.20254517 C175.69184875 1.53254517 175.69184875 1.86254517 175.69184875 2.20254517 C174.77909337 2.20493352 173.86633799 2.20732187 172.92592335 2.2097826 C150.7258582 2.26889525 128.52590195 2.34442136 106.32595539 2.43826008 C95.59026381 2.483243 84.85460558 2.52265192 74.11885071 2.54898071 C64.7625566 2.57194056 55.40636784 2.60531603 46.05015725 2.65124673 C41.09521331 2.6752061 36.14037388 2.69391709 31.18537331 2.70015907 C26.52240809 2.70619764 21.85971038 2.72615299 17.1968441 2.75682068 C15.48481477 2.76562062 13.7727505 2.76931945 12.06069946 2.76755333 C9.72371935 2.7659036 7.38755763 2.78257331 5.0506897 2.80381775 C3.08865333 2.8107312 3.08865333 2.8107312 1.08697987 2.81778431 C-3.60715711 3.34975792 -6.15805733 4.94462995 -9.30815125 8.39004517 C-11.8037941 11.89954292 -14.07839238 15.5197877 -16.30815125 19.20254517 C-17.29815125 18.87254517 -18.28815125 18.54254517 -19.30815125 18.20254517 C-17.87929821 15.57249701 -16.44064841 12.94870282 -14.99565125 10.32754517 C-14.59153015 9.58117798 -14.18740906 8.83481079 -13.77104187 8.06582642 C-13.37465515 7.35039673 -12.97826843 6.63496704 -12.56987 5.89785767 C-12.20852966 5.2380188 -11.84718933 4.57817993 -11.47489929 3.89834595 C-8.4798485 -0.4547871 -4.73620832 -0.0654339 0 0 Z " fill="#040641" transform="translate(119.30815124511719,37.797454833984375)"/>
<path d="M0 0 C0.33 0 0.66 0 1 0 C1 3.3 1 6.6 1 10 C-0.98 10.99 -0.98 10.99 -3 12 C-3.64997907 14.36817866 -3.64997907 14.36817866 -4 17 C-5.12109375 19.421875 -5.12109375 19.421875 -6.4375 21.75 C-6.86933594 22.52859375 -7.30117187 23.3071875 -7.74609375 24.109375 C-9 26 -9 26 -11 27 C-12.63010494 29.86898469 -13.89474646 32.28076748 -14.375 35.5625 C-15.10887936 38.42462949 -16.39724449 39.40595938 -18.53125 41.34765625 C-22.71327177 46.05243074 -25.21563645 52.39168479 -28 58 C-29 57 -29 57 -29.21826172 54.2512207 C-28.982368 50.73735421 -28.26735526 48.99468044 -26.5078125 45.98046875 C-25.70452515 44.58296387 -25.70452515 44.58296387 -24.88500977 43.15722656 C-24.01380493 41.68721191 -24.01380493 41.68721191 -23.125 40.1875 C-22.53581787 39.17010742 -21.94663574 38.15271484 -21.33959961 37.10449219 C-19.57316122 34.06156247 -17.78931829 31.02952021 -16 28 C-15.04011142 26.36603411 -14.08045371 24.73193257 -13.12109375 23.09765625 C-11.86403572 20.95943898 -10.60533987 18.82229015 -9.34082031 16.68847656 C-6.09113006 11.19836706 -2.9935876 5.6342726 0 0 Z " fill="#18974A" transform="translate(176,154)"/>
<path d="M0 0 C0.33 0 0.66 0 1 0 C1.33 1.65 1.66 3.3 2 5 C2.33 5 2.66 5 3 5 C3 22.49 3 39.98 3 58 C28.41 58 53.82 58 80 58 C80 58.33 80 58.66 80 59 C69.86464856 59.06941159 59.72935336 59.12276615 49.59381294 59.15543652 C44.88781483 59.17111411 40.18197895 59.19239036 35.47607422 59.22631836 C30.9373502 59.25883745 26.39878252 59.27683723 21.85995102 59.28463173 C20.12552299 59.29018868 18.39110383 59.30103963 16.6567421 59.31719017 C14.23337342 59.33886587 11.81065653 59.34197113 9.38720703 59.34057617 C8.30395645 59.35675491 8.30395645 59.35675491 7.19882202 59.3732605 C5.20169067 59.36076355 5.20169067 59.36076355 2 59 C-0.25779693 55.6133046 -0.24486783 54.48309149 -0.22705078 50.51879883 C-0.22689972 49.39786331 -0.22674866 48.2769278 -0.22659302 47.12202454 C-0.21627045 45.91257675 -0.20594788 44.70312897 -0.1953125 43.45703125 C-0.1924826 42.21829758 -0.18965271 40.9795639 -0.18673706 39.70329285 C-0.17743186 36.41361913 -0.15946791 33.12414137 -0.1373291 29.83453369 C-0.1168527 26.47630206 -0.10773152 23.11804172 -0.09765625 19.75976562 C-0.07558271 13.17310027 -0.04209522 6.58656617 0 0 Z " fill="#075C24" transform="translate(233,313)"/>
<path d="M0 0 C5.30197654 2.65098827 8.22001239 9.4766087 11.125 14.4375 C11.56714844 15.17548828 12.00929687 15.91347656 12.46484375 16.67382812 C14.84333151 20.71582016 16.60142706 24.50081724 18 29 C18.70125 30.051875 19.4025 31.10375 20.125 32.1875 C22 35 22 35 22 38 C23.485 38.495 23.485 38.495 25 39 C25.9140625 40.9609375 25.9140625 40.9609375 26.625 43.375 C26.86476562 44.16648438 27.10453125 44.95796875 27.3515625 45.7734375 C27.56554687 46.50820313 27.77953125 47.24296875 28 48 C28.33 48.99 28.66 49.98 29 51 C24.84199892 49.61399964 23.76242522 46.74493297 21.6875 43.125 C21.08494385 42.09681152 21.08494385 42.09681152 20.47021484 41.04785156 C17.80230478 36.47031337 15.23745679 31.84217726 12.75 27.1640625 C11.27611702 24.49922944 9.75076385 21.8860576 8.1875 19.2734375 C7.68460449 18.4268457 7.18170898 17.58025391 6.66357422 16.70800781 C5.65328841 15.01190755 4.63432951 13.32093759 3.60595703 11.63574219 C3.14044434 10.85102539 2.67493164 10.06630859 2.1953125 9.2578125 C1.77266113 8.5580127 1.35000977 7.85821289 0.91455078 7.13720703 C-0.16183477 4.62180951 -0.16637742 2.70881384 0 0 Z " fill="#128839" transform="translate(150,211)"/>
<path d="M0 0 C33.33 0 66.66 0 101 0 C101 0.33 101 0.66 101 1 C95.06 1.33 89.12 1.66 83 2 C83 2.33 83 2.66 83 3 C73.37665489 3.02323754 63.75331954 3.04097305 54.12995243 3.05181217 C49.66076219 3.05701612 45.19159125 3.06406828 40.72241211 3.07543945 C36.40412139 3.08635713 32.08584916 3.09229556 27.7675457 3.09487724 C26.12544909 3.09671555 24.48335341 3.10030514 22.84126472 3.10573006 C14.83544117 3.131111 6.94362916 3.14728077 -1 2 C-0.67 1.34 -0.34 0.68 0 0 Z " fill="#000327" transform="translate(175,99)"/>
<path d="M0 0 C0.495 0.99 0.495 0.99 1 2 C2.32 1.67 3.64 1.34 5 1 C4.34 2.65 3.68 4.3 3 6 C-23.07 6 -49.14 6 -76 6 C-76 5.34 -76 4.68 -76 4 C-50.92 4 -25.84 4 0 4 C0 2.68 0 1.36 0 0 Z " fill="#14C250" transform="translate(312,365)"/>
<path d="M0 0 C0 0.66 0 1.32 0 2 C-7.69158297 5.84579149 -19.72015081 4.15589612 -28.125 4.125 C-29.41293457 4.12306641 -30.70086914 4.12113281 -32.02783203 4.11914062 C-44.69716701 4.06329441 -57.34595397 3.60796337 -70 3 C-70 2.67 -70 2.34 -70 2 C-65.91840547 1.24023678 -62.02383082 0.85666511 -57.87451172 0.79467773 C-56.09268997 0.7647599 -56.09268997 0.7647599 -54.27487183 0.73423767 C-52.37150558 0.70916893 -52.37150558 0.70916893 -50.4296875 0.68359375 C-49.11590118 0.66281265 -47.80211487 0.64203156 -46.44851685 0.62062073 C-42.96821125 0.56566093 -39.48784864 0.51615957 -36.00744629 0.46777344 C-32.46715054 0.41751336 -28.92694149 0.36176413 -25.38671875 0.30664062 C-5.46221528 0 -5.46221528 0 0 0 Z " fill="#0E8E3D" transform="translate(249,260)"/>
<path d="M0 0 C2.7951355 -0.39440918 2.7951355 -0.39440918 6.40576172 -0.41992188 C7.0628714 -0.42839142 7.71998108 -0.43686096 8.39700317 -0.44558716 C10.57476019 -0.46903426 12.75181367 -0.46997743 14.9296875 -0.46875 C16.44182622 -0.47584812 17.95396223 -0.48354661 19.46609497 -0.49182129 C22.63876831 -0.50528458 25.81119277 -0.50682722 28.98388672 -0.50097656 C33.04866765 -0.49508528 37.11225213 -0.52563771 41.17680168 -0.56609344 C44.3012637 -0.59195544 47.42543731 -0.59484918 50.54999161 -0.59120178 C52.04832079 -0.59289517 53.54666299 -0.60255887 55.04488754 -0.62034607 C57.14255218 -0.64250425 59.23779233 -0.63285422 61.33544922 -0.61523438 C63.12509598 -0.61831604 63.12509598 -0.61831604 64.95089722 -0.62145996 C68 0 68 0 70.41653442 2.41345215 C72 5 72 5 72 7 C67.30455545 6.36548047 67.30455545 6.36548047 65.73197937 4.47831726 C63.12169412 2.25032898 60.98682638 2.64007528 57.60083008 2.65942383 C56.63456947 2.65876671 56.63456947 2.65876671 55.64878845 2.65809631 C53.52205979 2.66018441 51.39612198 2.68351487 49.26953125 2.70703125 C47.79408702 2.71262717 46.31863722 2.71689729 44.84318542 2.71989441 C40.96160466 2.73134363 37.08036117 2.76081113 33.19891357 2.79400635 C29.23747317 2.82470576 25.27597822 2.83839945 21.31445312 2.85351562 C13.54281506 2.88568106 5.77145481 2.93687795 -2 3 C-1.34 2.01 -0.68 1.02 0 0 Z " fill="#1CAE5B" transform="translate(179,151)"/>
<path d="M0 0 C0.99 0 1.98 0 3 0 C3.433125 1.134375 3.86625 2.26875 4.3125 3.4375 C5.1478125 5.2009375 5.1478125 5.2009375 6 7 C6.99 7.33 7.98 7.66 9 8 C14.3187411 14.17292864 16.81141551 19.63608466 16.34375 27.78515625 C16 30 16 30 15 32 C13.515 32.495 13.515 32.495 12 33 C10.82861866 36.43315137 10.82861866 36.43315137 10 40 C9.67 40.66 9.34 41.32 9 42 C6.4375 42.625 6.4375 42.625 4 43 C4.58910156 41.92621094 5.17820313 40.85242188 5.78515625 39.74609375 C6.54522821 38.31040227 7.30428974 36.87417554 8.0625 35.4375 C8.45244141 34.73302734 8.84238281 34.02855469 9.24414062 33.30273438 C11.76397992 28.46375095 12.63448324 25.43420442 11 20 C9.5176483 16.96038015 7.79803138 14.11186662 6 11.25 C5.08100747 9.75663714 4.16424284 8.26190035 3.25 6.765625 C2.63898438 5.78770996 2.63898438 5.78770996 2.015625 4.79003906 C1 3 1 3 0 0 Z " fill="#1AA64D" transform="translate(230,182)"/>
<path d="M0 0 C1.4282618 0.00031703 2.85654759 0.01163717 4.28466797 0.03173828 C5.41242142 0.03598312 5.41242142 0.03598312 6.56295776 0.04031372 C8.96775125 0.05152204 11.37217428 0.07662726 13.77685547 0.10205078 C15.40575635 0.11207976 17.03466305 0.12120576 18.66357422 0.12939453 C22.65981103 0.15146343 26.65577041 0.18599728 30.65185547 0.22705078 C31.14685547 2.20705078 31.14685547 2.20705078 31.65185547 4.22705078 C30.66185547 4.55705078 29.67185547 4.88705078 28.65185547 5.22705078 C28.15685547 4.73205078 28.15685547 4.73205078 27.65185547 4.22705078 C23.63274059 3.79251206 19.61064836 3.65639049 15.57080078 3.54736328 C14.21798575 3.50082593 12.86572484 3.43276145 11.51513672 3.34228516 C7.03002549 3.04709611 2.99532337 3.0112427 -1.34814453 4.22705078 C-4.62026232 7.51368785 -6.4011923 11.06144184 -8.34814453 15.22705078 C-9.00814453 15.88705078 -9.66814453 16.54705078 -10.34814453 17.22705078 C-9.72283677 13.636366 -8.76633024 10.42109136 -7.41064453 7.03955078 C-7.07162109 6.17974609 -6.73259766 5.31994141 -6.38330078 4.43408203 C-4.71778952 0.88308632 -3.98845958 0.27047305 0 0 Z " fill="#0D9038" transform="translate(200.34814453125,176.77294921875)"/>
<path d="M0 0 C3.3 0 6.6 0 10 0 C10.33 1.32 10.66 2.64 11 4 C12.32 4 13.64 4 15 4 C15.433125 5.051875 15.86625 6.10375 16.3125 7.1875 C17.31565232 9.54729641 18.35943495 11.59905825 19.6875 13.8125 C21 16 21 16 21 18 C21.66 18 22.32 18 23 18 C23 19.98 23 21.96 23 24 C24.65 24 26.3 24 28 24 C28.103125 24.721875 28.20625 25.44375 28.3125 26.1875 C28.84648513 29.04141623 28.84648513 29.04141623 30.5 31.3125 C32.51361172 34.920221 32.65235155 37.89774826 33 42 C30.0510145 38.48837911 27.72074427 34.9455538 25.5 30.9375 C21.46243388 23.71049555 17.18884652 16.6345985 12.86132812 9.57788086 C12.36052734 8.75296143 11.85972656 7.92804199 11.34375 7.078125 C10.66602539 5.97065918 10.66602539 5.97065918 9.97460938 4.84082031 C9 3 9 3 9 1 C6.03 1 3.06 1 0 1 C0 0.67 0 0.34 0 0 Z " fill="#060B2C" transform="translate(267,101)"/>
<path d="M0 0 C3.24998112 -0.02909763 6.49992857 -0.04683161 9.75 -0.0625 C10.67039062 -0.07087891 11.59078125 -0.07925781 12.5390625 -0.08789062 C13.42851562 -0.09111328 14.31796875 -0.09433594 15.234375 -0.09765625 C16.05131836 -0.10289307 16.86826172 -0.10812988 17.70996094 -0.11352539 C19.93968135 -0.00299021 21.86133755 0.37944433 24 1 C23.48215943 6.28408749 20.7375009 10.30041927 18.0625 14.75 C17.60681641 15.52988281 17.15113281 16.30976563 16.68164062 17.11328125 C13.26376971 22.86811514 13.26376971 22.86811514 11 24 C11.75 16.375 11.75 16.375 14 13 C14.66 13 15.32 13 16 13 C16.33 11.35 16.66 9.7 17 8 C17.99 7.67 18.98 7.34 20 7 C20 6.01 20 5.02 20 4 C13.73 3.67 7.46 3.34 1 3 C0.67 2.01 0.34 1.02 0 0 Z " fill="#1ABB62" transform="translate(373,229)"/>
<path d="M0 0 C1.25 1.5625 1.25 1.5625 2 4 C0.35594862 7.40988435 -1.38630263 10.20446637 -3.6875 13.1875 C-5.09422653 15.13012235 -5.58153409 16.65659088 -6 19 C-6.66 19 -7.32 19 -8 19 C-8.33 19.99 -8.66 20.98 -9 22 C-9.66 22 -10.32 22 -11 22 C-11.061875 23.19625 -11.12375 24.3925 -11.1875 25.625 C-11.74537611 30.28490632 -13.89067803 32.51149242 -17 36 C-18.32350658 39.21265916 -18.32350658 39.21265916 -19 42 C-19.33 42 -19.66 42 -20 42 C-21.3182604 33.42067624 -16.62083744 27.40693394 -12.25 20.4375 C-11.51137742 19.23342846 -10.77438385 18.02835604 -10.0390625 16.82226562 C-8.6435287 14.53666046 -7.23966759 12.2570353 -5.83007812 9.97998047 C-3.8106067 6.69160424 -1.88015078 3.36942811 0 0 Z " fill="#0F133C" transform="translate(34,167)"/>
<path d="M0 0 C0.66 0.66 1.32 1.32 2 2 C1.58008025 5.28818518 0.11666404 8.16048017 -1.3125 11.125 C-1.72113281 11.99382812 -2.12976563 12.86265625 -2.55078125 13.7578125 C-4 16 -4 16 -6.140625 17.02734375 C-6.75421875 17.34832031 -7.3678125 17.66929687 -8 18 C-8.51473516 20.09593974 -8.51473516 20.09593974 -8.4375 22.4375 C-8.59375 24.8671875 -8.59375 24.8671875 -9 27 C-11.44522973 29.06904054 -12.79091119 30 -16 30 C-16 30.99 -16 31.98 -16 33 C-17.485 33.495 -17.485 33.495 -19 34 C-17.4562454 29.7018622 -15.25968837 25.93339356 -12.875 22.0625 C-8.44559359 14.78425626 -4.19366386 7.41604317 0 0 Z " fill="#14A24E" transform="translate(314,246)"/>
<path d="M0 0 C2.34878719 2.15925969 3.82574831 4.2473791 5.3125 7.0625 C7.21639857 10.57605827 9.16117463 14.05524688 11.1875 17.5 C11.67605469 18.3353125 12.16460937 19.170625 12.66796875 20.03125 C13.85449259 22.13149274 13.85449259 22.13149274 16 23 C16.8515625 25.1796875 16.8515625 25.1796875 17.625 27.875 C18.01558594 29.20144531 18.01558594 29.20144531 18.4140625 30.5546875 C19 33 19 33 19 36 C15.05777435 31.4118193 12.03833122 26.35808851 8.9375 21.1875 C8.40833984 20.32318359 7.87917969 19.45886719 7.33398438 18.56835938 C0 6.37572538 0 6.37572538 0 0 Z " fill="#0C123A" transform="translate(36,242)"/>
<path d="M0 0 C0.33 0 0.66 0 1 0 C0.125 7.875 0.125 7.875 -1 9 C-3.65456193 9.10095564 -6.28255176 9.13970998 -8.9375 9.1328125 C-10.13040649 9.13424759 -10.13040649 9.13424759 -11.34741211 9.13571167 C-13.0320646 9.13639343 -14.71671971 9.13453943 -16.40136719 9.13037109 C-18.98899197 9.12502275 -21.57644316 9.13031619 -24.1640625 9.13671875 C-25.79687539 9.13605797 -27.42968816 9.1347768 -29.0625 9.1328125 C-29.84165771 9.13483673 -30.62081543 9.13686096 -31.42358398 9.13894653 C-36.88504895 9.11495105 -36.88504895 9.11495105 -38 8 C-38.04063832 6.33382885 -38.042721 4.66611905 -38 3 C-37.64800537 3.48460693 -37.29601074 3.96921387 -36.93334961 4.46850586 C-32.92025725 7.64745881 -26.71366408 6.55758913 -21.7487793 6.5559082 C-19.57226527 6.56247056 -17.40031566 6.61694209 -15.22460938 6.67382812 C-13.83855724 6.68263109 -12.45248347 6.68858471 -11.06640625 6.69140625 C-9.1783728 6.70989624 -9.1783728 6.70989624 -7.25219727 6.72875977 C-3.71389453 6.2968387 -3.71389453 6.2968387 -1.62084961 2.95678711 C-1.08596924 1.98104736 -0.55108887 1.00530762 0 0 Z " fill="#25BA6A" transform="translate(233,225)"/>
<path d="M0 0 C0.5625 1.9375 0.5625 1.9375 1 4 C-0.54230977 5.54230977 -2.0040971 5.16247487 -4.15258789 5.20532227 C-5.03342545 5.22526749 -5.914263 5.24521271 -6.8217926 5.26576233 C-7.77907761 5.28247482 -8.73636261 5.29918732 -9.72265625 5.31640625 C-11.18547279 5.3475779 -11.18547279 5.3475779 -12.67784119 5.37937927 C-15.8059863 5.44498412 -18.93421822 5.50381028 -22.0625 5.5625 C-24.1777435 5.60567483 -26.29297809 5.64928877 -28.40820312 5.69335938 C-33.60537587 5.80067655 -38.80263577 5.9024222 -44 6 C-43.67 5.01 -43.34 4.02 -43 3 C-29.14 2.67 -15.28 2.34 -1 2 C-0.67 1.34 -0.34 0.68 0 0 Z " fill="#15A352" transform="translate(278,307)"/>
<path d="M0 0 C4.96064749 2.48032375 7.60633314 8.50233484 10.25 13.1875 C10.61351562 13.81591797 10.97703125 14.44433594 11.3515625 15.09179688 C14 19.74647556 14 19.74647556 14 22 C11.80078125 21.984375 11.80078125 21.984375 9 21 C7.01476093 18.62666329 5.63038526 15.97731723 4.1875 13.25 C3.78080078 12.53328125 3.37410156 11.8165625 2.95507812 11.078125 C0.88159991 7.28662198 -0.58638353 4.44601244 0 0 Z " fill="#138E3F" transform="translate(150,211)"/>
<path d="M0 0 C1.28117706 0.00007553 2.56235413 0.00015106 3.88235474 0.00022888 C5.28599079 0.00533591 6.68962645 0.01055191 8.09326172 0.01586914 C9.52529857 0.01773394 10.95733606 0.01915755 12.38937378 0.02015686 C16.16068276 0.0239772 19.93195329 0.03380337 23.70324707 0.04486084 C27.55069458 0.05508534 31.39814829 0.05965671 35.24560547 0.06469727 C42.79640425 0.07542606 50.34717135 0.0924967 57.89794922 0.11352539 C57.89794922 0.44352539 57.89794922 0.77352539 57.89794922 1.11352539 C56.82466118 1.12232475 56.82466118 1.12232475 55.72969055 1.13130188 C48.97632496 1.18928003 42.22327386 1.26138575 35.47022724 1.3492403 C31.99864856 1.39390912 28.52718627 1.43317246 25.05541992 1.45996094 C21.06122362 1.49101994 17.06765553 1.54580727 13.07373047 1.60180664 C11.8308577 1.60819656 10.58798492 1.61458649 9.30744934 1.62117004 C8.14662338 1.6409642 6.98579742 1.66075836 5.78979492 1.68115234 C4.26090385 1.69780693 4.26090385 1.69780693 2.7011261 1.71479797 C-0.55255548 2.17760575 -2.45917238 3.18884064 -5.10205078 5.11352539 C-5.43205078 5.77352539 -5.76205078 6.43352539 -6.10205078 7.11352539 C-6.76205078 7.11352539 -7.42205078 7.11352539 -8.10205078 7.11352539 C-8.10205078 5.13352539 -8.10205078 3.15352539 -8.10205078 1.11352539 C-5.33354255 -0.27072872 -3.09785894 -0.00607423 0 0 Z " fill="#0FCD61" transform="translate(185.10205078125,152.886474609375)"/>
<path d="M0 0 C7.92 0 15.84 0 24 0 C20.62682026 3.37317974 20.62682026 3.37317974 16.65625 3.4765625 C15.82222656 3.5075 14.98820313 3.5384375 14.12890625 3.5703125 C12.82759766 3.59738281 12.82759766 3.59738281 11.5 3.625 C9.78113902 3.67608056 8.06237655 3.73062388 6.34375 3.7890625 C5.58255859 3.80662598 4.82136719 3.82418945 4.03710938 3.84228516 C1.79758536 3.93299627 1.79758536 3.93299627 -1 5 C-0.67 3.35 -0.34 1.7 0 0 Z " fill="#060E39" transform="translate(148,99)"/>
<path d="M0 0 C2.64 0 5.28 0 8 0 C7.2575 0.556875 6.515 1.11375 5.75 1.6875 C0.64104477 5.9836669 -2.57905632 11.34983482 -6 17 C-6.99 16.67 -7.98 16.34 -9 16 C-6.03 10.72 -3.06 5.44 0 0 Z " fill="#09134A" transform="translate(109,40)"/>
<path d="M0 0 C1 3 1 3 0.35083008 4.74584961 C-0.00599854 5.37499268 -0.36282715 6.00413574 -0.73046875 6.65234375 C-1.12169922 7.34650391 -1.51292969 8.04066406 -1.91601562 8.75585938 C-2.54540039 9.83577148 -2.54540039 9.83577148 -3.1875 10.9375 C-3.58775391 11.65357422 -3.98800781 12.36964844 -4.40039062 13.10742188 C-6.57215246 16.90536518 -8.67884761 20.07585893 -12 23 C-11.25 15.375 -11.25 15.375 -9 12 C-8.34 12 -7.68 12 -7 12 C-6.67 10.35 -6.34 8.7 -6 7 C-5.01 6.67 -4.02 6.34 -3 6 C-1.29144978 2.99992729 -1.29144978 2.99992729 0 0 Z " fill="#0D823E" transform="translate(396,230)"/>
<path d="M0 0 C0.66 0.33 1.32 0.66 2 1 C1.34 3.31 0.68 5.62 0 8 C-0.66 8 -1.32 8 -2 8 C-2.268125 8.70125 -2.53625 9.4025 -2.8125 10.125 C-4.08508854 13.20600383 -5.30188401 16.12626524 -7 19 C-9.1875 19.875 -9.1875 19.875 -11 20 C-9.36047417 15.3606824 -6.93128948 11.36144142 -4.375 7.1875 C-3.95476562 6.49462891 -3.53453125 5.80175781 -3.1015625 5.08789062 C-2.0710533 3.38989252 -1.03598319 1.69466386 0 0 Z " fill="#0B113B" transform="translate(70,107)"/>
<path d="M0 0 C0.66 0.33 1.32 0.66 2 1 C2.5 3.5 2.5 3.5 3 6 C3.66 6.33 4.32 6.66 5 7 C5 8.32 5 9.64 5 11 C5.99 11 6.98 11 8 11 C8.66 12.98 9.32 14.96 10 17 C10.66 17 11.32 17 12 17 C12 18.98 12 20.96 12 23 C7.84305126 19.38695109 5.44371602 14.97183361 2.75 10.25 C2.29109375 9.45722656 1.8321875 8.66445312 1.359375 7.84765625 C0.23394254 5.90159595 -0.88561584 3.95240104 -2 2 C-1.34 1.34 -0.68 0.68 0 0 Z " fill="#060B2C" transform="translate(312,159)"/>
<path d="M0 0 C4.15694874 3.61304891 6.55628398 8.02816639 9.25 12.75 C9.70890625 13.54277344 10.1678125 14.33554688 10.640625 15.15234375 C11.76605746 17.09840405 12.88561584 19.04759896 14 21 C13.34 21.66 12.68 22.32 12 23 C11.34 21.35 10.68 19.7 10 18 C9.34 18 8.68 18 8 18 C7.608125 17.195625 7.21625 16.39125 6.8125 15.5625 C4.98994295 11.98023269 3.01843625 8.51821412 0.98828125 5.05078125 C0 3 0 3 0 0 Z " fill="#080E43" transform="translate(336,80)"/>
<path d="M0 0 C0.33 0 0.66 0 1 0 C1 3.3 1 6.6 1 10 C-0.98 10.99 -0.98 10.99 -3 12 C-3.38218767 13.65614657 -3.71395102 15.32457024 -4 17 C-5.5625 18.8125 -5.5625 18.8125 -7 20 C-5.58679547 12.46290916 -4.06336591 6.50138546 0 0 Z " fill="#0FC95C" transform="translate(176,154)"/>
<path d="M0 0 C2.90786226 3.67011741 5.28136133 7.61860643 7.6875 11.625 C8.10322266 12.305625 8.51894531 12.98625 8.94726562 13.6875 C12 18.76035252 12 18.76035252 12 21 C10.1315918 20.70458984 10.1315918 20.70458984 8 20 C6.42123534 17.54544568 5.09980108 15.22375414 3.8125 12.625 C3.45736328 11.93921875 3.10222656 11.2534375 2.73632812 10.546875 C1.29391239 7.73320635 0.00100756 5.00302268 -1 2 C-0.67 1.34 -0.34 0.68 0 0 Z " fill="#0B1141" transform="translate(350,102)"/>
<path d="M0 0 C5.22085242 5.82325847 8.55802756 13.03410339 12 20 C10.68 20.33 9.36 20.66 8 21 C5.70986347 17.5647952 5.82157027 16.014669 6 12 C5.34 12 4.68 12 4 12 C4 10.68 4 9.36 4 8 C3.01 8 2.02 8 1 8 C0.67 5.36 0.34 2.72 0 0 Z " fill="#119F50" transform="translate(183,208)"/>
<path d="M0 0 C0.33 0.66 0.66 1.32 1 2 C1.66 2.33 2.32 2.66 3 3 C2.67 3.66 2.34 4.32 2 5 C1.34 5 0.68 5 0 5 C-0.09152344 5.72574219 -0.18304688 6.45148438 -0.27734375 7.19921875 C-1.12037703 10.46654231 -2.43162457 12.2167063 -4.5625 14.8125 C-5.20316406 15.60269531 -5.84382813 16.39289063 -6.50390625 17.20703125 C-6.99761719 17.79871094 -7.49132812 18.39039062 -8 19 C-8.66 18.67 -9.32 18.34 -10 18 C-6.7 12.06 -3.4 6.12 0 0 Z " fill="#0D113D" transform="translate(93,67)"/>
<path d="M0 0 C0.66 0 1.32 0 2 0 C1.37240135 2.92879371 0.41377341 5.36095629 -1 8 C-1.66 8 -2.32 8 -3 8 C-3.15855469 8.62648438 -3.31710938 9.25296875 -3.48046875 9.8984375 C-3.71378906 10.71570313 -3.94710937 11.53296875 -4.1875 12.375 C-4.40792969 13.18710938 -4.62835938 13.99921875 -4.85546875 14.8359375 C-6 17 -6 17 -8.61328125 18.2890625 C-9.40089844 18.52367188 -10.18851562 18.75828125 -11 19 C-8.17505054 13.71899482 -5.33737002 8.44582865 -2.25 3.3125 C-1.86328125 2.66925781 -1.4765625 2.02601562 -1.078125 1.36328125 C-0.72234375 0.91339844 -0.3665625 0.46351562 0 0 Z " fill="#0C113C" transform="translate(82,87)"/>
<path d="M0 0 C1.140625 1.6875 1.140625 1.6875 2 4 C1.171875 6.4375 1.171875 6.4375 -0.25 9 C-0.70890625 9.845625 -1.1678125 10.69125 -1.640625 11.5625 C-2.08921875 12.366875 -2.5378125 13.17125 -3 14 C-3.67384466 15.32972012 -4.34326474 16.66174702 -5 18 C-6 17 -6 17 -6.25 14.3046875 C-5.96227772 10.50135855 -4.91611073 8.39835583 -3 5.125 C-2.443125 4.15820312 -1.88625 3.19140625 -1.3125 2.1953125 C-0.879375 1.47085938 -0.44625 0.74640625 0 0 Z " fill="#159442" transform="translate(153,194)"/>
<path d="M0 0 C0.66 0.33 1.32 0.66 2 1 C2 1.66 2 2.32 2 3 C2.66 3 3.32 3 4 3 C4 3.66 4 4.32 4 5 C4.99 5.33 5.98 5.66 7 6 C7.33 8.31 7.66 10.62 8 13 C7.01 13.33 6.02 13.66 5 14 C1.535 8.06 1.535 8.06 -2 2 C-1.34 1.34 -0.68 0.68 0 0 Z " fill="#0C1239" transform="translate(66,293)"/>
<path d="M0 0 C2.91844227 0.33062963 3.83593552 0.80091052 5.73828125 3.109375 C6.51751953 4.41648437 6.51751953 4.41648437 7.3125 5.75 C8.11107422 7.04164063 8.11107422 7.04164063 8.92578125 8.359375 C10.16960483 11.4169195 9.95576819 12.89235607 9 16 C6.72861652 13.06698229 4.73130058 10.04931207 2.8125 6.875 C2.28269531 6.00617188 1.75289062 5.13734375 1.20703125 4.2421875 C0 2 0 2 0 0 Z " fill="#0B1536" transform="translate(55,278)"/>
<path d="M0 0 C5.06883365 6.45124283 5.06883365 6.45124283 4.875 10.8125 C3.80165147 14.72255537 2.13372004 17.55851606 0 21 C-1.06663156 17.80010533 -0.95708631 17.08719982 -0.0625 14 C0.66778658 11.44641514 1 9.70291635 1 7 C0.67 6.67 0.34 6.34 0 6 C-0.04080783 4.00041636 -0.04254356 1.99954746 0 0 Z " fill="#0E8D41" transform="translate(275,198)"/>
<path d="M0 0 C2.96655321 3.55854831 5.45858103 7.1982268 7.8125 11.1875 C8.43769531 12.23292969 9.06289063 13.27835938 9.70703125 14.35546875 C10.13371094 15.22816406 10.56039063 16.10085937 11 17 C10.67 17.66 10.34 18.32 10 19 C6.79782751 16.86521834 5.72714741 15.37204971 4 12 C4 11.01 4 10.02 4 9 C3.01 8.67 2.02 8.34 1 8 C-0.35439668 5.29120665 -0.06501451 2.99066732 0 0 Z " fill="#0C1344" transform="translate(362,123)"/>
<path d="M0 0 C0.33 0 0.66 0 1 0 C1.61172472 7.21835174 1.61172472 7.21835174 -1.25 10.875 C-3.50515319 12.61761838 -5.45655832 13.79349562 -8 15 C-7.04416032 13.06126858 -6.08523808 11.1240567 -5.125 9.1875 C-4.32449219 7.56908203 -4.32449219 7.56908203 -3.5078125 5.91796875 C-2 3 -2 3 0 0 Z " fill="#12AB53" transform="translate(287,292)"/>
<path d="M0 0 C1.40167793 2.80335585 0.96536981 4.0349356 0 7 C-2.5625 9.8125 -2.5625 9.8125 -5 12 C-5.66 11.67 -6.32 11.34 -7 11 C-6.44649229 7.67895374 -5.85908781 4.83755508 -4 2 C-1.875 0.75 -1.875 0.75 0 0 Z " fill="#12AF57" transform="translate(161,185)"/>
<path d="M0 0 C0.33 0 0.66 0 1 0 C1.42515028 5.11698731 0.37283083 7.66835485 -2.5 11.875 C-3.1496875 12.84179688 -3.799375 13.80859375 -4.46875 14.8046875 C-4.9740625 15.52914062 -5.479375 16.25359375 -6 17 C-6.66 16.01 -7.32 15.02 -8 14 C-7.043419 12.22821947 -6.08467012 10.45760924 -5.125 8.6875 C-4.59132812 7.70136719 -4.05765625 6.71523437 -3.5078125 5.69921875 C-2 3 -2 3 0 0 Z " fill="#0D113F" transform="translate(58,127)"/>
<path d="M0 0 C1.32 0 2.64 0 4 0 C5.01034498 1.74404788 6.00792422 3.49549561 7 5.25 C7.556875 6.22453125 8.11375 7.1990625 8.6875 8.203125 C10 11 10 11 10 15 C9.34 15 8.68 15 8 15 C6.66407203 12.6889639 5.33115569 10.37628245 4 8.0625 C3.6184375 7.40314453 3.236875 6.74378906 2.84375 6.06445312 C0 1.11328125 0 1.11328125 0 0 Z " fill="#070A31" transform="translate(300,143)"/>
<path d="M0 0 C0.33 0.66 0.66 1.32 1 2 C2.32 1.67 3.64 1.34 5 1 C4.34 2.65 3.68 4.3 3 6 C-5.91 5.67 -14.82 5.34 -24 5 C-24 4.67 -24 4.34 -24 4 C-16.08 4 -8.16 4 0 4 C0 2.68 0 1.36 0 0 Z " fill="#01BC41" transform="translate(312,365)"/>
<path d="M0 0 C3.28834617 2.79042625 5.12735689 6.47328176 7.1875 10.1875 C7.55552734 10.84169922 7.92355469 11.49589844 8.30273438 12.16992188 C9.2062466 13.77746961 10.1037241 15.38840651 11 17 C10.34 17.66 9.68 18.32 9 19 C7 16 7 16 7 12 C6.38125 11.7525 5.7625 11.505 5.125 11.25 C2.53952416 9.72913186 2.01094421 8.79953781 1 6 C0.61709538 4.00889599 0.27395385 2.00899487 0 0 Z " fill="#0B1244" transform="translate(313,40)"/>
<path d="M0 0 C1.5 1.375 1.5 1.375 3 3 C3 3.66 3 4.32 3 5 C3.66 5 4.32 5 5 5 C5 6.98 5 8.96 5 11 C5.99 11 6.98 11 8 11 C8 11.66 8 12.32 8 13 C6.203125 12.81640625 6.203125 12.81640625 4 12 C2.296875 9.71484375 2.296875 9.71484375 0.75 6.9375 C-0.03117187 5.55884766 -0.03117187 5.55884766 -0.828125 4.15234375 C-1.21484375 3.44207031 -1.6015625 2.73179687 -2 2 C-1.34 1.34 -0.68 0.68 0 0 Z " fill="#0C1132" transform="translate(78,313)"/>
<path d="M0 0 C3.10000819 1.06478542 3.97462191 1.95797481 5.703125 4.8203125 C6.21359375 5.91085938 6.7240625 7.00140625 7.25 8.125 C8.03117187 9.76855469 8.03117187 9.76855469 8.828125 11.4453125 C9.40820312 12.70988281 9.40820312 12.70988281 10 14 C9.34 14.66 8.68 15.32 8 16 C7.03810003 14.27281484 6.08063492 12.54315942 5.125 10.8125 C4.59132813 9.84957031 4.05765625 8.88664062 3.5078125 7.89453125 C2.1576322 5.30260482 1.02901671 2.73238902 0 0 Z " fill="#060F42" transform="translate(110,248)"/>
<path d="M0 0 C3 1 3 1 4.1875 3.0625 C4.455625 3.701875 4.72375 4.34125 5 5 C5.66 5 6.32 5 7 5 C7.48828125 7.01822917 7.9765625 9.03645833 8.46484375 11.0546875 C8.94846992 13.0585657 8.94846992 13.0585657 10 15 C7 14 7 14 5.17578125 10.83984375 C4.54446852 9.54399131 3.92374601 8.24293771 3.3125 6.9375 C2.99216797 6.27427734 2.67183594 5.61105469 2.34179688 4.92773438 C1.5521402 3.28949142 0.77487638 1.64528546 0 0 Z " fill="#0A0B29" transform="translate(84,327)"/>
<path d="M0 0 C0.66 0.33 1.32 0.66 2 1 C-2.455 8.425 -2.455 8.425 -7 16 C-7.33 15.34 -7.66 14.68 -8 14 C-7.35191436 12.65753688 -6.68177416 11.32567199 -6 10 C-5.855625 9.154375 -5.71125 8.30875 -5.5625 7.4375 C-4.921262 4.658802 -4.14599631 3.8026369 -2 2 C-1.34 1.34 -0.68 0.68 0 0 Z " fill="#097837" transform="translate(272,219)"/>
<path d="M0 0 C0.33 1.32 0.66 2.64 1 4 C0.01 4.495 0.01 4.495 -1 5 C-0.67 3.35 -0.34 1.7 0 0 Z M-5 5 C-3.68 5.33 -2.36 5.66 -1 6 C-2.00911458 7.72526042 -3.01822917 9.45052083 -4.02734375 11.17578125 C-5.13901247 13.13819555 -5.13901247 13.13819555 -6 16 C-6.33 16 -6.66 16 -7 16 C-7.25 8.375 -7.25 8.375 -5 5 Z " fill="#091045" transform="translate(21,193)"/>
<path d="M0 0 C3.9429464 1.46596725 5.01834588 3.37308275 6.75 7.125 C7.17796875 8.03507813 7.6059375 8.94515625 8.046875 9.8828125 C8.51867187 10.93082031 8.51867187 10.93082031 9 12 C6 12 6 12 4.41796875 10.79296875 C2.76017165 8.69674597 2.08876647 6.86308984 1.3125 4.3125 C1.06113281 3.50425781 0.80976563 2.69601563 0.55078125 1.86328125 C0.36902344 1.24839844 0.18726563 0.63351563 0 0 Z " fill="#040E3E" transform="translate(384,163)"/>
<path d="M0 0 C0.88336837 2.4667645 1.1312406 3.63859372 0.22265625 6.140625 C-0.16019531 6.83671875 -0.54304688 7.5328125 -0.9375 8.25 C-1.31777344 8.95640625 -1.69804688 9.6628125 -2.08984375 10.390625 C-2.39019531 10.92171875 -2.69054688 11.4528125 -3 12 C-3.66 12 -4.32 12 -5 12 C-5 13.32 -5 14.64 -5 16 C-5.99 15.67 -6.98 15.34 -8 15 C-2.81321185 4.44191344 -2.81321185 4.44191344 0 0 Z " fill="#0F123C" transform="translate(49,142)"/>
<path d="M0 0 C0.66 0.33 1.32 0.66 2 1 C-0.64 5.62 -3.28 10.24 -6 15 C-7.13643966 11.59068103 -6.86747764 10.99664544 -5.5625 7.8125 C-5.27503906 7.09707031 -4.98757813 6.38164062 -4.69140625 5.64453125 C-4.46324219 5.10183594 -4.23507812 4.55914062 -4 4 C-3.34 4 -2.68 4 -2 4 C-2 3.01 -2 2.02 -2 1 C-1.34 0.67 -0.68 0.34 0 0 Z " fill="#0A7637" transform="translate(368,277)"/>
<path d="M0 0 C0 0.66 0 1.32 0 2 C-3.00313748 3.50156874 -5.79067522 3.09281204 -9.125 3.0625 C-10.40632813 3.05347656 -11.68765625 3.04445312 -13.0078125 3.03515625 C-14.48894531 3.01775391 -14.48894531 3.01775391 -16 3 C-16 2.67 -16 2.34 -16 2 C-10.42932723 0.40837921 -5.78898419 -0.20674944 0 0 Z " fill="#0CB266" transform="translate(363,229)"/>
<path d="M0 0 C3.22269618 3.79817765 5.74520378 7.57391854 8 12 C7.67 12.66 7.34 13.32 7 14 C4.5 12.3125 4.5 12.3125 2 10 C1.6875 7.25 1.6875 7.25 2 5 C1.34 5 0.68 5 0 5 C0 3.35 0 1.7 0 0 Z " fill="#0FA248" transform="translate(251,158)"/>
<path d="M0 0 C0.33 0 0.66 0 1 0 C1 1.98 1 3.96 1 6 C0.34 6 -0.32 6 -1 6 C-1 7.32 -1 8.64 -1 10 C-1.99 10 -2.98 10 -4 10 C-4 10.99 -4 11.98 -4 13 C-4.99 13.33 -5.98 13.66 -7 14 C-5.23570801 9.02790438 -2.6060834 4.56561939 0 0 Z " fill="#148742" transform="translate(322,232)"/>
<path d="M0 0 C0.33 0.66 0.66 1.32 1 2 C-4.01608525 3.0176403 -8.78608306 3.11856434 -13.875 3.0625 C-14.65875 3.05798828 -15.4425 3.05347656 -16.25 3.04882812 C-18.16670014 3.03714093 -20.08336048 3.01920908 -22 3 C-22 2.67 -22 2.34 -22 2 C-21.01257813 1.93941406 -20.02515625 1.87882813 -19.0078125 1.81640625 C-17.72648437 1.73261719 -16.44515625 1.64882812 -15.125 1.5625 C-13.84882813 1.48128906 -12.57265625 1.40007812 -11.2578125 1.31640625 C-7.23496311 0.92569786 -4.17677991 -0.09079956 0 0 Z " fill="#0BCD60" transform="translate(369,230)"/>
<path d="M0 0 C0.66 0.33 1.32 0.66 2 1 C-0.31 5.29 -2.62 9.58 -5 14 C-5.95904856 10.16380575 -5.91892116 8.67568464 -5 5 C-3.68 4.67 -2.36 4.34 -1 4 C-0.67 2.68 -0.34 1.36 0 0 Z " fill="#0C7F37" transform="translate(188,194)"/>
<path d="M0 0 C0.99 0 1.98 0 3 0 C3.391875 0.969375 3.78375 1.93875 4.1875 2.9375 C5.84004525 6.84932208 7.92964794 10.44288923 10.109375 14.08203125 C10.40328125 14.71496094 10.6971875 15.34789062 11 16 C10.67 16.66 10.34 17.32 10 18 C8.32605999 15.37957157 6.6621165 12.75294095 5 10.125 C4.52304688 9.37863281 4.04609375 8.63226563 3.5546875 7.86328125 C3.10351562 7.14785156 2.65234375 6.43242187 2.1875 5.6953125 C1.76855469 5.03547363 1.34960938 4.37563477 0.91796875 3.69580078 C0 2 0 2 0 0 Z " fill="#155B2A" transform="translate(230,182)"/>
<path d="M0 0 C1.32 0.33 2.64 0.66 4 1 C2.8782037 2.7936743 1.75245517 4.5848773 0.625 6.375 C-0.00148437 7.37273437 -0.62796875 8.37046875 -1.2734375 9.3984375 C-3 12 -3 12 -5 14 C-4.23510329 8.95168169 -2.27247598 4.54495196 0 0 Z " fill="#0D7732" transform="translate(195,180)"/>
<path d="M0 0 C0.33 0 0.66 0 1 0 C1.50423019 5.29441695 0.18923033 7.81413519 -3 12 C-3.99 11.67 -4.98 11.34 -6 11 C-4.02 7.37 -2.04 3.74 0 0 Z " fill="#0D0F38" transform="translate(106,45)"/>
<path d="M0 0 C0.66 0.66 1.32 1.32 2 2 C1.875 4.4375 1.875 4.4375 1 7 C-1.0625 8.8125 -1.0625 8.8125 -3 10 C-3.66 9.67 -4.32 9.34 -5 9 C-3.35 6.03 -1.7 3.06 0 0 Z " fill="#0D133B" transform="translate(99,57)"/>
<path d="M0 0 C0.33 0 0.66 0 1 0 C1.36658354 6.47630923 1.36658354 6.47630923 -0.3125 8.875 C-2 10 -2 10 -5 11 C-3.55049545 7.2089881 -1.84827434 3.6125362 0 0 Z " fill="#188F4A" transform="translate(176,154)"/>
<path d="M0 0 C4.04648443 1.34882814 4.95502599 3.34826069 7 7 C6.67 7.99 6.34 8.98 6 10 C2.49797737 7.66531825 1.66176363 5.79831687 0 2 C0 1.34 0 0.68 0 0 Z " fill="#050D41" transform="translate(140,298)"/>
<path d="M0 0 C0.66 0.99 1.32 1.98 2 3 C1.54625 3.5775 1.0925 4.155 0.625 4.75 C-1.04238698 6.90427881 -1.04238698 6.90427881 -2 9.1875 C-3 11 -3 11 -6 12 C-4.43358249 7.69235185 -2.31663844 3.93828536 0 0 Z " fill="#137F3C" transform="translate(294,280)"/>
<path d="M0 0 C0.66 0.66 1.32 1.32 2 2 C1.61121812 5.01305957 0.73543126 6.39685311 -1 9 C-1.99 9 -2.98 9 -4 9 C-2.80100302 5.9168649 -1.52299523 2.93720508 0 0 Z " fill="#129648" transform="translate(314,246)"/>
<path d="M0 0 C0.66 0 1.32 0 2 0 C2.99 1.98 3.98 3.96 5 6 C3.68 6.33 2.36 6.66 1 7 C-1 4 -1 4 -0.625 1.8125 C-0.41875 1.214375 -0.2125 0.61625 0 0 Z " fill="#11B356" transform="translate(190,222)"/>
<path d="M0 0 C0.33 1.32 0.66 2.64 1 4 C0.01 4.33 -0.98 4.66 -2 5 C-2.66 4.34 -3.32 3.68 -4 3 C-5.98821313 2.60235737 -7.98944339 2.26224651 -10 2 C-10 1.67 -10 1.34 -10 1 C-6.59437148 0.22157062 -3.49234244 -0.09978121 0 0 Z " fill="#1BB256" transform="translate(231,177)"/>
<path d="M0 0 C0.66 0.33 1.32 0.66 2 1 C1.21516341 2.48280196 0.42190666 3.9611498 -0.375 5.4375 C-0.81585938 6.26121094 -1.25671875 7.08492188 -1.7109375 7.93359375 C-3 10 -3 10 -5 11 C-5.1875 8.625 -5.1875 8.625 -5 6 C-4.01 5.34 -3.02 4.68 -2 4 C-0.80767387 1.94996045 -0.80767387 1.94996045 0 0 Z " fill="#12CB5D" transform="translate(293,286)"/>
<path d="M0 0 C0.33 0 0.66 0 1 0 C0.125 7.875 0.125 7.875 -1 9 C-2.99958364 9.04080783 -5.00045254 9.04254356 -7 9 C-6.21625 8.2575 -5.4325 7.515 -4.625 6.75 C-2.43495469 4.45566682 -1.17268614 2.87841142 0 0 Z " fill="#19A850" transform="translate(233,225)"/>
<path d="M0 0 C0.33 0.66 0.66 1.32 1 2 C5.95 2 10.9 2 16 2 C16 2.33 16 2.66 16 3 C10.06 3.33 4.12 3.66 -2 4 C-1.34 2.68 -0.68 1.36 0 0 Z " fill="#10CC66" transform="translate(331,229)"/>
<path d="M0 0 C0.33 0 0.66 0 1 0 C0.38461538 6.52307692 0.38461538 6.52307692 -1.5625 8.9375 C-2.036875 9.288125 -2.51125 9.63875 -3 10 C-3.66 9.67 -4.32 9.34 -5 9 C-3.35 6.03 -1.7 3.06 0 0 Z " fill="#13863E" transform="translate(287,292)"/>
<path d="M0 0 C0 0.66 0 1.32 0 2 C-2.40545638 3.20272819 -3.94996953 3.10071472 -6.625 3.0625 C-7.85089844 3.04896484 -7.85089844 3.04896484 -9.1015625 3.03515625 C-10.04128906 3.01775391 -10.04128906 3.01775391 -11 3 C-10.67 2.34 -10.34 1.68 -10 1 C-6.56187949 0.23597322 -3.53471921 0 0 0 Z " fill="#0E6F31" transform="translate(249,260)"/>
<path d="M0 0 C1.1484375 1.703125 1.1484375 1.703125 2 4 C1.1015625 6.359375 1.1015625 6.359375 -0.375 8.75 C-0.85710937 9.54921875 -1.33921875 10.3484375 -1.8359375 11.171875 C-2.22007812 11.77515625 -2.60421875 12.3784375 -3 13 C-4.23593891 9.29218328 -3.5678132 8.32489747 -2.0625 4.8125 C-1.68222656 3.91144531 -1.30195313 3.01039063 -0.91015625 2.08203125 C-0.60980469 1.39496094 -0.30945313 0.70789063 0 0 Z " fill="#087831" transform="translate(262,233)"/>
<path d="M0 0 C0 0.99 0 1.98 0 3 C-1.98 3.33 -3.96 3.66 -6 4 C-6.33 4.99 -6.66 5.98 -7 7 C-7 5.35 -7 3.7 -7 2 C-4.69 1.34 -2.38 0.68 0 0 Z " fill="#17AB5B" transform="translate(330,229)"/>
<path d="M0 0 C1.98 0 3.96 0 6 0 C6.66 1.65 7.32 3.3 8 5 C4.75791433 4.64950425 3.38472296 4.43778819 1.1875 1.9375 C0.795625 1.298125 0.40375 0.65875 0 0 Z " fill="#0AB152" transform="translate(243,153)"/>
<path d="M0 0 C2 1 2 1 3 3 C2.22265625 4.7265625 2.22265625 4.7265625 1.0625 6.625 C0.0415625 8.295625 0.0415625 8.295625 -1 10 C-1.66 8.68 -2.32 7.36 -3 6 C-2.505 5.566875 -2.01 5.13375 -1.5 4.6875 C0.33218192 3.00259517 0.33218192 3.00259517 0 0 Z " fill="#030C34" transform="translate(136,118)"/>
<path d="M0 0 C3.08089673 2.77280706 4.68775452 5.06326356 6 9 C5.01 9 4.02 9 3 9 C0.50022457 5.66696609 0 4.26696398 0 0 Z " fill="#080F49" transform="translate(324,59)"/>
<path d="M0 0 C2.61500768 2.36595933 4.38999603 4.86049226 6 8 C5.67 8.66 5.34 9.32 5 10 C1.32769295 6.92000054 0.43197635 4.7517398 0 0 Z " fill="#081141" transform="translate(105,237)"/>
<path d="M0 0 C0.99 0 1.98 0 3 0 C1.55049545 3.7910119 -0.15172566 7.3874638 -2 11 C-3.13643966 7.59068103 -2.86747764 6.99664544 -1.5625 3.8125 C-1.13130859 2.73935547 -1.13130859 2.73935547 -0.69140625 1.64453125 C-0.46324219 1.10183594 -0.23507812 0.55914062 0 0 Z " fill="#0B6B2F" transform="translate(340,321)"/>
<path d="M0 0 C4 4.75 4 4.75 4 7 C2.125 6.8125 2.125 6.8125 0 6 C-1.25 3.4375 -1.25 3.4375 -2 1 C-1.34 0.67 -0.68 0.34 0 0 Z " fill="#060F3D" transform="translate(92,215)"/>
<path d="M0 0 C0.99 0 1.98 0 3 0 C4.75 2.375 4.75 2.375 6 5 C5.67 5.66 5.34 6.32 5 7 C4.01 6.67 3.02 6.34 2 6 C0.8125 2.9375 0.8125 2.9375 0 0 Z " fill="#040C3E" transform="translate(86,208)"/>
<path d="M0 0 C0.33 0.639375 0.66 1.27875 1 1.9375 C4.02329832 5.0552764 6.73656724 4.72043064 11 5 C11 5.33 11 5.66 11 6 C9.35425434 6.02688151 7.70838587 6.04634123 6.0625 6.0625 C5.14597656 6.07410156 4.22945312 6.08570313 3.28515625 6.09765625 C1 6 1 6 0 5 C-0.04063832 3.33382885 -0.042721 1.66611905 0 0 Z " fill="#12B159" transform="translate(195,228)"/>
<path d="M0 0 C3.10551666 3.10551666 3.81323934 4.89198233 5 9 C4.01 9 3.02 9 2 9 C1.34 6.03 0.68 3.06 0 0 Z " fill="#12D158" transform="translate(159,224)"/>
<path d="M0 0 C0.66 0.33 1.32 0.66 2 1 C0.25 8.75 0.25 8.75 -2 11 C-1.85892253 9.54119891 -1.71197585 8.08296449 -1.5625 6.625 C-1.48128906 5.81289062 -1.40007812 5.00078125 -1.31640625 4.1640625 C-1 2 -1 2 0 0 Z " fill="#0C9846" transform="translate(276,208)"/>
<path d="M0 0 C0.99 0 1.98 0 3 0 C3.25 6.625 3.25 6.625 1 10 C0.67 6.7 0.34 3.4 0 0 Z " fill="#29CE5E" transform="translate(243,201)"/>
<path d="M0 0 C0.33 0.66 0.66 1.32 1 2 C2.32 1.67 3.64 1.34 5 1 C4.34 2.65 3.68 4.3 3 6 C2.01 6 1.02 6 0 6 C0 4.02 0 2.04 0 0 Z " fill="#0B8B39" transform="translate(312,365)"/>
<path d="M0 0 C0.99 0.33 1.98 0.66 3 1 C3.6875 3.0625 3.6875 3.0625 4 5 C2.68 5 1.36 5 0 5 C0 3.35 0 1.7 0 0 Z " fill="#1CAE4E" transform="translate(167,241)"/>
<path d="M0 0 C3.3 0 6.6 0 10 0 C10.33 0.99 10.66 1.98 11 3 C10.29875 2.855625 9.5975 2.71125 8.875 2.5625 C5.92443859 1.98521625 2.96729849 1.48304859 0 1 C0 0.67 0 0.34 0 0 Z " fill="#08E147" transform="translate(363,229)"/>
<path d="M0 0 C0.99 0.495 0.99 0.495 2 1 C2.4140625 3.28515625 2.4140625 3.28515625 2.625 6.0625 C2.69976562 6.98160156 2.77453125 7.90070313 2.8515625 8.84765625 C2.92503906 9.91306641 2.92503906 9.91306641 3 11 C2.01 10.34 1.02 9.68 0 9 C-0.29296875 6.8359375 -0.29296875 6.8359375 -0.1875 4.375 C-0.16042969 3.55773437 -0.13335937 2.74046875 -0.10546875 1.8984375 C-0.05326172 0.95871094 -0.05326172 0.95871094 0 0 Z " fill="#11CA5B" transform="translate(181,204)"/>
<path d="M0 0 C0.66 0 1.32 0 2 0 C1.6875 2.375 1.6875 2.375 1 5 C0.01 5.66 -0.98 6.32 -2 7 C-2 5.68 -2 4.36 -2 3 C-1.34 3 -0.68 3 0 3 C0 2.01 0 1.02 0 0 Z " fill="#19C35F" transform="translate(318,242)"/>
<path d="M0 0 C0.99 0.33 1.98 0.66 3 1 C1.02 3.97 1.02 3.97 -1 7 C-1.66 6.67 -2.32 6.34 -3 6 C-2.625 3.5625 -2.625 3.5625 -2 1 C-1.34 0.67 -0.68 0.34 0 0 Z " fill="#13CC5F" transform="translate(236,224)"/>
<path d="M0 0 C0.99 0.33 1.98 0.66 3 1 C1.515 3.475 1.515 3.475 0 6 C-0.66 5.67 -1.32 5.34 -2 5 C-1.125 1.125 -1.125 1.125 0 0 Z " fill="#060B31" transform="translate(125,138)"/>
</svg>
