<?xml version="1.0" encoding="UTF-8"?>
<svg version="1.1" xmlns="http://www.w3.org/2000/svg" width="518" height="518">
<path d="M0 0 C170.94 0 341.88 0 518 0 C518 170.94 518 341.88 518 518 C347.06 518 176.12 518 0 518 C0 347.06 0 176.12 0 0 Z " fill="#FFFFFF" transform="translate(0,0)"/>
<path d="M0 0 C1.22445394 -0.00445668 1.22445394 -0.00445668 2.47364432 -0.0090034 C5.22434753 -0.01771408 7.97500734 -0.01920063 10.72572327 -0.02069092 C12.69156996 -0.02531735 14.65741576 -0.03034177 16.6232605 -0.03573608 C21.97441217 -0.04887739 27.32555128 -0.0553082 32.67671657 -0.05974674 C36.01656117 -0.06267418 39.35640232 -0.06677831 42.69624519 -0.07125092 C53.13629451 -0.08492929 63.57633595 -0.09459475 74.0163936 -0.09845281 C86.08605112 -0.10293707 98.15559558 -0.12050062 110.22521871 -0.1494534 C119.54327788 -0.17103342 128.86130515 -0.18115508 138.17938906 -0.18249393 C143.75019041 -0.18354444 149.32088555 -0.18950447 154.89166069 -0.20731354 C160.12912387 -0.2237311 165.36640027 -0.22598061 170.60387993 -0.21717453 C172.52963255 -0.2164008 174.45539496 -0.22079074 176.38112259 -0.23063278 C179.0032496 -0.24325157 181.62470488 -0.2375309 184.24682617 -0.22705078 C185.01491307 -0.23510719 185.78299996 -0.24316359 186.57436222 -0.25146413 C191.71181376 -0.20319767 191.71181376 -0.20319767 194.08969975 1.51675797 C195.58209593 3.72525988 196.9506906 5.9589227 198.26893616 8.27716064 C199.16201477 9.83793335 199.16201477 9.83793335 200.07313538 11.43023682 C201.02663879 13.11210083 201.02663879 13.11210083 201.99940491 14.82794189 C203.0071028 16.59220196 204.01659904 18.35542574 205.02607727 20.1186676 C205.7176824 21.32707442 206.40871664 22.53580815 207.09919739 23.74485779 C210.55329884 29.7920684 214.05121954 35.81341468 217.56190491 41.82794189 C218.14754211 42.83171875 218.73317932 43.83549561 219.33656311 44.86968994 C222.76126732 50.72941482 226.22467982 56.56335103 229.73329163 62.37310791 C233.1056841 67.97213434 236.39752361 73.61734246 239.68690491 79.26544189 C240.27455627 80.27445557 240.86220764 81.28346924 241.46766663 82.32305908 C242.07368713 83.36365479 242.67970764 84.40425049 243.30409241 85.47637939 C247.10199383 91.99737809 250.90728729 98.51401143 254.72035217 105.02615356 C255.44601743 106.26553415 256.171442 107.5050557 256.8966217 108.74472046 C260.52618314 114.94768866 264.17157571 121.13935374 267.89784241 127.28497314 C268.45777893 128.20890869 269.01771545 129.13284424 269.59461975 130.08477783 C270.6239074 131.77721585 271.65778032 133.46687749 272.69715881 135.15313721 C273.37270813 136.26253662 273.37270813 136.26253662 274.06190491 137.39434814 C274.64585022 138.34289673 274.64585022 138.34289673 275.24159241 139.31060791 C276.24662389 141.25603946 276.82716336 142.98170436 277.18690491 145.14044189 C275.3245086 147.0028382 272.21554954 146.30721331 269.72694397 146.33331299 C269.05207947 146.34149048 268.37721497 146.34966797 267.68190002 146.35809326 C265.43878578 146.38299273 263.19573512 146.39947692 260.95252991 146.41387939 C259.8048476 146.42186491 259.8048476 146.42186491 258.6339798 146.43001175 C254.58229574 146.45676633 250.53064271 146.47613156 246.47889709 146.49053955 C242.29435174 146.50717064 238.11059659 146.55192768 233.92634964 146.602911 C230.70925502 146.63658491 227.4923476 146.64811721 224.27509308 146.65376663 C222.73290231 146.66048154 221.19072397 146.67571012 219.64870453 146.69965744 C217.48663312 146.73131116 215.32668665 146.73134687 213.16444397 146.72393799 C211.93502075 146.73202484 210.70559753 146.74011169 209.43891907 146.7484436 C204.26061953 145.78030053 202.14221254 142.52668162 199.26502991 138.35162354 C198.66174866 137.34478516 198.05846741 136.33794678 197.43690491 135.30059814 C196.93469925 134.46900177 196.93469925 134.46900177 196.42234802 133.62060547 C195.33676915 131.81887327 194.26174207 130.01109893 193.18690491 128.20294189 C192.42656476 126.93591985 191.66565274 125.66924081 190.90419006 124.40289307 C188.65424752 120.65516433 186.41826121 116.89925991 184.18690491 113.14044189 C183.58716858 112.13046143 182.98743225 111.12048096 182.36952209 110.07989502 C180.250306 106.50504316 178.13472348 102.9281484 176.02992249 99.3447876 C173.0697848 94.30709857 170.07722046 89.29055081 167.05018616 84.29278564 C166.34851581 83.13222865 165.64685559 81.97166554 164.94520569 80.81109619 C163.58657607 78.56684252 162.22438797 76.32473842 160.85829163 74.08502197 C160.2487262 73.0772168 159.63916077 72.06941162 159.01112366 71.03106689 C158.46544739 70.13420166 157.91977112 69.23733643 157.3575592 68.31329346 C156.18690491 66.14044189 156.18690491 66.14044189 156.18690491 64.14044189 C142.56398476 64.11714148 128.94106946 64.09943741 115.31813335 64.08862972 C108.99061053 64.08343928 102.66310146 64.07641244 96.33558655 64.06500244 C90.21473877 64.05403578 84.09390411 64.04813624 77.97304726 64.04556465 C75.65260932 64.04373499 73.33217199 64.04016292 71.01173973 64.03471184 C64.69766925 64.0204861 58.38532947 64.03416085 52.0716362 64.10847092 C50.15766477 64.12968313 48.24359627 64.14350084 46.32951736 64.14970779 C43.68387971 64.16465478 41.04191909 64.21786543 38.39710999 64.28326416 C37.62650332 64.28179603 36.85589666 64.28032789 36.06193829 64.27881527 C31.86227082 64.43213623 30.41276409 64.90865805 27.43200684 67.96760559 C25.9469289 70.33830903 24.65830692 72.53314125 23.57752991 75.10137939 C20.98469005 80.79495887 17.701578 86.00894705 14.40309143 91.31588745 C12.53993294 94.32452678 10.7072407 97.35154755 8.87440491 100.37872314 C8.30601898 101.31662941 8.30601898 101.31662941 7.72615051 102.27348328 C2.79337758 110.42561786 -2.05535868 118.62779602 -6.90855408 126.82745361 C-12.01448917 135.45333465 -17.14327552 144.06137651 -22.42979431 152.57843018 C-23.57132374 154.42444083 -24.69310676 156.28129959 -25.81309509 158.14044189 C-26.28521423 158.89599365 -26.75733337 159.65154541 -27.24375916 160.42999268 C-27.71265564 161.21229248 -28.18155212 161.99459229 -28.66465759 162.80059814 C-29.09858826 163.50966309 -29.53251892 164.21872803 -29.979599 164.94927979 C-31.07581847 167.83111041 -30.75391786 169.21786252 -29.81309509 172.14044189 C-28.83768697 174.05231797 -27.78145488 175.92391656 -26.67247009 177.76153564 C-25.6949176 179.39469727 -25.6949176 179.39469727 -24.69761658 181.06085205 C-23.98619279 182.23326593 -23.27468352 183.40562794 -22.56309509 184.57794189 C-21.83064359 185.79672253 -21.09896305 187.0159668 -20.36802673 188.23565674 C-18.88732964 190.70521633 -17.40340629 193.1727903 -15.917099 195.63897705 C-12.99449485 200.49456155 -10.12368907 205.38045843 -7.25059509 210.26544189 C-0.71735095 221.33929072 5.90278318 232.36064765 12.52870178 243.37921143 C13.98633917 245.80646097 15.4397763 248.23611995 16.89002991 250.66778564 C17.28609436 251.33108887 17.68215881 251.99439209 18.09022522 252.67779541 C19.08175371 254.33924575 20.07191081 256.00151431 21.06190491 257.66387939 C21.56077209 258.43997559 21.56077209 258.43997559 22.06971741 259.23175049 C23.18690491 261.14044189 23.18690491 261.14044189 24.42909241 263.97491455 C26.0702402 267.28431458 27.4809002 269.61093951 30.18690491 272.14044189 C35.56308354 273.48981402 40.71939388 273.14061532 46.18690491 272.76544189 C48.35011241 272.67019114 50.51348302 272.59055788 52.67738342 272.5128479 C54.64134677 272.43385085 56.60375881 272.31870817 58.56581116 272.20147705 C62.22402209 272.13981627 65.58567887 272.52575386 69.18690491 273.14044189 C69.98321062 285.76757532 70.29603409 298.36639787 70.31190491 311.01544189 C70.31565125 312.06284546 70.31565125 312.06284546 70.31947327 313.13140869 C70.32541178 315.1526402 70.32268836 317.17389134 70.31971741 319.19512939 C70.31858948 320.36543701 70.31746155 321.53574463 70.31629944 322.74151611 C70.182081 326.26715591 69.74527089 329.65883318 69.18690491 333.14044189 C65.29473894 334.05486079 61.68164799 334.26704231 57.68763733 334.26983643 C56.39246689 334.27298859 55.09729645 334.27614075 53.76287842 334.27938843 C52.35604315 334.27759785 50.9492082 334.2755467 49.54237366 334.27325439 C48.0889484 334.27392874 46.63552326 334.27489985 45.18209839 334.27615356 C42.13836084 334.2776258 39.0946527 334.27549217 36.05091858 334.27081299 C32.16755154 334.26513125 28.28425386 334.26838783 24.4008894 334.27438545 C21.39900195 334.27801692 18.39713065 334.27684038 15.39524269 334.27425766 C13.96444503 334.27359474 12.53364586 334.27439441 11.10284996 334.27673721 C-8.46746265 334.30174113 -8.46746265 334.30174113 -11.80918884 331.41778564 C-12.28485291 330.64563721 -12.76051697 329.87348877 -13.25059509 329.07794189 C-13.81778259 328.17559814 -14.38497009 327.27325439 -14.96934509 326.34356689 C-20.17567594 317.29867008 -20.17567594 317.29867008 -22.26597595 313.46636963 C-25.21240212 308.07757475 -28.42800158 302.87434422 -31.66099548 297.65338135 C-35.69185668 291.10810845 -39.51958207 284.44040169 -43.385849 277.79718018 C-47.77463947 270.26125704 -52.24429282 262.79018671 -56.83457947 255.37432861 C-59.89043097 250.37953481 -62.8262535 245.31626223 -65.76683044 240.25302124 C-72.36430505 228.90218587 -79.12433448 217.66978543 -86.042099 206.51055908 C-91.08055923 198.37082883 -95.98874076 190.16097187 -100.82969666 181.90240479 C-101.32695251 181.05412109 -101.82420837 180.2058374 -102.33653259 179.33184814 C-102.9850116 178.22111938 -102.9850116 178.22111938 -103.64659119 177.08795166 C-104.65271452 175.4082016 -105.72698072 173.76961346 -106.81309509 172.14044189 C-107.31885197 166.82354068 -106.51073403 163.76836643 -103.76231384 159.23809814 C-103.09296814 158.11669434 -102.42362244 156.99529053 -101.73399353 155.83990479 C-100.98971541 154.62746838 -100.24524371 153.41515079 -99.50059509 152.20294189 C-98.73247519 150.92708068 -97.96590431 149.65028576 -97.20079041 148.37261963 C-95.58265232 145.67482629 -93.95650151 142.98210806 -92.32432556 140.29278564 C-89.82776968 136.17359571 -87.36464293 132.03515797 -84.91075134 127.89044189 C-84.50917816 127.21223389 -84.10760498 126.53402588 -83.69386292 125.83526611 C-82.8861533 124.47089423 -82.07852564 123.10647383 -81.27098083 121.74200439 C-79.27487702 118.37233101 -77.27227744 115.00652439 -75.27012634 111.64044189 C-67.34395133 98.31014193 -59.46138637 84.95408297 -51.60411072 71.58306885 C-47.79308279 65.09991468 -43.96250983 58.62836753 -40.13267517 52.15631104 C-36.90349405 46.69389079 -33.68798103 41.22370106 -30.48497009 35.74591064 C-30.11340286 35.11075531 -29.74183563 34.47559998 -29.35900879 33.82119751 C-27.53771919 30.70766839 -25.7179086 27.59329294 -23.90074158 24.47735596 C-20.45128555 18.57054069 -16.97056022 12.68234469 -13.42637634 6.83184814 C-12.45825012 5.22805298 -12.45825012 5.22805298 -11.4705658 3.59185791 C-8.47952429 -0.83192287 -4.90461587 -0.0055169 0 0 Z " fill="#011657" transform="translate(169.81309509277344,87.85955810546875)"/>
<path d="M0 0 C1.39288795 0.00119394 2.78577672 0.00164451 4.17866516 0.00138855 C7.08604024 0.00294627 9.99329095 0.01118328 12.90063477 0.0246582 C16.62292391 0.04169455 20.34507736 0.04547074 24.06740093 0.04471302 C26.9387389 0.0449851 29.81004736 0.0504717 32.6813755 0.05771446 C34.05407297 0.06089005 35.42677377 0.06286594 36.79947472 0.06360817 C38.71618228 0.06578081 40.63287718 0.07533101 42.54956055 0.08520508 C44.18334908 0.09092278 44.18334908 0.09092278 45.85014343 0.09675598 C48.29867499 0.2126236 50.34093438 0.52165825 52.67578125 1.23046875 C52.1207168 6.04102729 49.8933647 9.67356206 47.42578125 13.73046875 C46.98468018 14.46821533 46.5435791 15.20596191 46.08911133 15.96606445 C42.03208365 22.72028115 37.86189189 29.40532602 33.69726562 36.09350586 C29.29865994 43.17482677 25.0436095 50.33296506 20.82397461 57.52197266 C16.78030952 64.39698197 12.65592244 71.22044078 8.50186157 78.02911377 C2.15208562 88.43733674 -4.1067416 98.89328458 -10.26171875 109.41796875 C-10.61860779 110.02792694 -10.97549683 110.63788513 -11.34320068 111.2663269 C-14.74341031 117.07945356 -18.13356707 122.89832039 -21.5078125 128.7265625 C-21.97131104 129.52360596 -22.43480957 130.32064941 -22.91235352 131.1418457 C-23.7359545 132.55857689 -24.55581757 133.97749182 -25.37084961 135.39916992 C-28.91551118 141.48855091 -28.91551118 141.48855091 -31.32421875 143.23046875 C-33.89441494 143.52641026 -36.22262383 143.64047196 -38.79321289 143.61865234 C-39.55121689 143.6239093 -40.30922089 143.62916626 -41.0901947 143.63458252 C-43.59679745 143.64779134 -46.10276575 143.6390425 -48.609375 143.62890625 C-50.34907656 143.63092653 -52.0887773 143.63383758 -53.82847595 143.63760376 C-57.47435571 143.64202812 -61.120015 143.63559174 -64.76586914 143.62158203 C-69.44595128 143.60447729 -74.12551781 143.61433863 -78.80558109 143.63229942 C-82.39745492 143.64312346 -85.98920583 143.63969752 -89.5810833 143.63191605 C-91.30711363 143.62991087 -93.03315502 143.63238441 -94.75917244 143.63935471 C-97.16795689 143.64694808 -99.57589776 143.63539617 -101.98461914 143.61865234 C-103.06080002 143.62776138 -103.06080002 143.62776138 -104.15872192 143.63705444 C-106.14271545 143.61141968 -106.14271545 143.61141968 -109.32421875 143.23046875 C-111.56916603 139.86304783 -111.57660613 138.73609732 -111.58300781 134.796875 C-111.58931213 133.68562256 -111.59561646 132.57437012 -111.60211182 131.42944336 C-111.59806335 130.22940674 -111.59401489 129.02937012 -111.58984375 127.79296875 C-111.5917572 126.5613501 -111.59367065 125.32973145 -111.59564209 124.06079102 C-111.59735309 120.78707856 -111.58929595 117.51355546 -111.578125 114.23986816 C-111.57422259 112.23244176 -111.57811094 110.22519022 -111.58496094 108.21777344 C-111.59729162 104.36775554 -111.59582518 100.51799733 -111.58984375 96.66796875 C-111.59389221 95.46793213 -111.59794067 94.26789551 -111.60211182 93.03149414 C-111.5958075 91.9202417 -111.58950317 90.80898926 -111.58300781 89.6640625 C-111.58141663 88.68493896 -111.57982544 87.70581543 -111.57818604 86.69702148 C-111.32421875 84.23046875 -111.32421875 84.23046875 -109.32421875 81.23046875 C-106.29324579 81.19002255 -103.44440855 81.31880572 -100.43359375 81.5625 C-81.54954257 83.41281834 -81.54954257 83.41281834 -64.11474609 78.08251953 C-59.29890912 72.55506063 -56.76184545 66.07811777 -54.40380859 59.20556641 C-52.95092974 55.20177137 -50.8966028 51.83854423 -48.57421875 48.29296875 C-47.8608155 47.12156223 -47.15241803 45.94709152 -46.44921875 44.76953125 C-45.92908203 43.90569824 -45.92908203 43.90569824 -45.3984375 43.02441406 C-43.8537404 40.44476991 -42.32768135 37.85436726 -40.80493164 35.26171875 C-39.98656292 33.86946916 -39.16544759 32.47883028 -38.34155273 31.08984375 C-35.84529286 26.87108306 -33.42279125 22.61986616 -31.046875 18.33203125 C-30.48129883 17.33051025 -29.91572266 16.32898926 -29.33300781 15.29711914 C-28.22210264 13.32969136 -27.12825987 11.35250802 -26.05371094 9.36499023 C-25.54098633 8.46594971 -25.02826172 7.56690918 -24.5 6.640625 C-23.8335144 5.43611694 -23.8335144 5.43611694 -23.15356445 4.20727539 C-17.61382036 -1.77901954 -7.44700619 -0.04220753 0 0 Z " fill="#01D14F" transform="translate(394.32421875,278.76953125)"/>
<path d="M0 0 C0.65389709 -0.01474869 1.30779419 -0.02949738 1.98150635 -0.04469299 C4.14943891 -0.08927911 6.31710181 -0.11745874 8.48535156 -0.1418457 C9.22624275 -0.15124491 9.96713394 -0.16064411 10.73047638 -0.17032814 C14.65362481 -0.21792493 18.57663897 -0.25159563 22.5 -0.27539062 C26.54740691 -0.30307786 30.59210274 -0.38221311 34.63851547 -0.47293377 C37.75445411 -0.53283267 40.8697514 -0.55266479 43.98621368 -0.56189919 C45.47747626 -0.57346688 46.96870369 -0.60027815 48.45940399 -0.64282799 C60.09254923 -0.95513439 60.09254923 -0.95513439 63.79560852 2.24461365 C65.36474572 4.55726675 66.52006529 6.80774664 67.62597656 9.36987305 C68.51289185 10.82478149 68.51289185 10.82478149 69.41772461 12.30908203 C70.14536011 13.57473999 70.14536011 13.57473999 70.88769531 14.8659668 C71.44424805 15.82857422 72.00080078 16.79118164 72.57421875 17.78295898 C73.14817383 18.78101563 73.72212891 19.77907227 74.31347656 20.80737305 C79.18181129 29.2210407 84.12880892 37.5739276 89.24975586 45.83642578 C89.87684448 46.85071655 89.87684448 46.85071655 90.51660156 47.88549805 C91.05849121 48.75609863 91.05849121 48.75609863 91.61132812 49.64428711 C92.1135791 50.49845215 92.1135791 50.49845215 92.62597656 51.36987305 C93.21717285 52.2820459 93.21717285 52.2820459 93.8203125 53.21264648 C94.98358648 56.32740068 94.49584293 58.17366547 93.62597656 61.36987305 C92.40722324 63.78333698 91.16712588 66.02827402 89.75878906 68.32299805 C89.17228325 69.30395699 89.17228325 69.30395699 88.57392883 70.30473328 C87.30880538 72.41547057 86.03034058 74.51774247 84.75097656 76.61987305 C83.88054522 78.06418158 83.01083662 79.50892592 82.1418457 80.95410156 C80.42904968 83.79872659 78.71062519 86.63981879 76.98681641 89.4777832 C74.97412749 92.79188127 72.9782598 96.11570998 70.98925781 99.4440918 C70.01467985 101.06559592 69.03948976 102.68673241 68.06347656 104.30737305 C67.62986816 105.03279297 67.19625977 105.75821289 66.74951172 106.50561523 C63.85812724 111.25379771 63.85812724 111.25379771 61.62597656 112.36987305 C49.05579482 114.05769531 36.23440493 113.54560655 23.58642578 113.41137695 C20.98654755 113.38413128 18.38659951 113.36278008 15.78662109 113.34790039 C12.21117735 113.32020561 8.63820692 113.25730323 5.06347656 113.18237305 C3.98243652 113.1767334 2.90139648 113.17109375 1.78759766 113.1652832 C-5.58116566 112.95109561 -5.58116566 112.95109561 -9.37402344 110.1706543 C-11.34173617 107.41508783 -13.15234042 104.69718432 -14.81152344 101.74487305 C-15.41480469 100.67881836 -16.01808594 99.61276367 -16.63964844 98.5144043 C-18.60826107 94.94518546 -20.55697045 91.36586481 -22.49511719 87.7800293 C-25.15678329 82.94918833 -27.88927346 78.15963279 -30.62402344 73.36987305 C-31.42199341 71.97007202 -31.42199341 71.97007202 -32.23608398 70.54199219 C-32.74051025 69.66019287 -33.24493652 68.77839355 -33.76464844 67.86987305 C-34.2187207 67.07581055 -34.67279297 66.28174805 -35.140625 65.46362305 C-36.16139414 63.73082096 -37.25845904 62.04321964 -38.37402344 60.36987305 C-38.81252716 55.88150145 -38.1373438 53.21417411 -35.88183594 49.3503418 C-35.3463916 48.41875244 -34.81094727 47.48716309 -34.25927734 46.52734375 C-33.67839355 45.54725342 -33.09750977 44.56716309 -32.49902344 43.55737305 C-31.90911621 42.53925537 -31.31920898 41.5211377 -30.71142578 40.47216797 C-28.9449815 37.43043592 -27.16142937 34.39932298 -25.37402344 31.36987305 C-24.42541681 29.74788053 -23.47743765 28.12552078 -22.53027344 26.50268555 C-20.8958549 23.70831728 -19.25264959 20.91946795 -17.60058594 18.13549805 C-16.14163946 15.67580744 -14.69845864 13.20818623 -13.27246094 10.72924805 C-12.33273438 9.09729492 -12.33273438 9.09729492 -11.37402344 7.43237305 C-10.83777344 6.49522461 -10.30152344 5.55807617 -9.74902344 4.5925293 C-6.9507629 0.06920473 -5.16371462 0.09889728 0 0 Z " fill="#02D251" transform="translate(235.3740234375,200.630126953125)"/>
<path d="M0 0 C1.97709961 -0.00483398 1.97709961 -0.00483398 3.99414062 -0.00976562 C5.30060547 -0.07099609 6.60707031 -0.13222656 7.953125 -0.1953125 C17.32315476 -0.26676672 17.32315476 -0.26676672 21.00146484 2.9675293 C22.82003557 5.53947997 24.26962899 8.11487839 25.68164062 10.92773438 C26.49160048 12.20039667 27.31300268 13.465918 28.15039062 14.72070312 C28.82070313 15.84089844 29.49101562 16.96109375 30.18164062 18.11523438 C30.71917969 18.96118164 30.71917969 18.96118164 31.26757812 19.82421875 C33.01152868 22.78149925 33.68096264 24.83089549 33.70507812 28.27539062 C32.37769441 33.01242792 30.26112627 36.93627193 27.80664062 41.17773438 C27.13568359 42.38042969 27.13568359 42.38042969 26.45117188 43.60742188 C22.21677296 51.07695153 22.21677296 51.07695153 19.68164062 52.92773438 C15.36170008 53.65513638 11.02294395 53.69740804 6.65014648 53.75830078 C4.51424382 53.80232006 2.39059628 53.92092144 0.2578125 54.04101562 C-9.67809475 54.34589254 -9.67809475 54.34589254 -13.9453125 50.65649414 C-16.01901094 47.83933534 -17.69923481 45.02519006 -19.31835938 41.92773438 C-20.10584276 40.68772069 -20.89881201 39.45114315 -21.70117188 38.22070312 C-22.27609375 37.19589844 -22.85101563 36.17109375 -23.44335938 35.11523438 C-24.0440625 34.07753906 -24.64476562 33.03984375 -25.26367188 31.97070312 C-26.63794748 28.00566352 -26.09690847 26.7001306 -24.31835938 22.92773438 C-22.77987571 20.01864718 -21.1344898 17.18789376 -19.44335938 14.36523438 C-19.00894531 13.62337891 -18.57453125 12.88152344 -18.12695312 12.1171875 C-16.88751274 10.02726024 -15.65592931 7.95650392 -14.31835938 5.92773438 C-13.74045654 5.03763672 -13.16255371 4.14753906 -12.56713867 3.23046875 C-8.87420503 -0.55106964 -5.06088379 0.11613451 0 0 Z " fill="#FFFFFF" transform="translate(259.318359375,229.072265625)"/>
<path d="M0 0 C1.25 1.5625 1.25 1.5625 2 4 C0.35594862 7.40988435 -1.38630263 10.20446637 -3.6875 13.1875 C-5.09422653 15.13012235 -5.58153409 16.65659088 -6 19 C-6.66 19 -7.32 19 -8 19 C-8.33 19.99 -8.66 20.98 -9 22 C-9.66 22 -10.32 22 -11 22 C-11.061875 23.19625 -11.12375 24.3925 -11.1875 25.625 C-11.61307087 29.29393672 -12.03179601 30.03800011 -14.5625 33.0625 C-17.29649049 35.82113256 -17.29649049 35.82113256 -17.4375 39.5 C-17.00074849 42.9940121 -16.48631504 45.80442266 -15 49 C-13.67532254 49.6837045 -12.34136367 50.34964186 -11 51 C-9.92239692 52.95927833 -8.94163351 54.97186629 -8 57 C-6.42828886 59.56160633 -4.82740209 62.10172228 -3.20703125 64.6328125 C-2 67 -2 67 -2 71 C-1.34 71 -0.68 71 0 71 C0 71.66 0 72.32 0 73 C0.66 73 1.32 73 2 73 C4.04169485 75.90548882 5 77.40142046 5 81 C5.66 81 6.32 81 7 81 C7.37125 81.78375 7.7425 82.5675 8.125 83.375 C10.80768853 88.75309122 14.04966815 93.84412323 17.20703125 98.953125 C18.96813821 101.88170736 20.23985222 104.57772067 21.0625 107.875 C21.371875 108.90625 21.68125 109.9375 22 111 C22.99 111.33 23.98 111.66 25 112 C26.640625 114.109375 26.640625 114.109375 28.25 116.75 C28.79140625 117.61109375 29.3328125 118.4721875 29.890625 119.359375 C31.17816137 122.42407424 30.96713967 123.87366479 30 127 C27.54710568 123.87525229 25.53830957 120.61726865 23.55078125 117.1796875 C22.86891049 116.00588534 22.18693992 114.83214116 21.50488281 113.65844727 C21.14801392 113.04236603 20.79114502 112.42628479 20.42346191 111.79153442 C13.70955871 100.20929525 6.82654313 88.75101859 -0.2277832 77.37231445 C-5.26642388 69.23171137 -10.17522095 61.02125454 -15.01660156 52.76196289 C-15.51385742 51.9136792 -16.01111328 51.06539551 -16.5234375 50.19140625 C-17.1719165 49.08067749 -17.1719165 49.08067749 -17.83349609 47.94750977 C-18.83961942 46.2677597 -19.91388562 44.62917157 -21 43 C-21.59704296 37.41087514 -20.32158576 33.86927553 -17.421875 29.21875 C-16.8701059 28.29298157 -16.8701059 28.29298157 -16.30718994 27.34851074 C-15.1356424 25.39004931 -13.94354091 23.44511908 -12.75 21.5 C-11.96342017 20.19486733 -11.17825039 18.88888374 -10.39453125 17.58203125 C-8.9433093 15.16447448 -7.48298493 12.75289482 -6.01464844 10.34570312 C-3.95493711 6.92516459 -1.96839512 3.47363844 0 0 Z " fill="#0A1138" transform="translate(84,217)"/>
<path d="M0 0 C0.70596313 -0.00191345 1.41192627 -0.0038269 2.13928223 -0.00579834 C3.62166707 -0.00715036 5.10406415 -0.00352316 6.58642578 0.00488281 C8.83783916 0.01559687 11.08845479 0.00495437 13.33984375 -0.0078125 C14.78906424 -0.00649073 16.23828423 -0.00392797 17.6875 0 C19.63946289 0.00338379 19.63946289 0.00338379 21.63085938 0.00683594 C25.54697835 0.27979005 28.63008206 1.05694251 32.34375 2.265625 C32.34375 2.595625 32.34375 2.925625 32.34375 3.265625 C17.16375 3.595625 1.98375 3.925625 -13.65625 4.265625 C-13.65625 5.915625 -13.65625 7.565625 -13.65625 9.265625 C-15.11447614 13.81185944 -16.85508441 16.64481214 -20.09375 20.140625 C-23.27148809 23.5853999 -25.024656 26.84113229 -26.75390625 31.16796875 C-28.01966593 34.11044904 -29.88327956 36.60616934 -31.65625 39.265625 C-32.006875 40.338125 -32.3575 41.410625 -32.71875 42.515625 C-33.65625 45.265625 -33.65625 45.265625 -36.65625 47.265625 C-36.945 48.049375 -37.23375 48.833125 -37.53125 49.640625 C-38.65625 52.265625 -38.65625 52.265625 -41.09375 54.203125 C-44.05944206 56.59014544 -45.00521157 58.88850093 -46.65625 62.265625 C-48.14125 62.760625 -48.14125 62.760625 -49.65625 63.265625 C-48.38810432 59.91520178 -46.94978248 56.88004859 -45.109375 53.80859375 C-44.34669312 52.52807129 -44.34669312 52.52807129 -43.56860352 51.22167969 C-43.02002686 50.30805664 -42.4714502 49.39443359 -41.90625 48.453125 C-40.73239433 46.48347718 -39.55924281 44.51340957 -38.38671875 42.54296875 C-37.77618652 41.51800293 -37.1656543 40.49303711 -36.53662109 39.43701172 C-32.81990043 33.16848388 -29.16468329 26.86397037 -25.50292969 20.56323242 C-24.4174369 18.69788191 -23.32568172 16.83615854 -22.22705078 14.97851562 C-21.16549684 13.14513245 -20.14365459 11.28826528 -19.15966797 9.41210938 C-18.67256348 8.51298828 -18.18545898 7.61386719 -17.68359375 6.6875 C-17.267146 5.8840918 -16.85069824 5.08068359 -16.42163086 4.25292969 C-12.31586233 -0.36896988 -5.77177778 0.01000556 0 0 Z " fill="#14A850" transform="translate(387.65625,278.734375)"/>
<path d="M0 0 C2.22950172 -0.36914349 2.22950172 -0.36914349 5.06192017 -0.36076355 C6.13326706 -0.36488754 7.20461395 -0.36901154 8.3084259 -0.3732605 C9.48877914 -0.36247467 10.66913239 -0.35168884 11.88525391 -0.34057617 C13.12424942 -0.34101425 14.36324493 -0.34145233 15.63978577 -0.34190369 C19.04266413 -0.3401685 22.44500027 -0.32509646 25.84778261 -0.30418181 C29.40187269 -0.28546112 32.95596955 -0.28366822 36.51010132 -0.28010559 C43.24268007 -0.27077152 49.97511313 -0.24613946 56.70762765 -0.21605712 C64.37135288 -0.18255535 72.03508498 -0.16603776 79.69886518 -0.15097082 C95.46599457 -0.11959098 111.23297852 -0.06680419 127 0 C127 0.33 127 0.66 127 1 C118.585 1.495 118.585 1.495 110 2 C110 2.33 110 2.66 110 3 C108.92719284 2.99777939 107.85438568 2.99555878 106.74906921 2.99327087 C96.55670143 2.97285284 86.36433788 2.95793901 76.17195415 2.94818783 C70.93404464 2.94300588 65.69615185 2.93599521 60.45825195 2.92456055 C55.38778841 2.91356277 50.31734079 2.90768803 45.24686623 2.90512276 C43.32834434 2.90329853 41.40982317 2.89973772 39.49130821 2.89426994 C33.32634274 2.87742514 27.16436964 2.91516668 21 3 C19.66190969 3.01106718 19.66190969 3.01106718 18.29678726 3.02235794 C15.66889137 3.05258151 13.04417121 3.11786445 10.41723633 3.19360352 C9.23124234 3.20161311 9.23124234 3.20161311 8.02128887 3.20978451 C4.00435753 3.36622417 2.35411962 3.64247071 -0.52607727 6.55039978 C-1.01247177 7.35876785 -1.49886627 8.16713593 -2 9 C-2.25 3.375 -2.25 3.375 0 0 Z " fill="#02062D" transform="translate(198,149)"/>
<path d="M0 0 C0.66 0 1.32 0 2 0 C2.80821835 3.54249487 3.12218996 6.80240693 3.11352539 10.43286133 C3.11340454 11.508302 3.11328369 12.58374268 3.11315918 13.69177246 C3.10804321 14.81055786 3.10292725 15.92934326 3.09765625 17.08203125 C3.09664917 18.11888062 3.09564209 19.15572998 3.09460449 20.22399902 C3.08938348 24.08684398 3.07542221 27.94967313 3.0625 31.8125 C3.041875 40.454375 3.02125 49.09625 3 58 C28.41 58 53.82 58 80 58 C80 58.33 80 58.66 80 59 C69.86464856 59.06941159 59.72935336 59.12276615 49.59381294 59.15543652 C44.88781483 59.17111411 40.18197895 59.19239036 35.47607422 59.22631836 C30.9373502 59.25883745 26.39878252 59.27683723 21.85995102 59.28463173 C20.12552299 59.29018868 18.39110383 59.30103963 16.6567421 59.31719017 C14.23337342 59.33886587 11.81065653 59.34197113 9.38720703 59.34057617 C8.30395645 59.35675491 8.30395645 59.35675491 7.19882202 59.3732605 C5.20169067 59.36076355 5.20169067 59.36076355 2 59 C-0.25779693 55.6133046 -0.24486783 54.48309149 -0.22705078 50.51879883 C-0.22689972 49.39786331 -0.22674866 48.2769278 -0.22659302 47.12202454 C-0.21627045 45.91257675 -0.20594788 44.70312897 -0.1953125 43.45703125 C-0.1924826 42.21829758 -0.18965271 40.9795639 -0.18673706 39.70329285 C-0.17743186 36.41361913 -0.15946791 33.12414137 -0.1373291 29.83453369 C-0.1168527 26.47630206 -0.10773152 23.11804172 -0.09765625 19.75976562 C-0.07558271 13.17310027 -0.04209522 6.58656617 0 0 Z " fill="#0C6F2F" transform="translate(283,363)"/>
<path d="M0 0 C0.33 0 0.66 0 1 0 C1 2.31 1 4.62 1 7 C-2.89216597 7.9144189 -6.50525692 8.12660042 -10.49926758 8.12939453 C-12.44202324 8.13412277 -12.44202324 8.13412277 -14.42402649 8.13894653 C-15.83086176 8.13715596 -17.23769671 8.13510481 -18.64453125 8.1328125 C-20.0979565 8.13348684 -21.55138165 8.13445796 -23.00480652 8.13571167 C-26.04854406 8.1371839 -29.09225221 8.13505027 -32.13598633 8.13037109 C-36.01935337 8.12468935 -39.90265104 8.12794594 -43.78601551 8.13394356 C-46.78790296 8.13757503 -49.78977425 8.13639849 -52.79166222 8.13381577 C-54.22245988 8.13315284 -55.65325905 8.13395251 -57.08405495 8.13629532 C-72.57899899 8.15609236 -72.57899899 8.15609236 -78 7 C-78.66 6.01 -79.32 5.02 -80 4 C-79.32681229 4.16265854 -78.65362457 4.32531708 -77.96003723 4.49290466 C-74.47105758 5.09061516 -71.18046817 5.11955787 -67.6394043 5.11352539 C-66.55566277 5.11374443 -66.55566277 5.11374443 -65.45002747 5.1139679 C-63.07472678 5.11327422 -60.69950565 5.10550745 -58.32421875 5.09765625 C-56.67226708 5.09579013 -55.02031485 5.09436714 -53.36836243 5.09336853 C-49.02992208 5.08955861 -44.69151545 5.07974139 -40.35308838 5.06866455 C-35.92224585 5.0584176 -31.49139785 5.05386388 -27.06054688 5.04882812 C-18.37368248 5.03811771 -9.68684544 5.02105966 -1 5 C-0.67 3.35 -0.34 1.7 0 0 Z " fill="#0A0D37" transform="translate(238,414)"/>
<path d="M0 0 C0.33 0 0.66 0 1 0 C1 3.3 1 6.6 1 10 C-0.98 10.99 -0.98 10.99 -3 12 C-3.64997907 14.36817866 -3.64997907 14.36817866 -4 17 C-5.12109375 19.421875 -5.12109375 19.421875 -6.4375 21.75 C-6.86933594 22.52859375 -7.30117187 23.3071875 -7.74609375 24.109375 C-9 26 -9 26 -11 27 C-13.29270071 30.58234485 -15.05318793 33.7578806 -16.125 37.875 C-16.558125 39.421875 -16.558125 39.421875 -17 41 C-17.99 41.495 -17.99 41.495 -19 42 C-20.51535376 44.33617037 -21.84210918 46.65461382 -23 49.1875 C-24 51 -24 51 -27 53 C-27.25030977 55.58380177 -27.25030977 55.58380177 -27 58 C-27.66 57.67 -28.32 57.34 -29 57 C-29.26082321 52.50182163 -28.77485576 49.86406196 -26.5078125 45.98046875 C-25.70452515 44.58296387 -25.70452515 44.58296387 -24.88500977 43.15722656 C-24.01380493 41.68721191 -24.01380493 41.68721191 -23.125 40.1875 C-22.53581787 39.17010742 -21.94663574 38.15271484 -21.33959961 37.10449219 C-19.57316122 34.06156247 -17.78931829 31.02952021 -16 28 C-15.04011142 26.36603411 -14.08045371 24.73193257 -13.12109375 23.09765625 C-11.86403572 20.95943898 -10.60533987 18.82229015 -9.34082031 16.68847656 C-6.09113006 11.19836706 -2.9935876 5.6342726 0 0 Z " fill="#16A04F" transform="translate(226,204)"/>
<path d="M0 0 C0.66 0.33 1.32 0.66 2 1 C1.54367188 1.72445312 1.08734375 2.44890625 0.6171875 3.1953125 C0.04226562 4.16210938 -0.53265625 5.12890625 -1.125 6.125 C-1.70507812 7.07632813 -2.28515625 8.02765625 -2.8828125 9.0078125 C-4.26973427 11.93605622 -4.26973427 11.93605622 -3.45703125 14.890625 C-1.70746233 18.6242895 0.27513703 22.11771014 2.4375 25.625 C2.83259766 26.27984375 3.22769531 26.9346875 3.63476562 27.609375 C4.73707884 29.42149722 5.83920145 31.22471979 7 33 C7.39719238 33.71897461 7.79438477 34.43794922 8.20361328 35.17871094 C11.59009803 38.61214071 16.53578896 37.60787356 21.08789062 37.64453125 C21.80178955 37.64018066 22.51568848 37.63583008 23.2512207 37.63134766 C25.42798405 37.62502763 27.59930075 37.67191777 29.77539062 37.72265625 C31.16145149 37.72720298 32.54752694 37.72860887 33.93359375 37.7265625 C35.8216272 37.73550537 35.8216272 37.73550537 37.74780273 37.74462891 C41.28552014 37.29444025 41.28552014 37.29444025 43.37915039 33.95458984 C43.91403076 32.9795752 44.44891113 32.00456055 45 31 C45.33 31 45.66 31 46 31 C45.125 38.875 45.125 38.875 44 40 C41.26105915 40.08858646 38.5474673 40.11523479 35.80859375 40.09765625 C34.98875504 40.0962413 34.16891632 40.09482635 33.32423401 40.09336853 C30.69528618 40.08775289 28.06642227 40.07519779 25.4375 40.0625 C23.65950643 40.05748701 21.88151154 40.05292376 20.10351562 40.04882812 C15.73564455 40.03777839 11.36783652 40.02050331 7 40 C7 38.35 7 36.7 7 35 C5.68 35 4.36 35 3 35 C0.70986347 31.5647952 0.82157027 30.014669 1 26 C0.34 26 -0.32 26 -1 26 C-4.4661802 23.36893575 -6.72282491 20.54956153 -7.49609375 16.2265625 C-7.65762969 9.13798529 -7.65762969 9.13798529 -5.65234375 5.66796875 C-5.10707031 5.11753906 -4.56179687 4.56710938 -4 4 C-3.01 4 -2.02 4 -1 4 C-0.67 2.68 -0.34 1.36 0 0 Z " fill="#10AE54" transform="translate(238,244)"/>
<path d="M0 0 C0.495 0.99 0.495 0.99 1 2 C2.32 1.67 3.64 1.34 5 1 C4.34 2.65 3.68 4.3 3 6 C-23.07 6 -49.14 6 -76 6 C-76 5.34 -76 4.68 -76 4 C-50.92 4 -25.84 4 0 4 C0 2.68 0 1.36 0 0 Z " fill="#11C14D" transform="translate(362,415)"/>
<path d="M0 0 C2.97 0 5.94 0 9 0 C9 0.66 9 1.32 9 2 C1.30841703 5.84579149 -10.72015081 4.15589612 -19.125 4.125 C-20.41293457 4.12306641 -21.70086914 4.12113281 -23.02783203 4.11914062 C-35.69716701 4.06329441 -48.34595397 3.60796337 -61 3 C-61 2.67 -61 2.34 -61 2 C-57.03730593 1.26066544 -53.29903152 0.87719117 -49.27001953 0.88647461 C-48.16933136 0.88655014 -47.06864319 0.88662567 -45.93460083 0.88670349 C-44.17646561 0.89444542 -44.17646561 0.89444542 -42.3828125 0.90234375 C-41.17051971 0.9037587 -39.95822693 0.90517365 -38.709198 0.90663147 C-34.84777327 0.91221655 -30.98640712 0.92476639 -27.125 0.9375 C-24.50260501 0.94251692 -21.8802091 0.9470795 -19.2578125 0.95117188 C-12.83852178 0.96218111 -6.41926507 0.97890445 0 1 C0 0.67 0 0.34 0 0 Z " fill="#0E8D3D" transform="translate(290,310)"/>
<path d="M0 0 C2.7951355 -0.39440918 2.7951355 -0.39440918 6.40576172 -0.41992188 C7.0628714 -0.42839142 7.71998108 -0.43686096 8.39700317 -0.44558716 C10.57476019 -0.46903426 12.75181367 -0.46997743 14.9296875 -0.46875 C16.44182622 -0.47584812 17.95396223 -0.48354661 19.46609497 -0.49182129 C22.63876831 -0.50528458 25.81119277 -0.50682722 28.98388672 -0.50097656 C33.04866765 -0.49508528 37.11225213 -0.52563771 41.17680168 -0.56609344 C44.3012637 -0.59195544 47.42543731 -0.59484918 50.54999161 -0.59120178 C52.04832079 -0.59289517 53.54666299 -0.60255887 55.04488754 -0.62034607 C57.14255218 -0.64250425 59.23779233 -0.63285422 61.33544922 -0.61523438 C63.12509598 -0.61831604 63.12509598 -0.61831604 64.95089722 -0.62145996 C68 0 68 0 70.41653442 2.41345215 C72 5 72 5 72 7 C69.5625 6.625 69.5625 6.625 67 6 C66.505 5.01 66.505 5.01 66 4 C62.21640024 2.92042254 58.56449081 2.87862827 54.64916992 2.88647461 C53.3882402 2.88655014 52.12731049 2.88662567 50.82817078 2.88670349 C49.46226969 2.89180931 48.09636902 2.8970253 46.73046875 2.90234375 C45.32513988 2.9042103 43.91981035 2.90563308 42.51448059 2.90663147 C38.82705875 2.910438 35.1396767 2.92025226 31.45227051 2.93133545 C27.68498269 2.94158975 23.9176884 2.94613768 20.15039062 2.95117188 C12.766909 2.9618763 5.38346009 2.9789302 -2 3 C-1.34 2.01 -0.68 1.02 0 0 Z " fill="#1FA95A" transform="translate(229,201)"/>
<path d="M0 0 C1.10424805 1.78369141 1.10424805 1.78369141 2 4 C0.71769786 6.66070187 -0.57300895 8.93040551 -2.1875 11.375 C-3.01633059 12.67319956 -3.84318384 13.97266385 -4.66796875 15.2734375 C-5.06902832 15.90185547 -5.47008789 16.53027344 -5.88330078 17.17773438 C-7.8128368 20.32641319 -9.36803184 23.63966176 -10.921875 26.984375 C-14.16841213 33.90623718 -18.39970001 40.74014378 -24 46 C-24.66 45.67 -25.32 45.34 -26 45 C-17.53094467 29.88012828 -8.87884648 14.88299347 0 0 Z " fill="#0C113E" transform="translate(159,90)"/>
<path d="M0 0 C0.33 0 0.66 0 1 0 C0.25 6.75 0.25 6.75 -2 9 C-2.268125 9.928125 -2.53625 10.85625 -2.8125 11.8125 C-4.29901092 15.80260825 -5.60657648 17.39769797 -9 20 C-12.36860401 20.74145527 -15.67414194 20.72147108 -19.11328125 20.70703125 C-20.08283249 20.72215256 -21.05238373 20.73727386 -22.05131531 20.75285339 C-25.13861337 20.79573491 -28.22493378 20.80456899 -31.3125 20.8125 C-33.40953121 20.8356439 -35.50653916 20.86100901 -37.60351562 20.88867188 C-42.73576353 20.95152905 -47.86740113 20.98386075 -53 21 C-52.505 19.515 -52.505 19.515 -52 18 C-50.78006348 18.05873291 -49.56012695 18.11746582 -48.30322266 18.17797852 C-43.73720006 18.3747717 -39.17477672 18.45710896 -34.60498047 18.5065918 C-32.63541311 18.54354337 -30.66615625 18.61073818 -28.69873047 18.7097168 C-19.15518473 19.26093138 -19.15518473 19.26093138 -10 17 C-4.99620981 12.40464639 -2.56211257 6.15587949 0 0 Z " fill="#15A553" transform="translate(337,342)"/>
<path d="M0 0 C1.4282618 0.00031703 2.85654759 0.01163717 4.28466797 0.03173828 C5.41242142 0.03598312 5.41242142 0.03598312 6.56295776 0.04031372 C8.96775125 0.05152204 11.37217428 0.07662726 13.77685547 0.10205078 C15.40575635 0.11207976 17.03466305 0.12120576 18.66357422 0.12939453 C22.65981103 0.15146343 26.65577041 0.18599728 30.65185547 0.22705078 C31.14685547 2.20705078 31.14685547 2.20705078 31.65185547 4.22705078 C30.66185547 4.55705078 29.67185547 4.88705078 28.65185547 5.22705078 C28.15685547 4.73205078 28.15685547 4.73205078 27.65185547 4.22705078 C23.63274059 3.79251206 19.61064836 3.65639049 15.57080078 3.54736328 C14.21798575 3.50082593 12.86572484 3.43276145 11.51513672 3.34228516 C7.03002549 3.04709611 2.99532337 3.0112427 -1.34814453 4.22705078 C-4.62026232 7.51368785 -6.4011923 11.06144184 -8.34814453 15.22705078 C-9.00814453 15.88705078 -9.66814453 16.54705078 -10.34814453 17.22705078 C-9.72283677 13.636366 -8.76633024 10.42109136 -7.41064453 7.03955078 C-7.07162109 6.17974609 -6.73259766 5.31994141 -6.38330078 4.43408203 C-4.71778952 0.88308632 -3.98845958 0.27047305 0 0 Z " fill="#0D9038" transform="translate(250.34814453125,226.77294921875)"/>
<path d="M0 0 C1.65 0.33 3.3 0.66 5 1 C4.46623692 6.12613974 1.93731339 9.88400476 -0.6875 14.1875 C-1.13722168 14.93765381 -1.58694336 15.68780762 -2.05029297 16.46069336 C-3.36073976 18.64422239 -4.68002549 20.82222259 -6 23 C-7.20896211 25.02045723 -8.41743645 27.04120658 -9.625 29.0625 C-10.41585286 30.37549052 -11.20713329 31.68822459 -12 33 C-13.31223496 29.06329512 -12.24296256 26.87511856 -11 23 C-10.34 23 -9.68 23 -9 23 C-9 22.01 -9 21.02 -9 20 C-8.34 20 -7.68 20 -7 20 C-6.855625 19.21625 -6.71125 18.4325 -6.5625 17.625 C-6 15 -6 15 -5 13 C-4.34 13 -3.68 13 -3 13 C-2.835 11.741875 -2.67 10.48375 -2.5 9.1875 C-2.4071875 8.47980469 -2.314375 7.77210938 -2.21875 7.04296875 C-1.946767 4.84528294 -1.946767 4.84528294 -2 2 C-1.34 2 -0.68 2 0 2 C0 1.34 0 0.68 0 0 Z " fill="#0CC75A" transform="translate(442,279)"/>
<path d="M0 0 C0 0.99 0 1.98 0 3 C-4.34302496 5.1524036 -8.29470557 5.24758828 -13.0390625 5.16015625 C-14.18307022 5.1523539 -14.18307022 5.1523539 -15.35018921 5.14439392 C-17.77532438 5.12665357 -20.20002807 5.09548463 -22.625 5.0625 C-25.05707 5.03485191 -27.48907951 5.0101527 -29.92123413 4.99131775 C-31.43156345 4.97909172 -32.94186114 4.96151848 -34.45205688 4.93800354 C-37.59068041 4.9080514 -39.99679361 4.9989312 -43 6 C-43.33 22.83 -43.66 39.66 -44 57 C-44.33 57 -44.66 57 -45 57 C-45.33 39.18 -45.66 21.36 -46 3 C-24.6875 2.625 -24.6875 2.625 -17.9675293 2.52197266 C-16.21141024 2.48676977 -14.45530536 2.45084886 -12.69921875 2.4140625 C-11.78611938 2.40270264 -10.87302002 2.39134277 -9.93225098 2.37963867 C-9.05959595 2.35957764 -8.18694092 2.3395166 -7.2878418 2.31884766 C-6.53061325 2.30552399 -5.7733847 2.29220032 -4.99320984 2.2784729 C-2.68394812 2.10291388 -2.68394812 2.10291388 0 0 Z " fill="#0CCB5C" transform="translate(331,359)"/>
<path d="M0 0 C4.42910272 -0.04973511 8.85805397 -0.08587704 13.28735352 -0.10986328 C14.79161413 -0.11987124 16.29585553 -0.1334818 17.80004883 -0.15087891 C19.97221643 -0.17535809 22.14412504 -0.18653523 24.31640625 -0.1953125 C25.62037354 -0.20578613 26.92434082 -0.21625977 28.26782227 -0.22705078 C32.21298432 0.01295711 35.26462372 0.77812819 39 2 C39 2.33 39 2.66 39 3 C25.8 3 12.6 3 -1 3 C-0.67 2.01 -0.34 1.02 0 0 Z " fill="#18BD61" transform="translate(381,279)"/>
<path d="M0 0 C3.22131705 2.96527157 5.33356967 5.96360614 7.49609375 9.76171875 C8.13740234 10.88126953 8.77871094 12.00082031 9.43945312 13.15429688 C10.10557704 14.33197001 10.77159205 15.50970474 11.4375 16.6875 C12.09903242 17.84603276 12.76113724 19.00423887 13.42382812 20.16210938 C16.99339726 26.41691106 20.52138189 32.69417117 24 39 C23.01 39 22.02 39 21 39 C19.53515625 36.31445312 19.53515625 36.31445312 18.0703125 33.62890625 C17.08589976 31.83381685 17.08589976 31.83381685 15 31 C13.7862849 28.76559436 12.65531291 26.54235489 11.5625 24.25 C9.91372305 20.83189036 8.28683494 17.46049691 6.27734375 14.234375 C5 12 5 12 5 9 C4.34 9 3.68 9 3 9 C0 2.25 0 2.25 0 0 Z " fill="#081144" transform="translate(154,286)"/>
<path d="M0 0 C0.33 0 0.66 0 1 0 C1.48524838 5.25818324 0.01606289 8.41245661 -2.8125 12.6875 C-3.34713867 13.53924805 -3.34713867 13.53924805 -3.89257812 14.40820312 C-5.7070222 17.2480578 -7.59025391 19.66030467 -10 22 C-11.04622875 23.97620986 -12.05439935 25.9737129 -13 28 C-13.66 28 -14.32 28 -15 28 C-15.99 30.97 -16.98 33.94 -18 37 C-18.99 37 -19.98 37 -21 37 C-19.67155157 33.46495619 -18.10480922 30.29274776 -16.171875 27.05078125 C-15.61886719 26.11943359 -15.06585938 25.18808594 -14.49609375 24.22851562 C-13.91988281 23.26623047 -13.34367187 22.30394531 -12.75 21.3125 C-12.18925781 20.36955078 -11.62851563 19.42660156 -11.05078125 18.45507812 C-9.92924923 16.57074892 -8.80492838 14.68807662 -7.67773438 12.80712891 C-6.5362018 10.89715488 -5.40236481 8.982565 -4.27539062 7.06396484 C-3.73591797 6.14953613 -3.19644531 5.23510742 -2.640625 4.29296875 C-2.15625977 3.46692139 -1.67189453 2.64087402 -1.17285156 1.78979492 C-0.78581055 1.1991626 -0.39876953 0.60853027 0 0 Z " fill="#0F133D" transform="translate(108,177)"/>
<path d="M0 0 C2.80292753 3.37300152 5.17346224 6.7761463 7.3828125 10.5625 C8.29740234 12.12871094 8.29740234 12.12871094 9.23046875 13.7265625 C9.85566406 14.80679688 10.48085938 15.88703125 11.125 17 C11.75792969 18.08023438 12.39085937 19.16046875 13.04296875 20.2734375 C15.66298373 24.77919575 18.16977386 29.10755803 20 34 C18.68 33.67 17.36 33.34 16 33 C16 31.35 16 29.7 16 28 C15.01 27.67 14.02 27.34 13 27 C11.00603743 24.33916031 9 21.38757675 9 18 C8.34 18 7.68 18 7 18 C6.67 16.35 6.34 14.7 6 13 C5.34 13 4.68 13 4 13 C-0.59225513 4.738041 -0.59225513 4.738041 0 0 Z " fill="#0A1244" transform="translate(406,163)"/>
<path d="M0 0 C4.21136803 2.10568402 6.90336628 6.90203409 9 11 C9.35864008 12.41047256 9.6907344 13.82788526 10 15.25 C10.33 16.4875 10.66 17.725 11 19 C11.99 19.33 12.98 19.66 14 20 C14 22.31 14 24.62 14 27 C10.1814346 23.4636429 7.90857311 19.08689598 5.3125 14.625 C4.54583008 13.34882813 4.54583008 13.34882813 3.76367188 12.046875 C3.28091797 11.21929687 2.79816406 10.39171875 2.30078125 9.5390625 C1.63816284 8.41298584 1.63816284 8.41298584 0.9621582 7.26416016 C-0.13518092 4.68189094 -0.18023859 2.77793881 0 0 Z " fill="#138E3E" transform="translate(200,261)"/>
<path d="M0 0 C0.33 0 0.66 0 1 0 C0.125 7.875 0.125 7.875 -1 9 C-3.6662603 9.08855161 -6.30647114 9.11524673 -8.97265625 9.09765625 C-9.77029892 9.0962413 -10.56794159 9.09482635 -11.38975525 9.09336853 C-13.94737435 9.08775316 -16.50490718 9.07519812 -19.0625 9.0625 C-20.79231645 9.05748698 -22.52213426 9.05292373 -24.25195312 9.04882812 C-28.50133553 9.03777875 -32.75065312 9.02050386 -37 9 C-37 8.34 -37 7.68 -37 7 C-36.0212793 7.00112793 -35.04255859 7.00225586 -34.03417969 7.00341797 C-30.39573484 6.99974117 -26.75861386 6.95690251 -23.12060547 6.90234375 C-21.54745011 6.88419819 -19.97413551 6.87661269 -18.40087891 6.87988281 C-16.13579488 6.88274457 -13.87400243 6.84739441 -11.609375 6.8046875 C-10.90818542 6.81378143 -10.20699585 6.82287537 -9.48455811 6.83224487 C-7.21472165 6.82761828 -7.21472165 6.82761828 -4 6 C-1.54767767 3.08275419 -1.54767767 3.08275419 0 0 Z " fill="#21BC68" transform="translate(283,275)"/>
<path d="M0 0 C2.97630449 2.78059566 5.08615031 5.50968084 7.12890625 9.02734375 C7.68900391 9.98447266 8.24910156 10.94160156 8.82617188 11.92773438 C9.39916016 12.92095703 9.97214844 13.91417969 10.5625 14.9375 C11.13935547 15.92685547 11.71621094 16.91621094 12.31054688 17.93554688 C13.38642445 19.7807948 14.45972409 21.62755007 15.52954102 23.47631836 C16.55350415 25.23369956 17.60866961 26.97311396 18.68725586 28.69750977 C20 31 20 31 20 33 C16.07775101 31.51225038 15.02696985 29.58541869 13 26 C12.07574219 24.39898437 12.07574219 24.39898437 11.1328125 22.765625 C9.40704387 19.74936683 7.68988812 16.72822193 5.97363281 13.70654297 C5.11245843 12.19711244 4.24061268 10.69378114 3.3671875 9.19140625 C2.91601562 8.40636719 2.46484375 7.62132812 2 6.8125 C1.608125 6.13832031 1.21625 5.46414062 0.8125 4.76953125 C0 3 0 3 0 0 Z " fill="#070E41" transform="translate(386,130)"/>
<path d="M0 0 C1.22111481 0.00007553 2.44222961 0.00015106 3.7003479 0.00022888 C5.03769979 0.00533587 6.37505127 0.01055187 7.71240234 0.01586914 C9.07717843 0.01773399 10.44195518 0.01915758 11.80673218 0.02015686 C15.40049077 0.02397676 18.99420902 0.03380256 22.58795166 0.04486084 C26.25442967 0.05508628 29.92091419 0.05965691 33.58740234 0.06469727 C40.78273325 0.07542529 47.97803089 0.0924954 55.17333984 0.11352539 C55.17333984 0.44352539 55.17333984 0.77352539 55.17333984 1.11352539 C54.15642815 1.12232475 54.15642815 1.12232475 53.11897278 1.13130188 C46.0621945 1.19524118 39.00587203 1.27966284 31.94946289 1.37597656 C29.31606048 1.40922864 26.68258676 1.43725963 24.04907227 1.45996094 C20.26336273 1.49350068 16.47830696 1.54581859 12.69287109 1.60180664 C10.92699394 1.61139153 10.92699394 1.61139153 9.1254425 1.62117004 C8.0246788 1.6409642 6.9239151 1.66075836 5.78979492 1.68115234 C4.82382889 1.6922554 3.85786285 1.70335846 2.86262512 1.71479797 C-0.32178085 2.18693456 -2.23072153 3.23773848 -4.82666016 5.11352539 C-5.15666016 5.77352539 -5.48666016 6.43352539 -5.82666016 7.11352539 C-6.48666016 7.11352539 -7.14666016 7.11352539 -7.82666016 7.11352539 C-7.82666016 5.13352539 -7.82666016 3.15352539 -7.82666016 1.11352539 C-5.12376708 -0.23792115 -3.02596209 -0.00622626 0 0 Z " fill="#0FCC61" transform="translate(234.82666015625,202.886474609375)"/>
<path d="M0 0 C0.99 0 1.98 0 3 0 C3.4125 1.03125 3.825 2.0625 4.25 3.125 C5.79767372 6.71677109 7.62057721 9.87700759 10 13 C10.99 13.33 11.98 13.66 13 14 C16.67518848 18.35577894 16.31739475 22.60428932 16 28 C14.68 28.33 13.36 28.66 12 29 C12.11214844 28.04609375 12.22429687 27.0921875 12.33984375 26.109375 C12.33848398 20.70835819 9.33733979 16.69937136 6.5625 12.25 C5.54087718 10.56897768 4.52125499 8.88673742 3.50390625 7.203125 C3.04830322 6.46739258 2.5927002 5.73166016 2.12329102 4.97363281 C1 3 1 3 0 0 Z " fill="#23AA4F" transform="translate(280,232)"/>
<path d="M0 0 C1.10546875 1.78125 1.10546875 1.78125 2 4 C0.35594862 7.40988435 -1.38630263 10.20446637 -3.6875 13.1875 C-5.09422653 15.13012235 -5.58153409 16.65659088 -6 19 C-6.66 19 -7.32 19 -8 19 C-8.33 19.99 -8.66 20.98 -9 22 C-9.66 22 -10.32 22 -11 22 C-11.4021875 23.11375 -11.4021875 23.11375 -11.8125 24.25 C-12.94229421 26.86636554 -14.20893202 28.80187111 -16 31 C-15.40707556 26.6600738 -13.82672208 23.58676119 -11.62109375 19.82421875 C-11.28956802 19.25419632 -10.9580423 18.68417389 -10.61647034 18.09687805 C-9.56342937 16.28978899 -8.5006655 14.48864725 -7.4375 12.6875 C-6.71874965 11.45806287 -6.00064367 10.2282488 -5.28320312 8.99804688 C-3.52957186 5.99429916 -1.767178 2.99580256 0 0 Z " fill="#0F143C" transform="translate(84,217)"/>
<path d="M0 0 C3.04502599 3.6677167 5.66822653 7.45403735 8.1875 11.5 C9.22970703 13.15515625 9.22970703 13.15515625 10.29296875 14.84375 C11.85629016 17.73428477 12.5440202 19.79166019 13 23 C13.33 23.99 13.66 24.98 14 26 C13.34 26 12.68 26 12 26 C10.48779297 23.796875 10.48779297 23.796875 8.7421875 20.75 C8.11699219 19.6671875 7.49179687 18.584375 6.84765625 17.46875 C6.19667969 16.3240625 5.54570312 15.179375 4.875 14 C4.21031851 12.84335718 3.54496251 11.6871017 2.87890625 10.53125 C1.24590795 7.69125295 -0.38001661 4.84743478 -2 2 C-1.34 1.34 -0.68 0.68 0 0 Z " fill="#070B30" transform="translate(346,182)"/>
<path d="M0 0 C1.81323242 2.6081543 1.81323242 2.6081543 1.81323242 4.6081543 C-0.62426758 4.2331543 -0.62426758 4.2331543 -3.18676758 3.6081543 C-3.68176758 2.6181543 -3.68176758 2.6181543 -4.18676758 1.6081543 C-8.90249227 0.15033144 -13.96935461 0.38333522 -18.86254883 0.29174805 C-19.78770798 0.27096695 -20.71286713 0.25018585 -21.6660614 0.22877502 C-24.61039065 0.1635887 -27.55480622 0.10453872 -30.49926758 0.0456543 C-32.49992741 0.00243966 -34.50057864 -0.04117557 -36.5012207 -0.08520508 C-41.39631537 -0.1920609 -46.29149655 -0.2934149 -51.18676758 -0.3918457 C-51.18676758 -0.7218457 -51.18676758 -1.0518457 -51.18676758 -1.3918457 C-44.44334598 -1.66182649 -37.69940886 -1.89167033 -30.95361328 -2.09375 C-28.65935393 -2.16720392 -26.36536871 -2.24981796 -24.07177734 -2.34179688 C-20.77316211 -2.4724846 -17.47496107 -2.57011003 -14.17504883 -2.66137695 C-13.15091385 -2.70905716 -12.12677887 -2.75673737 -11.0716095 -2.80586243 C-3.94014428 -2.95729667 -3.94014428 -2.95729667 0 0 Z " fill="#12B659" transform="translate(299.186767578125,203.391845703125)"/>
<path d="M0 0 C0.33 0.66 0.66 1.32 1 2 C0.67 2.66 0.34 3.32 0 4 C-1.98 4 -3.96 4 -6 4 C-5.938125 4.680625 -5.87625 5.36125 -5.8125 6.0625 C-6.06053634 9.94840271 -7.10764255 12.60680733 -9 16 C-11.6875 16.9375 -11.6875 16.9375 -14 17 C-12.36375134 11.13344993 -10.57852745 5.26057416 -6 1 C-2.6875 0.0625 -2.6875 0.0625 0 0 Z " fill="#12B357" transform="translate(380,279)"/>
<path d="M0 0 C0.66 0 1.32 0 2 0 C2 0.66 2 1.32 2 2 C2.928125 2.12375 2.928125 2.12375 3.875 2.25 C6 3 6 3 7.25 4.875 C8 7 8 7 8 10 C8.99 10.33 9.98 10.66 11 11 C11.9140625 12.9609375 11.9140625 12.9609375 12.625 15.375 C12.86476562 16.16648437 13.10453125 16.95796875 13.3515625 17.7734375 C13.56554687 18.50820313 13.77953125 19.24296875 14 20 C14.33 20.99 14.66 21.98 15 23 C10.77268951 21.5908965 9.62460917 18.5492416 7.5 14.875 C7.10941406 14.22273438 6.71882812 13.57046875 6.31640625 12.8984375 C3.84996659 8.71296414 1.8242058 4.50204637 0 0 Z " fill="#0F8135" transform="translate(214,289)"/>
<path d="M0 0 C0.66 0 1.32 0 2 0 C3 1.66666667 4 3.33333333 5 5 C6.299375 6.2065625 6.299375 6.2065625 7.625 7.4375 C10.34089801 10.36781101 10.72650094 12.07984683 11 16 C11.66 16 12.32 16 13 16 C13 16.66 13 17.32 13 18 C13.66 18 14.32 18 15 18 C15.12375 18.70125 15.2475 19.4025 15.375 20.125 C16.03838345 23.17656387 16.97211955 26.05340938 18 29 C15.14778363 26.44833273 13.38179999 23.54658602 11.42578125 20.2734375 C10.75869141 19.1596875 10.09160156 18.0459375 9.40429688 16.8984375 C9.06132568 16.32061523 8.71835449 15.74279297 8.36499023 15.14746094 C7.31027416 13.37125155 6.24847637 11.59942897 5.18554688 9.828125 C0 1.14019224 0 1.14019224 0 0 Z " fill="#080C29" transform="translate(71,272)"/>
<path d="M0 0 C3.3 0 6.6 0 10 0 C10.33 1.32 10.66 2.64 11 4 C12.32 4 13.64 4 15 4 C15.433125 5.051875 15.86625 6.10375 16.3125 7.1875 C17.31114769 9.54145526 18.34045449 11.55481473 19.6875 13.75 C21 16 21 16 21 19 C20.67 19.99 20.34 20.98 20 22 C18.53779721 19.43964079 17.08014847 16.8768644 15.625 14.3125 C15.2125 13.59126953 14.8 12.87003906 14.375 12.12695312 C12.31567728 8.48992349 10.41710948 4.94766212 9 1 C6.03 1 3.06 1 0 1 C0 0.67 0 0.34 0 0 Z " fill="#050927" transform="translate(317,151)"/>
<path d="M0 0 C0.66 0.33 1.32 0.66 2 1 C2 1.66 2 2.32 2 3 C2.66 3 3.32 3 4 3 C4.67408308 4.26691507 5.33900497 5.53870749 6 6.8125 C6.556875 7.87404297 6.556875 7.87404297 7.125 8.95703125 C8 11 8 11 8 14 C9.43750191 15.68798827 9.43750191 15.68798827 11 17 C10.67 17.66 10.34 18.32 10 19 C9.34 19 8.68 19 8 19 C6.85498047 17.43945312 6.85498047 17.43945312 5.6171875 15.28125 C5.17246094 14.51425781 4.72773437 13.74726563 4.26953125 12.95703125 C3.80933594 12.14621094 3.34914063 11.33539063 2.875 10.5 C2.17310547 9.28376953 2.17310547 9.28376953 1.45703125 8.04296875 C0.29798228 6.03237359 -0.85396471 4.01803239 -2 2 C-1.34 1.34 -0.68 0.68 0 0 Z " fill="#0D1236" transform="translate(116,343)"/>
<path d="M0 0 C0.66 0.33 1.32 0.66 2 1 C1.34 3.31 0.68 5.62 0 8 C-0.66 8 -1.32 8 -2 8 C-2.268125 8.70125 -2.53625 9.4025 -2.8125 10.125 C-4.08508854 13.20600383 -5.30188401 16.12626524 -7 19 C-9.1875 19.875 -9.1875 19.875 -11 20 C-9.36047417 15.3606824 -6.93128948 11.36144142 -4.375 7.1875 C-3.95476562 6.49462891 -3.53453125 5.80175781 -3.1015625 5.08789062 C-2.0710533 3.38989252 -1.03598319 1.69466386 0 0 Z " fill="#0B113B" transform="translate(120,157)"/>
<path d="M0 0 C0.66 0.33 1.32 0.66 2 1 C2.5 3.5 2.5 3.5 3 6 C3.66 6.33 4.32 6.66 5 7 C5 8.32 5 9.64 5 11 C5.99 11 6.98 11 8 11 C8.66 12.98 9.32 14.96 10 17 C10.66 17 11.32 17 12 17 C12 18.98 12 20.96 12 23 C7.84305126 19.38695109 5.44371602 14.97183361 2.75 10.25 C2.29109375 9.45722656 1.8321875 8.66445312 1.359375 7.84765625 C0.23394254 5.90159595 -0.88561584 3.95240104 -2 2 C-1.34 1.34 -0.68 0.68 0 0 Z " fill="#060B2C" transform="translate(362,209)"/>
<path d="M0 0 C1.86328125 0.203125 1.86328125 0.203125 4 1 C5.23046875 3.109375 5.23046875 3.109375 6.1875 5.75 C6.51105469 6.61109375 6.83460938 7.4721875 7.16796875 8.359375 C7.9670131 10.89530918 8.49027865 13.39377256 9 16 C9.33 16.66 9.66 17.32 10 18 C5.84127225 16.61375742 4.78174929 13.76037998 2.75 10.125 C2.37359375 9.48691406 1.9971875 8.84882813 1.609375 8.19140625 C0.65301763 6.5072328 -0.18210099 4.75559131 -1 3 C-0.67 2.01 -0.34 1.02 0 0 Z " fill="#0B1242" transform="translate(134,374)"/>
<path d="M0 0 C0.33 0 0.66 0 1 0 C1 3.3 1 6.6 1 10 C-0.98 10.99 -0.98 10.99 -3 12 C-3.38218767 13.65614657 -3.71395102 15.32457024 -4 17 C-5.5625 18.8125 -5.5625 18.8125 -7 20 C-5.58679547 12.46290916 -4.06336591 6.50138546 0 0 Z " fill="#0FC95C" transform="translate(226,204)"/>
<path d="M0 0 C3.59255694 3.3541418 5.77835962 7.35582393 8.25 11.5625 C8.72179687 12.34302734 9.19359375 13.12355469 9.6796875 13.92773438 C10.12054688 14.67474609 10.56140625 15.42175781 11.015625 16.19140625 C11.62325684 17.21536499 11.62325684 17.21536499 12.24316406 18.26000977 C12.61779785 19.12130493 12.61779785 19.12130493 13 20 C12.67 20.66 12.34 21.32 12 22 C9.19860755 19.65044504 8.08936484 18.55853026 7.5 14.875 C7.335 13.92625 7.17 12.9775 7 12 C5.08333333 10.83333333 5.08333333 10.83333333 3 10 C1.875 8 1.875 8 1 6 C0.34 5.34 -0.32 4.68 -1 4 C-0.625 1.875 -0.625 1.875 0 0 Z " fill="#0A1147" transform="translate(363,90)"/>
<path d="M0 0 C1.65 0 3.3 0 5 0 C1.52939556 7.37303523 -2.51434446 14.2004184 -7 21 C-7.33 20.34 -7.66 19.68 -8 19 C-7.35191436 17.65753688 -6.68177416 16.32567199 -6 15 C-5.855625 14.154375 -5.71125 13.30875 -5.5625 12.4375 C-4.93119741 9.70185546 -4.17311819 8.72038523 -2 7 C-1.67 7 -1.34 7 -1 7 C-0.67 4.69 -0.34 2.38 0 0 Z " fill="#0B823B" transform="translate(322,264)"/>
<path d="M0 0 C0.33 0 0.66 0 1 0 C1.3125 3.1875 1.3125 3.1875 1 7 C-1.25 9.5 -1.25 9.5 -4 12 C-4.74919068 13.22594838 -5.45776053 14.47758985 -6.125 15.75 C-8 19 -8 19 -11 20 C-9.35800988 15.37909884 -6.9659032 11.36156215 -4.4375 7.1875 C-4.02564453 6.49462891 -3.61378906 5.80175781 -3.18945312 5.08789062 C-2.15713173 3.37298683 -1.08229765 1.68380945 0 0 Z " fill="#129C4A" transform="translate(349,322)"/>
<path d="M0 0 C6.27 0 12.54 0 19 0 C19 0.66 19 1.32 19 2 C15.81175432 3.59412284 12.37103338 3.10174735 8.875 3.0625 C8.12089844 3.05798828 7.36679687 3.05347656 6.58984375 3.04882812 C4.72652873 3.03703499 2.86325445 3.01909942 1 3 C0.67 2.01 0.34 1.02 0 0 Z " fill="#1BBA64" transform="translate(423,279)"/>
<path d="M0 0 C1.32 0 2.64 0 4 0 C2.51481201 4.04301175 0.57122002 7.61146256 -1.625 11.3125 C-2.25664062 12.38113281 -2.88828125 13.44976562 -3.5390625 14.55078125 C-4.26222656 15.76314453 -4.26222656 15.76314453 -5 17 C-6.31223496 13.06329512 -5.24296256 10.87511856 -4 7 C-3.34 7 -2.68 7 -2 7 C-2 6.01 -2 5.02 -2 4 C-1.34 4 -0.68 4 0 4 C0 2.68 0 1.36 0 0 Z " fill="#0E833B" transform="translate(435,295)"/>
<path d="M0 0 C0.33 0.99 0.66 1.98 1 3 C1.66 3.33 2.32 3.66 3 4 C2.29273802 5.48976459 1.55826094 6.96662996 0.8125 8.4375 C0.20341797 9.67306641 0.20341797 9.67306641 -0.41796875 10.93359375 C-2 13 -2 13 -7 14 C-4.69 9.38 -2.38 4.76 0 0 Z " fill="#189C4B" transform="translate(291,261)"/>
<path d="M0 0 C2.475 0.495 2.475 0.495 5 1 C5.268125 1.94875 5.53625 2.8975 5.8125 3.875 C6.74986588 7.25267273 6.74986588 7.25267273 10 9 C10.6875 11.625 10.6875 11.625 11 14 C10.01 14 9.02 14 8 14 C4.04 7.07 4.04 7.07 0 0 Z " fill="#0B0E2E" transform="translate(143,393)"/>
<path d="M0 0 C2.18697502 2.79624958 3.99152813 5.63307872 5.6875 8.75 C6.12449219 9.54921875 6.56148438 10.3484375 7.01171875 11.171875 C7.33785156 11.77515625 7.66398437 12.3784375 8 13 C7.01 13.495 7.01 13.495 6 14 C3 13 3 13 1.3125 10.9375 C-0.43156702 7.03411191 -0.21611119 4.25018665 0 0 Z " fill="#10A555" transform="translate(317,235)"/>
<path d="M0 0 C0.99 0 1.98 0 3 0 C2.7357513 5.37305699 2.7357513 5.37305699 2 8 C-0.5625 10 -0.5625 10 -3 11 C-3.32136655 6.39374606 -2.91033076 3.66486096 0 0 Z " fill="#0EC761" transform="translate(353,315)"/>
<path d="M0 0 C0.33 0 0.66 0 1 0 C1.64974692 5.19797535 0.12397801 8.08614674 -2.515625 12.36328125 C-4.27159216 14.29946609 -5.4528801 14.62446309 -8 15 C-7.59007813 14.25234375 -7.18015625 13.5046875 -6.7578125 12.734375 C-5.94957031 11.25710937 -5.94957031 11.25710937 -5.125 9.75 C-4.59132813 8.77546875 -4.05765625 7.8009375 -3.5078125 6.796875 C-2.29580534 4.54869592 -1.12452433 2.2927195 0 0 Z " fill="#0C113B" transform="translate(129,141)"/>
<path d="M0 0 C3.22269618 3.79817765 5.74520378 7.57391854 8 12 C7.67 12.66 7.34 13.32 7 14 C1.20731707 9.73170732 1.20731707 9.73170732 0 6 C-0.125 2.75 -0.125 2.75 0 0 Z " fill="#0EA64A" transform="translate(301,208)"/>
<path d="M0 0 C0.66 0.33 1.32 0.66 2 1 C-0.64 5.62 -3.28 10.24 -6 15 C-7.13643966 11.59068103 -6.86747764 10.99664544 -5.5625 7.8125 C-5.27503906 7.09707031 -4.98757813 6.38164062 -4.69140625 5.64453125 C-4.46324219 5.10183594 -4.23507812 4.55914062 -4 4 C-3.34 4 -2.68 4 -2 4 C-2 3.01 -2 2.02 -2 1 C-1.34 0.67 -0.68 0.34 0 0 Z " fill="#0A7637" transform="translate(418,327)"/>
<path d="M0 0 C0.66 0.33 1.32 0.66 2 1 C-0.31 5.29 -2.62 9.58 -5 14 C-7 10 -7 10 -6.375 7.3125 C-5 5 -5 5 -2.875 4.1875 C-2.25625 4.125625 -1.6375 4.06375 -1 4 C-0.67 2.68 -0.34 1.36 0 0 Z " fill="#0B8339" transform="translate(238,244)"/>
<path d="M0 0 C0.33 0.66 0.66 1.32 1 2 C0.67 2.66 0.34 3.32 0 4 C-1.98 4 -3.96 4 -6 4 C-6 4.99 -6 5.98 -6 7 C-7.32 7.33 -8.64 7.66 -10 8 C-8.9375 5.125 -8.9375 5.125 -7 2 C-3.3125 0.625 -3.3125 0.625 0 0 Z " fill="#159D52" transform="translate(380,279)"/>
<path d="M0 0 C0.99 0.495 0.99 0.495 2 1 C1.67 1.99 1.34 2.98 1 4 C1.66 4 2.32 4 3 4 C4.85776765 7.13498292 5.20140476 9.37471432 5 13 C2.5 11.5625 2.5 11.5625 0 9 C-0.4451258 5.95743422 -0.29359745 3.0534135 0 0 Z " fill="#11BC58" transform="translate(231,254)"/>
<path d="M0 0 C2.30874711 2.16614803 4.05290181 4.39206608 5.75 7.0625 C6.19859375 7.75472656 6.6471875 8.44695312 7.109375 9.16015625 C7.40328125 9.76730469 7.6971875 10.37445313 8 11 C7.67 11.66 7.34 12.32 7 13 C4 12 4 12 2.83203125 9.78515625 C2.32736328 8.43744141 2.32736328 8.43744141 1.8125 7.0625 C1.46832031 6.16660156 1.12414062 5.27070313 0.76953125 4.34765625 C0 2 0 2 0 0 Z " fill="#0A1045" transform="translate(178,326)"/>
<path d="M0 0 C1 3 1 3 -0.43359375 5.91796875 C-1.09488281 6.99691406 -1.75617188 8.07585937 -2.4375 9.1875 C-3.09621094 10.27417969 -3.75492187 11.36085938 -4.43359375 12.48046875 C-5.20896484 13.72763672 -5.20896484 13.72763672 -6 15 C-7.45047396 12.09905209 -6.45356803 10.44027404 -5.5625 7.375 C-5.27503906 6.37210937 -4.98757813 5.36921875 -4.69140625 4.3359375 C-4.46324219 3.56507813 -4.23507812 2.79421875 -4 2 C-3.34 2.66 -2.68 3.32 -2 4 C-1.34 2.68 -0.68 1.36 0 0 Z " fill="#0A7238" transform="translate(446,280)"/>
<path d="M0 0 C0.99 0 1.98 0 3 0 C3.391875 0.969375 3.78375 1.93875 4.1875 2.9375 C5.84004525 6.84932208 7.92964794 10.44288923 10.109375 14.08203125 C10.40328125 14.71496094 10.6971875 15.34789062 11 16 C10.67 16.66 10.34 17.32 10 18 C8.32605999 15.37957157 6.6621165 12.75294095 5 10.125 C4.52304687 9.37863281 4.04609375 8.63226563 3.5546875 7.86328125 C3.10351562 7.14785156 2.65234375 6.43242187 2.1875 5.6953125 C1.76855469 5.03547363 1.34960938 4.37563477 0.91796875 3.69580078 C0 2 0 2 0 0 Z " fill="#155B2A" transform="translate(280,232)"/>
<path d="M0 0 C1.32 0.33 2.64 0.66 4 1 C2.8782037 2.7936743 1.75245517 4.5848773 0.625 6.375 C-0.00148437 7.37273437 -0.62796875 8.37046875 -1.2734375 9.3984375 C-3 12 -3 12 -5 14 C-4.23510329 8.95168169 -2.27247598 4.54495196 0 0 Z " fill="#0D7732" transform="translate(245,230)"/>
<path d="M0 0 C4.71171241 1.97971109 5.76197356 4.52394712 8 9 C8 9.66 8 10.32 8 11 C5.6875 10.5625 5.6875 10.5625 3 9 C1.63924116 6.09244107 0.78637041 3.10712212 0 0 Z " fill="#040D3C" transform="translate(434,213)"/>
<path d="M0 0 C5.11881188 6.51485149 5.11881188 6.51485149 4.75 11.125 C4 14 4 14 2 16 C2.04125 14.906875 2.0825 13.81375 2.125 12.6875 C2.32074666 8.91107771 2.32074666 8.91107771 0 6 C-0.125 2.8125 -0.125 2.8125 0 0 Z " fill="#0E8D41" transform="translate(325,248)"/>
<path d="M0 0 C2.91227269 3.28804981 4.49701212 5.59885603 5 10 C2 9 2 9 0.83203125 7.15234375 C0.49558594 6.42144531 0.15914062 5.69054687 -0.1875 4.9375 C-0.53167969 4.20402344 -0.87585938 3.47054688 -1.23046875 2.71484375 C-1.48441406 2.14894531 -1.73835938 1.58304687 -2 1 C-1.34 0.67 -0.68 0.34 0 0 Z " fill="#0D1031" transform="translate(128,363)"/>
<path d="M0 0 C0.33 0 0.66 0 1 0 C1.36658354 6.47630923 1.36658354 6.47630923 -0.3125 8.875 C-2 10 -2 10 -5 11 C-3.55049545 7.2089881 -1.84827434 3.6125362 0 0 Z " fill="#188F4A" transform="translate(226,204)"/>
<path d="M0 0 C2 2 2 2 2 6 C1.01 6.66 0.02 7.32 -1 8 C-1.25030977 10.58380177 -1.25030977 10.58380177 -1 13 C-1.66 12.67 -2.32 12.34 -3 12 C-3.34833144 7.12335991 -2.41685712 4.22949995 0 0 Z " fill="#128139" transform="translate(200,249)"/>
<path d="M0 0 C2.40575607 2.18517099 3.79535581 4.25919671 5.1875 7.1875 C5.53167969 7.90292969 5.87585938 8.61835938 6.23046875 9.35546875 C6.48441406 9.89816406 6.73835938 10.44085938 7 11 C6.01 11 5.02 11 4 11 C1.31900734 7.49408652 0.50483662 4.34159496 0 0 Z " fill="#0B1143" transform="translate(427,199)"/>
<path d="M0 0 C2.74277578 3.19990508 4.6302836 6.00499382 6 10 C5.01 10 4.02 10 3 10 C2.30289269 8.71349294 1.61757124 7.42059335 0.9375 6.125 C0.36322266 5.04605469 0.36322266 5.04605469 -0.22265625 3.9453125 C-0.47917969 3.30335938 -0.73570312 2.66140625 -1 2 C-0.67 1.34 -0.34 0.68 0 0 Z " fill="#071043" transform="translate(148,275)"/>
<path d="M0 0 C2.91488977 2.6234008 4.88503898 5.71816394 7 9 C6.67 9.66 6.34 10.32 6 11 C5.34 11 4.68 11 4 11 C0 4.5 0 4.5 0 0 Z " fill="#070E3E" transform="translate(190,346)"/>
<path d="M0 0 C0.66 0 1.32 0 2 0 C2 0.66 2 1.32 2 2 C3.32 2.33 4.64 2.66 6 3 C6.625 4.8125 6.625 4.8125 7 7 C6.01 8.485 6.01 8.485 5 10 C3.35 6.7 1.7 3.4 0 0 Z " fill="#0D112C" transform="translate(108,334)"/>
<path d="M0 0 C0.66 0.99 1.32 1.98 2 3 C1.54625 3.5775 1.0925 4.155 0.625 4.75 C-1.04238698 6.90427881 -1.04238698 6.90427881 -2 9.1875 C-3 11 -3 11 -6 12 C-4.43358249 7.69235185 -2.31663844 3.93828536 0 0 Z " fill="#137F3C" transform="translate(344,330)"/>
<path d="M0 0 C2.1640625 -0.29296875 2.1640625 -0.29296875 4.625 -0.1875 C5.44226563 -0.16042969 6.25953125 -0.13335937 7.1015625 -0.10546875 C8.04128906 -0.05326172 8.04128906 -0.05326172 9 0 C9 0.66 9 1.32 9 2 C6.59454362 3.20272819 5.05003047 3.10071472 2.375 3.0625 C1.14910156 3.04896484 1.14910156 3.04896484 -0.1015625 3.03515625 C-1.04128906 3.01775391 -1.04128906 3.01775391 -2 3 C-1.34 2.01 -0.68 1.02 0 0 Z " fill="#0C7834" transform="translate(290,310)"/>
<path d="M0 0 C0.33 1.32 0.66 2.64 1 4 C0.01 4.33 -0.98 4.66 -2 5 C-2.66 4.34 -3.32 3.68 -4 3 C-5.98821313 2.60235737 -7.98944339 2.26224651 -10 2 C-10 1.67 -10 1.34 -10 1 C-6.59437148 0.22157062 -3.49234244 -0.09978121 0 0 Z " fill="#1BB256" transform="translate(281,227)"/>
<path d="M0 0 C0.66 0.33 1.32 0.66 2 1 C1.21516341 2.48280196 0.42190666 3.9611498 -0.375 5.4375 C-0.81585938 6.26121094 -1.25671875 7.08492188 -1.7109375 7.93359375 C-3 10 -3 10 -5 11 C-5.1875 8.625 -5.1875 8.625 -5 6 C-4.01 5.34 -3.02 4.68 -2 4 C-0.80767387 1.94996045 -0.80767387 1.94996045 0 0 Z " fill="#12CA5D" transform="translate(343,336)"/>
<path d="M0 0 C0.66 0 1.32 0 2 0 C2 0.66 2 1.32 2 2 C3.32 2.33 4.64 2.66 6 3 C6.33 4.32 6.66 5.64 7 7 C5.68 7 4.36 7 3 7 C2.01 4.69 1.02 2.38 0 0 Z " fill="#199341" transform="translate(214,289)"/>
<path d="M0 0 C2 1 2 1 3 3 C2.22265625 4.7265625 2.22265625 4.7265625 1.0625 6.625 C0.0415625 8.295625 0.0415625 8.295625 -1 10 C-2.1875 8.375 -2.1875 8.375 -3 6 C-1.625 2.75 -1.625 2.75 0 0 Z " fill="#040D37" transform="translate(186,168)"/>
<path d="M0 0 C0.33 0 0.66 0 1 0 C0.38461538 6.52307692 0.38461538 6.52307692 -1.5625 8.9375 C-2.036875 9.288125 -2.51125 9.63875 -3 10 C-3.66 9.67 -4.32 9.34 -5 9 C-3.35 6.03 -1.7 3.06 0 0 Z " fill="#13863E" transform="translate(337,342)"/>
<path d="M0 0 C3 1 3 1 4.625 3.8125 C5.67992164 6.25800018 6.50045341 8.40235776 7 11 C5.62437146 9.71034824 4.29233607 8.37310707 3 7 C3 6.34 3 5.68 3 5 C2.34 5 1.68 5 1 5 C0.67 3.35 0.34 1.7 0 0 Z " fill="#071145" transform="translate(70,267)"/>
<path d="M0 0 C0.99 0.33 1.98 0.66 3 1 C4.1875 3.5625 4.1875 3.5625 5 6 C4.34 6 3.68 6 3 6 C2.67 6.99 2.34 7.98 2 9 C1.34 6.03 0.68 3.06 0 0 Z " fill="#1AB24F" transform="translate(290,245)"/>
<path d="M0 0 C1.32 0.33 2.64 0.66 4 1 C2.35 3.64 0.7 6.28 -1 9 C-2.07349791 4.70600835 -1.79682816 3.80504787 0 0 Z " fill="#091442" transform="translate(148,232)"/>
<path d="M0 0 C0.66 0 1.32 0 2 0 C2 0.66 2 1.32 2 2 C3.32 2.33 4.64 2.66 6 3 C6 5.31 6 7.62 6 10 C3.47650757 6.87567603 1.72743854 3.61939504 0 0 Z " fill="#060A26" transform="translate(338,173)"/>
<path d="M0 0 C0.66 0 1.32 0 2 0 C2 0.66 2 1.32 2 2 C3.32 2.33 4.64 2.66 6 3 C6.33 4.98 6.66 6.96 7 9 C4 8 4 8 2.83203125 6.15234375 C2.49558594 5.42144531 2.15914062 4.69054687 1.8125 3.9375 C1.46832031 3.20402344 1.12414062 2.47054688 0.76953125 1.71484375 C0.51558594 1.14894531 0.26164063 0.58304687 0 0 Z " fill="#080B25" transform="translate(152,408)"/>
<path d="M0 0 C1.98 0.99 1.98 0.99 4 2 C4 4.31 4 6.62 4 9 C1.47740939 7.02579865 1.0070192 6.03254358 0.3125 2.8125 C0.209375 1.884375 0.10625 0.95625 0 0 Z " fill="#159F46" transform="translate(210,279)"/>
<path d="M0 0 C2.96865509 2.54456151 4.3619751 5.48994665 6 9 C5.01 9 4.02 9 3 9 C2.67 7.68 2.34 6.36 2 5 C1.34 5 0.68 5 0 5 C0 3.35 0 1.7 0 0 Z " fill="#0B9747" transform="translate(311,226)"/>
<path d="M0 0 C0.66 0 1.32 0 2 0 C3.32 2.64 4.64 5.28 6 8 C4.68 8 3.36 8 2 8 C0.74335022 5.09399739 0 3.20395416 0 0 Z " fill="#0F1446" transform="translate(396,147)"/>
<path d="M0 0 C0.99 0 1.98 0 3 0 C1.55049545 3.7910119 -0.15172566 7.3874638 -2 11 C-3.13643966 7.59068103 -2.86747764 6.99664544 -1.5625 3.8125 C-1.13130859 2.73935547 -1.13130859 2.73935547 -0.69140625 1.64453125 C-0.46324219 1.10183594 -0.23507812 0.55914062 0 0 Z " fill="#0B6B2F" transform="translate(390,371)"/>
<path d="M0 0 C0.66 0.33 1.32 0.66 2 1 C0.35 3.64 -1.3 6.28 -3 9 C-3.66 7.68 -4.32 6.36 -5 5 C-4 3 -4 3 -1 2 C-0.67 1.34 -0.34 0.68 0 0 Z " fill="#0A8438" transform="translate(303,301)"/>
<path d="M0 0 C0.99 1.32 1.98 2.64 3 4 C2.34 4.66 1.68 5.32 1 6 C0.01 6 -0.98 6 -2 6 C-2 6.66 -2 7.32 -2 8 C-2.66 7.67 -3.32 7.34 -4 7 C-2.68 4.69 -1.36 2.38 0 0 Z " fill="#169041" transform="translate(366,293)"/>
<path d="M0 0 C0.33 0 0.66 0 1 0 C0.67 2.64 0.34 5.28 0 8 C-0.99 8 -1.98 8 -3 8 C-3 4.41465407 -1.97637955 2.92504174 0 0 Z " fill="#18A24C" transform="translate(283,275)"/>
<path d="M0 0 C4 4.75 4 4.75 4 7 C2.125 6.8125 2.125 6.8125 0 6 C-1.25 3.4375 -1.25 3.4375 -2 1 C-1.34 0.67 -0.68 0.34 0 0 Z " fill="#060F3D" transform="translate(142,265)"/>
<path d="M0 0 C0.99 0 1.98 0 3 0 C4.75 2.375 4.75 2.375 6 5 C5.67 5.66 5.34 6.32 5 7 C4.01 6.67 3.02 6.34 2 6 C0.8125 2.9375 0.8125 2.9375 0 0 Z " fill="#040C3E" transform="translate(136,258)"/>
<path d="M0 0 C3 1 3 1 5 3 C5.625 5.625 5.625 5.625 6 8 C5.01 7.67 4.02 7.34 3 7 C1.3125 3.4375 1.3125 3.4375 0 0 Z " fill="#0A0B24" transform="translate(134,377)"/>
<path d="M0 0 C0.66 0.33 1.32 0.66 2 1 C-0.475 5.455 -0.475 5.455 -3 10 C-4.15941038 6.52176885 -3.70820884 4.54104422 -3 1 C-2.01 0.67 -1.02 0.34 0 0 Z " fill="#076B27" transform="translate(312,286)"/>
<path d="M0 0 C0.66 0.66 1.32 1.32 2 2 C1.01 4.31 0.02 6.62 -1 9 C-1.66 9 -2.32 9 -3 9 C-2.5020163 5.26512223 -2.12508244 3.18762365 0 0 Z " fill="#07C658" transform="translate(315,277)"/>
<path d="M0 0 C0.33 0.66 0.66 1.32 1 2 C2.32 1.67 3.64 1.34 5 1 C4.34 2.65 3.68 4.3 3 6 C2.01 6 1.02 6 0 6 C0 4.02 0 2.04 0 0 Z " fill="#0B8B39" transform="translate(362,415)"/>
<path d="M0 0 C0.66 0.33 1.32 0.66 2 1 C0.35 3.64 -1.3 6.28 -3 9 C-4.43088528 6.13822943 -3.59991697 4.06624227 -3 1 C-2.01 1.33 -1.02 1.66 0 2 C0 1.34 0 0.68 0 0 Z " fill="#0D7737" transform="translate(409,342)"/>
<path d="M0 0 C0.66 0 1.32 0 2 0 C0.25 7.75 0.25 7.75 -2 10 C-1.85950482 8.52031676 -1.71245174 7.04125484 -1.5625 5.5625 C-1.48128906 4.73878906 -1.40007812 3.91507812 -1.31640625 3.06640625 C-1 1 -1 1 0 0 Z " fill="#0A943E" transform="translate(431,302)"/>
<path d="M0 0 C3.3 0 6.6 0 10 0 C10.33 0.99 10.66 1.98 11 3 C10.29875 2.855625 9.5975 2.71125 8.875 2.5625 C5.92443859 1.98521625 2.96729849 1.48304859 0 1 C0 0.67 0 0.34 0 0 Z " fill="#08E147" transform="translate(413,279)"/>
<path d="M0 0 C2.32472205 2.85306797 3.7508258 5.54074837 5 9 C4.01 9.495 4.01 9.495 3 10 C3 9.01 3 8.02 3 7 C2.34 7 1.68 7 1 7 C0.67 4.69 0.34 2.38 0 0 Z " fill="#0E9B4E" transform="translate(236,263)"/>
<path d="M0 0 C1.125 1.75 1.125 1.75 2 4 C1.125 6.25 1.125 6.25 0 8 C-0.66 7.67 -1.32 7.34 -2 7 C-1.125 2.25 -1.125 2.25 0 0 Z " fill="#199A46" transform="translate(203,244)"/>
<path d="M0 0 C1.98 0.495 1.98 0.495 4 1 C2.515 3.475 2.515 3.475 1 6 C0.34 5.67 -0.32 5.34 -1 5 C-0.67 3.35 -0.34 1.7 0 0 Z " fill="#050B33" transform="translate(174,188)"/>
<path d="M0 0 C1.15941038 3.47823115 0.70820884 5.45895578 0 9 C-0.99 8.34 -1.98 7.68 -3 7 C-1.125 2.25 -1.125 2.25 0 0 Z " fill="#168C46" transform="translate(353,315)"/>
<path d="M0 0 C0.99 0.33 1.98 0.66 3 1 C1.02 3.97 1.02 3.97 -1 7 C-1.66 6.67 -2.32 6.34 -3 6 C-2.625 3.5625 -2.625 3.5625 -2 1 C-1.34 0.67 -0.68 0.34 0 0 Z " fill="#13CB5F" transform="translate(286,274)"/>
<path d="M0 0 C0.99 0.66 1.98 1.32 3 2 C1.68 3.65 0.36 5.3 -1 7 C-1.625 4.625 -1.625 4.625 -2 2 C-1.34 1.34 -0.68 0.68 0 0 Z " fill="#02133B" transform="translate(158,216)"/>
</svg>
